<?xml version="1.0" standalone="no"?>
<!DOCTYPE svg PUBLIC "-//W3C//DTD SVG 1.1//EN" "http://www.w3.org/Graphics/SVG/1.1/DTD/svg11.dtd" >
<svg xmlns="http://www.w3.org/2000/svg" xmlns:xlink="http://www.w3.org/1999/xlink" version="1.1">
<metadata>
Created by FontForge 20160407 at Fri Jul 15 14:03:25 2016
 By Jimmy Wärting
Brezel Grotesk embodies the character of classic 19th century Grotesques. This unpretentious font is complemented by the regular, yet organic silhouette of a Bavarian pretzel.
Brezel Grotesk, originally designed by Stefanie Preis in 2010, was later refined and further developed by Milieu Grotesque and Bj\u00F6 rn Gogalla until 2014. The family comes in eight styles in total (four weights with corresponding italics), each style comprises an extended Latin character set.
</metadata>
<defs>
<font id="BrezelGrotesk-Bold" horiz-adv-x="520" >
  <font-face 
    font-family="Brezel Grotesk"
    font-weight="700"
    font-stretch="normal"
    units-per-em="1000"
    panose-1="2 11 6 3 6 2 2 2 0 0"
    ascent="750"
    descent="-250"
    x-height="500"
    cap-height="700"
    bbox="-100 -255 1113 982"
    underline-thickness="110"
    underline-position="-100"
    stemh="125"
    stemv="140"
    unicode-range="U+000D-FB02"
  />
<missing-glyph horiz-adv-x="686" 
d="M342 715c163 0 294 -138 294 -292v-423h-28l-65 65l-68 -65l-63 65l-71 -65l-69 65l-63 -65l-67 65l-66 -65h-26v423c0 154 131 292 292 292zM213 396l-63 64l-14 -14l63 -64l-63 -63l14 -14l63 63l64 -63l14 14l-64 63l64 64l-14 14zM473 396l-63 64l-14 -14l63 -64
l-63 -63l14 -14l63 63l64 -63l14 14l-64 63l64 64l-14 14z" />
    <glyph glyph-name="fi" unicode="fi" horiz-adv-x="522" 
d="M467 0h-129v387h-130v-387h-127v387h-66v113h66v29c0 141 100 205 208 205c104 0 174 -59 174 -128c0 -23 -8 -44 -8 -44h-114s2 5 2 12c0 22 -17 42 -56 42c-54 0 -79 -37 -79 -98v-18h259v-500z" />
    <glyph glyph-name="fl" unicode="fl" horiz-adv-x="548" 
d="M81 500v46c0 125 89 188 181 188c47 0 78 -15 102 -29v17h129v-722h-129v588c-17 16 -46 28 -76 28c-44 0 -80 -29 -80 -82v-34h103v-113h-103v-387h-127v387h-66v113h66z" />
    <glyph glyph-name=".notdef" horiz-adv-x="686" 
d="M342 715c163 0 294 -138 294 -292v-423h-28l-65 65l-68 -65l-63 65l-71 -65l-69 65l-63 -65l-67 65l-66 -65h-26v423c0 154 131 292 292 292zM213 396l-63 64l-14 -14l63 -64l-63 -63l14 -14l63 63l64 -63l14 14l-64 63l64 64l-14 14zM473 396l-63 64l-14 -14l63 -64
l-63 -63l14 -14l63 63l64 -63l14 14l-64 63l64 64l-14 14z" />
    <glyph glyph-name=".null" horiz-adv-x="0" 
 />
    <glyph glyph-name=".null" horiz-adv-x="0" 
 />
    <glyph glyph-name="CR" unicode="&#xd;" horiz-adv-x="239" 
 />
    <glyph glyph-name="space" unicode=" " horiz-adv-x="239" 
 />
    <glyph glyph-name="p" unicode="p" horiz-adv-x="532" 
d="M282 384c-75 0 -99 -78 -99 -140c0 -57 17 -129 99 -129c77 0 93 71 93 128c0 68 -22 141 -93 141zM187 27h-2v-227h-130v700h118v-41h3c21 23 60 51 124 51c137 0 202 -132 202 -266c0 -157 -79 -254 -203 -254c-52 0 -82 15 -112 37z" />
    <glyph glyph-name="c" unicode="c" horiz-adv-x="465" 
d="M325 330c0 34 -24 56 -61 56c-77 0 -105 -64 -105 -142c0 -68 33 -129 98 -129c45 0 71 25 71 67c0 15 -3 28 -3 28h102s12 -29 12 -63c0 -107 -79 -157 -174 -157c-139 0 -235 91 -235 249c0 146 84 271 238 271c86 0 166 -50 166 -146c0 -37 -11 -65 -11 -65h-101
s3 12 3 31z" />
    <glyph glyph-name="e" unicode="e" horiz-adv-x="483" 
d="M265 102c52 0 65 27 65 47c0 8 -2 15 -2 15h104s8 -17 8 -42c0 -95 -96 -132 -175 -132c-158 0 -235 106 -235 250c0 143 71 270 227 270c117 0 192 -82 192 -191c0 -55 -15 -101 -15 -101h-279c1 -75 37 -116 110 -116zM250 398c-72 0 -90 -59 -90 -85h170
c5 31 -6 85 -80 85z" />
    <glyph glyph-name="j" unicode="j" horiz-adv-x="249" 
d="M194 500v-498c0 -159 -52 -212 -146 -212c-92 0 -133 50 -133 116c0 29 8 46 8 46h97s-3 -7 -3 -17c0 -15 3 -27 23 -27c21 0 25 12 25 73v519h129zM46 644c0 50 40 90 90 90s90 -40 90 -90s-40 -90 -90 -90s-90 40 -90 90z" />
    <glyph glyph-name="l" unicode="l" horiz-adv-x="239" 
d="M184 0h-129v722h129v-722z" />
    <glyph glyph-name="r" unicode="r" horiz-adv-x="420" 
d="M294 510c68 0 121 -45 121 -115c0 -54 -14 -92 -14 -92h-107s5 16 5 33c0 38 -16 54 -49 54c-31 0 -64 -23 -64 -109v-281h-131v500h131v-41h2c27 30 58 51 106 51z" />
    <glyph glyph-name="u" unicode="u" 
d="M336 219v281h129v-500h-129v49h-2c-22 -28 -56 -59 -123 -59c-95 0 -159 72 -159 169v341h132v-308c0 -50 26 -76 70 -76c37 0 82 17 82 103z" />
    <glyph glyph-name="f" unicode="f" horiz-adv-x="323" 
d="M81 500v37c0 94 30 197 153 197c69 0 121 -48 121 -115c0 -31 -8 -57 -8 -57h-94s3 13 3 24c0 21 -8 30 -20 30c-18 0 -28 -12 -28 -77v-39h100v-113h-100v-387h-127v387h-66v113h66z" />
    <glyph glyph-name="d" unicode="d" horiz-adv-x="524" 
d="M469 722v-722h-120v42h-2c-20 -24 -65 -52 -120 -52c-95 0 -197 77 -197 261c0 154 83 259 190 259c55 0 94 -18 117 -43h2v255h130zM252 384c-60 0 -99 -48 -99 -143c0 -90 48 -126 99 -126c52 0 93 45 93 124c0 96 -38 145 -93 145z" />
    <glyph glyph-name="b" unicode="b" horiz-adv-x="532" 
d="M55 0v722h130v-255h2c25 25 64 43 110 43c141 0 205 -121 205 -263c0 -139 -65 -257 -206 -257c-49 0 -92 24 -115 54h-2v-44h-124zM281 386c-70 0 -95 -74 -95 -145c0 -64 23 -127 95 -127c64 0 95 61 95 125c0 79 -22 147 -95 147z" />
    <glyph glyph-name="q" unicode="q" horiz-adv-x="532" 
d="M250 384c-71 0 -93 -73 -93 -141c0 -57 16 -128 93 -128c82 0 99 72 99 129c0 62 -24 140 -99 140zM347 27h-2c-21 -19 -63 -37 -108 -37c-139 0 -207 103 -207 254c0 140 74 266 199 266c65 0 99 -21 127 -51h3v41h118v-700h-130v227z" />
    <glyph glyph-name="t" unicode="t" horiz-adv-x="363" 
d="M75 155v229h-65v116h65v120h126v-120h136v-116h-136v-181c0 -81 4 -95 28 -95c16 0 22 9 22 26c0 9 -3 18 -3 18h94s7 -18 7 -44c0 -82 -57 -118 -128 -118c-98 0 -146 51 -146 165z" />
    <glyph glyph-name="a" unicode="a" horiz-adv-x="488" 
d="M435 300v-300h-113v36h-2c-25 -24 -69 -46 -118 -46c-112 0 -168 61 -168 152c0 117 80 147 181 159c83 10 96 22 96 54s-39 48 -73 48c-45 0 -74 -13 -74 -50c0 -14 5 -25 5 -25h-105s-12 22 -12 46c0 82 69 136 189 136c73 0 139 -26 172 -93c15 -31 22 -70 22 -117z
M312 195v29h-2c-23 -15 -50 -20 -80 -24c-52 -8 -69 -27 -69 -52c0 -29 19 -48 55 -48c68 0 96 44 96 95z" />
    <glyph glyph-name="g" unicode="g" horiz-adv-x="474" 
d="M241 125c-23 0 -44 2 -63 7c-9 -7 -17 -16 -17 -27c0 -20 34 -20 113 -26c95 -7 169 -37 169 -142c0 -91 -72 -147 -212 -147c-137 0 -212 41 -212 134c0 29 10 46 10 46h103s-5 -9 -5 -22c0 -31 28 -50 102 -50c57 0 89 11 89 43c0 22 -12 31 -89 37
c-88 6 -188 16 -188 114c0 40 29 71 48 87c-34 34 -51 80 -51 131c0 116 83 200 200 200c41 0 77 -10 108 -29l59 48l65 -84l-53 -45c12 -26 19 -57 19 -90c0 -98 -67 -185 -195 -185zM238 391c-47 0 -75 -33 -75 -79c0 -33 20 -73 75 -73c54 0 78 37 78 73
c0 50 -32 79 -78 79z" />
    <glyph glyph-name="k" unicode="k" horiz-adv-x="492" 
d="M185 722v-398l143 176h158l-190 -222l196 -278h-154l-153 222v-222h-130v722h130z" />
    <glyph glyph-name="s" unicode="s" horiz-adv-x="444" 
d="M231 -10c-123 0 -195 57 -195 141c0 31 13 54 13 54h117s-7 -13 -7 -32c0 -35 29 -51 74 -51c42 0 69 17 69 43c0 34 -32 46 -88 60c-78 19 -168 38 -168 149c0 101 76 155 184 155c94 0 180 -44 180 -134c0 -26 -9 -47 -9 -47h-117s5 13 5 26c0 28 -24 44 -58 44
c-46 0 -65 -19 -65 -41c0 -26 30 -39 86 -52c79 -18 172 -40 172 -153c0 -108 -76 -162 -193 -162z" />
    <glyph glyph-name="v" unicode="v" horiz-adv-x="462" 
d="M300 0h-138l-156 500h138l63 -241l24 -96s13 54 24 96l63 241h138z" />
    <glyph glyph-name="O" unicode="O" horiz-adv-x="698" 
d="M349 -10c-210 0 -313 160 -313 345c0 190 98 375 313 375s313 -185 313 -375c0 -185 -103 -345 -313 -345zM349 575c-130 0 -166 -130 -166 -240c0 -100 31 -210 166 -210s166 110 166 210c0 110 -36 240 -166 240z" />
    <glyph glyph-name="m" unicode="m" horiz-adv-x="762" 
d="M294 510c59 0 99 -31 119 -68c26 38 69 68 126 68c109 0 171 -78 171 -196v-314h-130v291c0 64 -23 93 -66 93s-66 -37 -66 -91v-293h-129v291c0 64 -23 93 -68 93c-44 0 -67 -38 -67 -87v-297h-129v500h125v-47h2c13 20 51 57 112 57z" />
    <glyph glyph-name="w" unicode="w" horiz-adv-x="731" 
d="M308 500h115l63 -243c8 -32 19 -81 19 -81s10 48 18 81l56 243h137l-143 -500h-130l-61 223l-17 65l-16 -65l-61 -223h-130l-143 500h137l56 -243c7 -32 18 -81 18 -81s12 48 20 81z" />
    <glyph glyph-name="x" unicode="x" horiz-adv-x="497" 
d="M15 0l161 256l-167 244h150l90 -130l85 130h154l-168 -244l163 -256h-149l-85 143l-83 -143h-151z" />
    <glyph glyph-name="z" unicode="z" horiz-adv-x="464" 
d="M42 384l1 116h385v-104l-229 -281h235v-115h-404v104l222 280h-210z" />
    <glyph glyph-name="y" unicode="y" horiz-adv-x="492" 
d="M278 282l68 218h142l-173 -479c-57 -157 -103 -192 -189 -192c-38 0 -67 16 -67 16v115s20 -14 48 -14c43 0 62 30 78 78l2 6l-179 470h143l72 -219l28 -91c1 3 16 57 27 92z" />
    <glyph glyph-name="H" unicode="H" horiz-adv-x="667" 
d="M217 0h-147v700h147v-282h233v282h147v-700h-147v286h-233v-286z" />
    <glyph glyph-name="F" unicode="F" horiz-adv-x="530" 
d="M210 0h-140v700h428v-127h-288v-165h259v-122h-259v-286z" />
    <glyph glyph-name="E" unicode="E" horiz-adv-x="541" 
d="M501 127v-127h-431v700h426v-127h-288v-155h269v-120h-269v-171h293z" />
    <glyph glyph-name="I" unicode="I" horiz-adv-x="291" 
d="M221 0h-151v700h151v-700z" />
    <glyph glyph-name="L" unicode="L" horiz-adv-x="499" 
d="M474 132v-132h-404v700h148v-568h256z" />
    <glyph glyph-name="T" unicode="T" horiz-adv-x="527" 
d="M333 0h-139v571h-184v129h507v-129h-184v-571z" />
    <glyph glyph-name="Q" unicode="Q" horiz-adv-x="698" 
d="M349 -10c-210 0 -313 160 -313 345c0 190 98 375 313 375s313 -185 313 -375c0 -90 -24 -174 -73 -236l51 -51l-86 -84l-59 58c-41 -20 -90 -32 -146 -32zM349 575c-130 0 -166 -130 -166 -240c0 -100 31 -210 166 -210c14 0 27 1 39 3l-47 48l86 84l60 -60
c21 39 28 88 28 135c0 110 -36 240 -166 240z" />
    <glyph glyph-name="R" unicode="R" horiz-adv-x="588" 
d="M210 0h-140v700h240c158 0 234 -83 234 -208c0 -91 -45 -159 -120 -190l144 -302h-154l-128 284h-76v-284zM309 575h-99v-166h104c62 0 95 33 95 83s-28 83 -100 83z" />
    <glyph glyph-name="P" unicode="P" horiz-adv-x="569" 
d="M210 0h-140v700h240c158 0 234 -88 234 -213s-85 -213 -215 -213h-119v-274zM309 575h-99v-176h104c62 0 95 38 95 88s-28 88 -100 88z" />
    <glyph glyph-name="B" unicode="B" horiz-adv-x="601" 
d="M70 0v700h231c143 0 249 -57 249 -182c0 -87 -49 -131 -89 -151c46 -17 107 -64 107 -170c0 -127 -91 -197 -254 -197h-244zM208 299v-174h108c74 0 105 37 105 85c0 57 -28 89 -106 89h-107zM208 575v-153h87c71 0 106 21 106 77c0 46 -28 76 -89 76h-104z" />
    <glyph glyph-name="C" unicode="C" horiz-adv-x="620" 
d="M342 -10c-232 0 -306 157 -306 345c0 207 117 375 316 375c156 0 234 -89 234 -194c0 -43 -10 -69 -10 -69h-124s4 11 4 37c0 51 -33 91 -106 91c-116 0 -169 -98 -169 -239c0 -115 40 -211 166 -211c56 0 108 27 108 104c0 15 -3 28 -3 28h126s8 -22 8 -54
c0 -151 -125 -213 -244 -213z" />
    <glyph glyph-name="D" unicode="D" horiz-adv-x="653" 
d="M295 0h-225v700h222c189 0 325 -123 325 -365c0 -187 -113 -335 -322 -335zM210 125h81c129 0 181 97 181 206c0 130 -47 244 -184 244h-78v-450z" />
    <glyph glyph-name="J" unicode="J" horiz-adv-x="455" 
d="M389 700v-497c0 -114 -43 -213 -195 -213c-123 0 -189 73 -189 143c0 48 16 82 16 82h124s-10 -21 -10 -54c0 -23 16 -46 48 -46c47 0 62 29 62 85v500h144z" />
    <glyph glyph-name="W" unicode="W" horiz-adv-x="986" 
d="M414 700h158l100 -427c10 -43 22 -102 24 -110c1 6 12 68 22 111l94 426h154l-179 -700h-170l-104 407c-9 33 -19 78 -20 85l-20 -85l-104 -407h-170l-179 700h154l93 -427l22 -110l25 109z" />
    <glyph glyph-name="S" unicode="S" horiz-adv-x="575" 
d="M381 517c0 35 -34 63 -92 63c-53 0 -92 -30 -92 -69c0 -55 79 -74 161 -104c88 -33 180 -79 180 -214c0 -103 -78 -203 -251 -203c-147 0 -239 68 -239 189c0 35 15 63 15 63h126s-11 -22 -11 -50c0 -43 37 -72 109 -72c77 0 107 37 107 73c0 55 -55 76 -121 99
c-98 34 -220 69 -220 219c0 116 103 199 236 199c141 0 219 -74 219 -181c0 -36 -13 -63 -13 -63h-124s10 20 10 51z" />
    <glyph glyph-name="U" unicode="U" horiz-adv-x="668" 
d="M604 700v-436c0 -181 -112 -274 -270 -274s-270 93 -270 274v436h150v-444c0 -77 40 -129 120 -129s120 52 120 129v444h150z" />
    <glyph glyph-name="G" unicode="G" horiz-adv-x="662" 
d="M354 710c170 0 244 -98 244 -190c0 -36 -10 -66 -10 -66h-124s4 14 4 30c0 62 -45 96 -114 96c-107 0 -171 -98 -171 -250c0 -107 45 -205 156 -205c102 0 139 60 139 142h-159v117h283v-384h-120v54c-23 -31 -79 -64 -151 -64c-199 0 -293 153 -293 342
c0 201 106 378 316 378z" />
    <glyph glyph-name="K" unicode="K" horiz-adv-x="642" 
d="M214 700v-287l229 287h185l-286 -334l302 -366h-197l-233 292v-292h-144v700h144z" />
    <glyph glyph-name="N" unicode="N" horiz-adv-x="697" 
d="M206 0h-136v700h151l270 -468v468h136v-700h-150l-271 468v-468z" />
    <glyph glyph-name="M" unicode="M" horiz-adv-x="878" 
d="M510 5h-142l-168 529s6 -57 6 -123v-411h-136v700h199l170 -534l170 534h199v-700h-136v411c0 66 6 123 6 123z" />
    <glyph glyph-name="V" unicode="V" horiz-adv-x="656" 
d="M257 0l-242 700h159l154 -500l154 500h159l-242 -700h-142z" />
    <glyph glyph-name="A" unicode="A" horiz-adv-x="672" 
d="M512 0l-46 138h-260l-46 -138h-150l249 700h154l249 -700h-150zM336 527l-88 -264h176z" />
    <glyph glyph-name="X" unicode="X" horiz-adv-x="660" 
d="M475 0l-145 242l-145 -242h-170l226 359l-214 341h174l130 -226l132 226h174l-217 -341l225 -359h-170z" />
    <glyph glyph-name="Y" unicode="Y" horiz-adv-x="631" 
d="M246 292l-240 408h172l138 -265l137 265h172l-240 -408v-292h-139v292z" />
    <glyph glyph-name="Z" unicode="Z" horiz-adv-x="571" 
d="M523 700v-109l-312 -461h326v-130h-503v103l313 467h-289v130h465z" />
    <glyph glyph-name="one" unicode="1" horiz-adv-x="498" 
d="M45 0v121h156v362h-155v97c107 0 164 24 178 100h107v-559h142v-121h-428z" />
    <glyph glyph-name="zero" unicode="0" horiz-adv-x="558" 
d="M279 -10c-171 0 -229 125 -229 335c0 189 42 365 229 365s229 -176 229 -365c0 -210 -58 -335 -229 -335zM279 565c-80 0 -95 -120 -95 -230c0 -144 22 -220 95 -220s95 76 95 220c0 110 -15 230 -95 230z" />
    <glyph glyph-name="period" unicode="." horiz-adv-x="324" 
d="M80 72c0 44 37 82 82 82s82 -38 82 -82c0 -45 -37 -82 -82 -82s-82 37 -82 82z" />
    <glyph glyph-name="comma" unicode="," horiz-adv-x="212" 
d="M79 104h111l-51 -248h-111z" />
    <glyph glyph-name="two" unicode="2" horiz-adv-x="506" 
d="M332 223l-95 -102h239v-121h-426v112l143 151c98 104 135 147 135 215c0 59 -37 87 -80 87s-70 -29 -70 -58c0 -14 4 -24 4 -24h-117s-10 21 -10 50c0 85 70 157 196 157c123 0 212 -91 212 -209c0 -81 -33 -153 -131 -258z" />
    <glyph glyph-name="question" unicode="?" horiz-adv-x="486" 
d="M45 541c0 92 81 169 192 169c114 0 204 -64 204 -190c0 -67 -44 -120 -87 -165c-36 -38 -71 -74 -71 -119v-26h-129v37c0 71 43 114 83 155c36 36 69 70 69 118c0 30 -22 60 -65 60c-44 0 -74 -28 -74 -73c0 -23 6 -37 6 -37h-114s-14 23 -14 71zM145 72
c0 44 37 82 82 82s82 -38 82 -82c0 -45 -37 -82 -82 -82s-82 37 -82 82z" />
    <glyph glyph-name="three" unicode="3" horiz-adv-x="514" 
d="M78 557v123h363v-114l-137 -150c87 -2 170 -71 170 -206c0 -140 -89 -220 -216 -220c-107 0 -208 58 -208 175c0 36 15 64 15 64h121s-10 -19 -10 -50c0 -40 35 -64 86 -64c45 0 83 30 83 101c0 73 -43 104 -89 104c-29 0 -57 -12 -57 -12l-63 77l154 172h-212z" />
    <glyph glyph-name="four" unicode="4" horiz-adv-x="534" 
d="M250 680h170v-404h81v-121h-81v-155h-130v155h-268v113zM145 276h145v264z" />
    <glyph glyph-name="five" unicode="5" horiz-adv-x="502" 
d="M238 113c63 0 97 37 97 102c0 86 -47 117 -100 117c-37 0 -68 -23 -68 -23l-90 81l35 290h319v-123h-209l-14 -113s25 4 49 4c117 0 205 -76 205 -236c0 -151 -92 -222 -220 -222c-125 0 -207 75 -207 175c0 36 15 64 15 64h118s-10 -19 -10 -50c0 -44 35 -66 80 -66z
" />
    <glyph glyph-name="seven" unicode="7" horiz-adv-x="427" 
d="M241 0h-145c2 185 61 395 187 551h-273v129h411v-115c-140 -176 -180 -324 -180 -565z" />
    <glyph glyph-name="eight" unicode="8" horiz-adv-x="562" 
d="M281 115c58 0 101 36 101 90c0 71 -49 98 -101 113c-52 -15 -101 -42 -101 -113c0 -53 43 -90 101 -90zM281 417c40 13 72 41 72 83c0 38 -30 65 -72 65s-72 -27 -72 -65c0 -42 32 -70 72 -83zM281 -10c-123 0 -231 66 -231 205c0 98 59 152 111 175
c-38 22 -82 63 -82 139c0 95 66 181 202 181s202 -86 202 -181c0 -76 -44 -117 -82 -139c52 -23 111 -77 111 -175c0 -139 -108 -205 -231 -205z" />
    <glyph glyph-name="exclam" unicode="!" horiz-adv-x="289" 
d="M217 700v-505h-126v505h126zM70 72c0 44 37 82 82 82s82 -38 82 -82c0 -45 -37 -82 -82 -82s-82 37 -82 82z" />
    <glyph glyph-name="hyphen" unicode="-" horiz-adv-x="393" 
d="M50 233v110h293v-110h-293z" />
    <glyph glyph-name="minus" unicode="&#x2212;" horiz-adv-x="558" 
d="M57 216v98h444v-98h-444z" />
    <glyph glyph-name="endash" unicode="&#x2013;" horiz-adv-x="503" 
d="M50 238v120h403v-120h-403z" />
    <glyph glyph-name="emdash" unicode="&#x2014;" horiz-adv-x="753" 
d="M50 238v120h653v-120h-653z" />
    <glyph glyph-name="parenleft" unicode="(" horiz-adv-x="281" 
d="M157 703h120s-111 -142 -111 -425c0 -308 115 -453 115 -453h-120s-115 144 -115 449c0 285 111 429 111 429z" />
    <glyph glyph-name="six" unicode="6" horiz-adv-x="524" 
d="M273 336c-68 0 -85 -71 -85 -128c0 -46 20 -93 87 -93c50 0 79 38 79 93c0 57 -13 128 -81 128zM343 512c0 30 -30 53 -67 53c-63 0 -85 -53 -87 -146c0 0 38 29 105 29c135 0 190 -112 190 -238c0 -134 -77 -220 -214 -220c-127 0 -215 67 -215 248
c0 309 52 452 227 452c101 0 183 -65 183 -157c0 -29 -10 -50 -10 -50h-117s5 14 5 29z" />
    <glyph glyph-name="parenright" unicode=")" horiz-adv-x="280" 
d="M3 703h120s111 -143 111 -425c0 -297 -115 -453 -115 -453h-119s115 145 115 453c0 283 -112 425 -112 425z" />
    <glyph glyph-name="slash" unicode="/" horiz-adv-x="424" 
d="M293 700h106l-265 -700h-106z" />
    <glyph glyph-name="backslash" unicode="\" horiz-adv-x="424" 
d="M25 700h106l265 -700h-106z" />
    <glyph glyph-name="bracketleft" unicode="[" horiz-adv-x="315" 
d="M199 613v-719h86v-94h-210v907h210v-94h-86z" />
    <glyph glyph-name="bracketright" unicode="]" horiz-adv-x="315" 
d="M116 -106v719h-86v94h210v-907h-210v94h86z" />
    <glyph glyph-name="nine" unicode="9" horiz-adv-x="522" 
d="M250 348c66 0 87 47 87 117c0 53 -28 100 -83 100s-84 -43 -84 -105c0 -70 30 -112 80 -112zM467 374c0 -321 -92 -384 -218 -384c-133 0 -190 77 -190 148c0 34 12 62 12 62h121s-7 -15 -7 -32c0 -35 31 -53 66 -53c53 0 82 32 86 140c-21 -14 -49 -27 -96 -27
c-135 0 -201 93 -201 227c0 132 70 235 211 235c145 0 216 -85 216 -316z" />
    <glyph glyph-name="colon" unicode=":" horiz-adv-x="324" 
d="M80 429c0 44 37 82 82 82s82 -38 82 -82c0 -45 -37 -82 -82 -82s-82 37 -82 82zM80 72c0 44 37 82 82 82s82 -38 82 -82c0 -45 -37 -82 -82 -82s-82 37 -82 82z" />
    <glyph glyph-name="semicolon" unicode=";" horiz-adv-x="330" 
d="M111 104h111l-51 -248h-111zM79 403c0 46 39 86 86 86s86 -40 86 -86c0 -47 -39 -86 -86 -86s-86 39 -86 86z" />
    <glyph glyph-name="underscore" unicode="_" horiz-adv-x="558" 
d="M57 -98v88h444v-88h-444z" />
    <glyph glyph-name="bar" unicode="|" horiz-adv-x="301" 
d="M96 700h109v-860h-109v860z" />
    <glyph glyph-name="bullet" unicode="&#x2022;" horiz-adv-x="387" 
d="M75 289c0 66 52 119 118 119s119 -53 119 -119s-53 -118 -119 -118s-118 52 -118 118z" />
    <glyph glyph-name="quotedblleft" unicode="&#x201c;" horiz-adv-x="402" 
d="M91 700h107l-51 -248h-107zM256 700h107l-51 -248h-107z" />
    <glyph glyph-name="quotedblright" unicode="&#x201d;" horiz-adv-x="402" 
d="M91 700h107l-51 -248h-107zM256 700h107l-51 -248h-107z" />
    <glyph glyph-name="quoteleft" unicode="&#x2018;" horiz-adv-x="237" 
d="M91 700h107l-51 -248h-107z" />
    <glyph glyph-name="quoteright" unicode="&#x2019;" horiz-adv-x="243" 
d="M96 700h107l-51 -248h-107z" />
    <glyph glyph-name="ellipsis" unicode="&#x2026;" horiz-adv-x="754" 
d="M60 72c0 44 37 82 82 82s82 -38 82 -82c0 -45 -37 -82 -82 -82s-82 37 -82 82zM303 72c0 44 37 82 82 82s82 -38 82 -82c0 -45 -37 -82 -82 -82s-82 37 -82 82zM530 72c0 44 37 82 82 82s82 -38 82 -82c0 -45 -37 -82 -82 -82s-82 37 -82 82z" />
    <glyph glyph-name="equal" unicode="=" horiz-adv-x="558" 
d="M57 311v98h444v-98h-444zM57 121v98h444v-98h-444z" />
    <glyph glyph-name="plus" unicode="+" horiz-adv-x="558" 
d="M57 216v98h170v173h104v-173h170v-98h-170v-173h-104v173h-170z" />
    <glyph glyph-name="fraction" unicode="&#x2044;" horiz-adv-x="136" 
d="M178 724l58 -25l-277 -733l-59 23z" />
    <glyph glyph-name="guillemotleft" unicode="&#xab;" horiz-adv-x="573" 
d="M189 59l-157 201l157 200h135l-157 -200l157 -201h-135zM403 59l-157 201l157 200h135l-157 -200l157 -201h-135z" />
    <glyph glyph-name="guillemotright" unicode="&#xbb;" horiz-adv-x="573" 
d="M541 260l-157 -201h-135l157 201l-157 200h135zM327 260l-157 -201h-135l157 201l-157 200h135z" />
    <glyph glyph-name="guilsinglright" unicode="&#x203a;" horiz-adv-x="362" 
d="M330 260l-157 -201h-138l157 201l-157 200h138z" />
    <glyph glyph-name="guilsinglleft" unicode="&#x2039;" horiz-adv-x="362" 
d="M189 59l-157 201l157 200h138l-157 -200l157 -201h-138z" />
    <glyph glyph-name="asterisk" unicode="*" horiz-adv-x="324" 
d="M59 480l-24 41l81 46l-81 46l24 41l79 -47v93h48v-94l79 48l24 -41l-82 -46l82 -46l-24 -41l-79 47v-93h-48v92z" />
    <glyph glyph-name="o" unicode="o" 
d="M260 -10c-160 0 -230 114 -230 248c0 144 78 272 230 272s230 -128 230 -272c0 -134 -70 -248 -230 -248zM260 384c-70 0 -95 -57 -95 -143c0 -90 29 -126 95 -126s95 35 95 125c0 87 -25 144 -95 144z" />
    <glyph glyph-name="n" unicode="n" horiz-adv-x="521" 
d="M185 281v-281h-130v500h130v-49h2c22 28 56 59 123 59c95 0 159 -79 159 -179v-331h-132v298c0 54 -26 86 -70 86c-37 0 -82 -17 -82 -103z" />
    <glyph glyph-name="questiondown" unicode="&#xbf;" horiz-adv-x="486" 
d="M441 -41c0 -92 -81 -169 -192 -169c-114 0 -204 64 -204 190c0 67 44 120 87 165c36 38 71 74 71 119v26h129v-37c0 -71 -43 -114 -83 -155c-36 -36 -69 -70 -69 -118c0 -30 22 -60 65 -60c44 0 74 28 74 73c0 23 -6 37 -6 37h114s14 -23 14 -71zM341 428
c0 -44 -37 -82 -82 -82s-82 38 -82 82c0 45 37 82 82 82s82 -37 82 -82z" />
    <glyph glyph-name="quotedbl" unicode="&#x22;" horiz-adv-x="348" 
d="M50 700h100v-241h-100v241zM198 700h100v-241h-100v241z" />
    <glyph glyph-name="dollar" unicode="$" horiz-adv-x="606" 
d="M342 760v-71c119 -10 183 -78 183 -156c0 -29 -10 -50 -10 -50h-117s4 10 4 24c0 23 -20 50 -60 59v-164c95 -31 204 -77 204 -214c0 -101 -70 -183 -204 -196v-77h-70v76c-126 9 -207 73 -207 183c0 31 12 55 12 55h122s-8 -17 -8 -42c0 -36 23 -67 81 -75v181
c-93 31 -196 69 -196 204c0 106 84 178 196 191v72h70zM416 188c0 41 -31 63 -74 81v-156c51 11 74 41 74 75zM206 497c0 -36 27 -55 66 -71v140c-41 -9 -66 -34 -66 -69z" />
    <glyph glyph-name="quotesingle" unicode="'" horiz-adv-x="210" 
d="M50 700h110v-241h-110v241z" />
    <glyph glyph-name="percent" unicode="%" horiz-adv-x="735" 
d="M179 690c103 0 128 -102 128 -213c0 -122 -36 -194 -128 -194c-90 0 -129 71 -129 194c0 111 30 213 129 213zM179 600c-44 0 -51 -55 -51 -108c0 -76 9 -118 51 -118c43 0 51 44 51 118c0 52 -7 108 -51 108zM482 722l58 -25l-277 -733l-59 23zM557 397
c103 0 128 -102 128 -213c0 -122 -36 -194 -128 -194c-90 0 -129 71 -129 194c0 111 30 213 129 213zM557 307c-44 0 -51 -55 -51 -108c0 -76 9 -118 51 -118c43 0 51 44 51 118c0 52 -7 108 -51 108z" />
    <glyph glyph-name="onesuperior" unicode="&#xb9;" horiz-adv-x="340" 
d="M32 377v80h103v205h-100v62c68 0 107 15 116 61h75v-328h93v-80h-287z" />
    <glyph glyph-name="ordmasculine" unicode="&#xba;" horiz-adv-x="395" 
d="M197 350c-109 0 -157 78 -157 170c0 99 53 186 157 186c105 0 158 -87 158 -186c0 -92 -48 -170 -158 -170zM197 620c-47 0 -65 -39 -65 -98c0 -62 20 -86 65 -86c46 0 66 24 66 85c0 60 -18 99 -66 99z" />
    <glyph glyph-name="twosuperior" unicode="&#xb2;" horiz-adv-x="340" 
d="M208 505l-52 -48h161v-80h-279v72l86 83c73 71 86 94 86 128c0 32 -19 48 -46 48c-25 0 -37 -15 -37 -32c0 -8 3 -14 3 -14h-82s-6 14 -6 32c0 51 40 97 124 97c85 0 141 -49 141 -123c0 -46 -20 -90 -99 -163z" />
    <glyph glyph-name="threesuperior" unicode="&#xb3;" horiz-adv-x="347" 
d="M56 703v82h236v-74l-77 -83s102 0 102 -122c0 -85 -61 -135 -142 -135c-71 0 -138 35 -138 110c0 24 10 41 10 41h86s-7 -12 -7 -31c0 -23 21 -37 50 -37c28 0 49 18 49 56c0 35 -20 57 -52 57c-21 0 -38 -8 -38 -8l-39 43l94 101h-134z" />
    <glyph glyph-name="degree" unicode="&#xb0;" horiz-adv-x="448" 
d="M70 561c0 91 69 154 154 154s154 -63 154 -154s-69 -154 -154 -154s-154 59 -154 154zM137 561c0 -57 37 -92 87 -92c49 0 87 35 87 92s-38 92 -87 92c-50 0 -87 -34 -87 -92z" />
    <glyph glyph-name="ordfeminine" unicode="&#xaa;" horiz-adv-x="354" 
d="M314 562v-205h-77l-1 25c-18 -16 -47 -32 -81 -32c-77 0 -115 42 -115 104c0 80 54 101 124 109c56 7 65 15 65 37s-26 33 -50 33c-30 0 -50 -9 -50 -34c0 -10 3 -17 3 -17h-72s-8 15 -8 31c0 56 47 93 129 93c75 0 133 -45 133 -144zM230 490v20c-16 -9 -35 -13 -56 -16
c-36 -6 -47 -19 -47 -36c0 -20 13 -33 37 -33c47 0 66 31 66 65z" />
    <glyph glyph-name="at" unicode="@" horiz-adv-x="812" 
d="M406 433c-62 0 -93 -59 -93 -125c0 -62 29 -97 73 -97c58 0 79 42 84 106l2 34c3 53 -22 82 -66 82zM724 343c0 175 -113 297 -307 297c-185 0 -318 -142 -318 -317c0 -205 131 -317 306 -317c119 0 187 43 187 43c1 0 23 -44 23 -44s-77 -48 -210 -48
c-204 0 -360 132 -360 366c0 206 163 367 372 367c212 0 360 -140 360 -347c0 -190 -103 -230 -163 -230c-47 0 -84 17 -103 58c0 0 -47 -68 -138 -68c-108 0 -169 79 -169 199c0 112 59 238 188 238c72 0 99 -39 99 -39l3 29h99l-26 -282c-6 -67 18 -84 50 -84
c51 0 107 39 107 179z" />
    <glyph glyph-name="numbersign" unicode="#" horiz-adv-x="680" 
d="M277 0l69 197h-126l-69 -197h-114l69 197h-88v92h121l45 128h-97v92h129l68 191h114l-68 -191h126l68 191h114l-68 -191h80v-92h-112l-45 -128h88v-92h-121l-69 -197h-114zM298 417l-45 -128h126l45 128h-126z" />
    <glyph glyph-name="ampersand" unicode="&#x26;" horiz-adv-x="566" 
d="M387 346h115c1 -44 0 -127 -28 -199c18 -14 40 -29 82 -26v-121c-75 -3 -115 23 -149 49c-36 -34 -85 -59 -158 -59c-146 0 -219 94 -219 193c0 72 40 130 96 174c-37 53 -59 104 -59 158c0 90 65 175 181 175c100 0 175 -64 175 -165c0 -87 -64 -139 -133 -190
c21 -30 59 -73 88 -102c8 32 11 74 9 113zM312 128c-42 38 -86 92 -117 136c-22 -18 -39 -45 -39 -77c0 -40 31 -79 88 -79c29 0 53 9 68 20zM188 511c0 -32 10 -59 37 -93c51 35 77 68 77 101c0 34 -25 54 -56 54c-33 0 -58 -26 -58 -62z" />
    <glyph glyph-name="quotedblbase" unicode="&#x201e;" horiz-adv-x="402" 
d="M85 104h107l-51 -248h-107zM250 104h107l-51 -248h-107z" />
    <glyph glyph-name="quotesinglbase" unicode="&#x201a;" horiz-adv-x="237" 
d="M85 104h107l-51 -248h-107z" />
    <glyph glyph-name="trademark" unicode="&#x2122;" horiz-adv-x="619" 
d="M143 409h-58l33 237h-76l8 54h211l-8 -54h-77zM419 409h-61l-38 222s-1 -20 -5 -47l-25 -175h-56l41 291h83l39 -224l102 224h85l-41 -291h-56l25 175c4 27 8 47 8 47z" />
    <glyph glyph-name="plusminus" unicode="&#xb1;" horiz-adv-x="558" 
d="M57 286v98h170v123h104v-123h170v-98h-170v-123h-104v123h-170zM57 0v98h444v-98h-444z" />
    <glyph glyph-name="copyright" unicode="&#xa9;" horiz-adv-x="810" 
d="M45 350c0 203 161 360 360 360c198 0 360 -157 360 -360c0 -204 -162 -360 -360 -360c-199 0 -360 156 -360 360zM110 350c0 -170 130 -300 295 -300c164 0 295 130 295 300c0 169 -131 300 -295 300c-165 0 -295 -131 -295 -300zM412 157c-127 0 -168 86 -168 189
c0 114 65 206 174 206c85 0 128 -49 128 -107c0 -23 -6 -37 -6 -37h-68s3 6 3 20c0 28 -19 50 -59 50c-63 0 -92 -54 -92 -131c0 -64 22 -116 91 -116c31 0 59 14 59 57c0 8 -2 15 -2 15h69s5 -12 5 -30c0 -82 -69 -116 -134 -116z" />
    <glyph glyph-name="registered" unicode="&#xae;" horiz-adv-x="810" 
d="M45 350c0 203 161 360 360 360c198 0 360 -157 360 -360c0 -204 -162 -360 -360 -360c-199 0 -360 156 -360 360zM110 350c0 -170 130 -300 295 -300c164 0 295 130 295 300c0 169 -131 300 -295 300c-165 0 -295 -131 -295 -300zM367 162h-77v385h132
c86 0 128 -46 128 -114c0 -50 -25 -88 -65 -105l79 -166h-85l-70 156h-42v-156zM421 478h-54v-91h57c34 0 52 18 52 46c0 27 -15 45 -55 45z" />
    <glyph glyph-name="dieresis" unicode="&#xa8;" horiz-adv-x="379" 
d="M0 630c0 44 37 80 82 80c44 0 80 -36 80 -80c0 -45 -36 -82 -80 -82c-45 0 -82 37 -82 82zM217 630c0 44 37 80 82 80c44 0 80 -36 80 -80c0 -45 -36 -82 -80 -82c-45 0 -82 37 -82 82z" />
    <glyph glyph-name="less" unicode="&#x3c;" horiz-adv-x="558" 
d="M56 216v98l446 163v-114l-309 -99l309 -98v-114z" />
    <glyph glyph-name="greater" unicode="&#x3e;" horiz-adv-x="558" 
d="M502 314v-98l-446 -164v114l309 98l-309 99v114z" />
    <glyph glyph-name="Oslash" unicode="&#xd8;" horiz-adv-x="698" 
d="M349 -10c-70 0 -128 17 -174 48l-59 -81l-69 47l65 90c-51 63 -76 149 -76 241c0 190 98 375 313 375c69 0 126 -19 172 -52l61 85l70 -46l-71 -98c55 -70 81 -167 81 -264c0 -185 -103 -345 -313 -345zM515 335c0 46 -7 97 -24 139l-235 -324c23 -16 54 -25 93 -25
c135 0 166 110 166 210zM349 575c-130 0 -166 -130 -166 -240c0 -40 5 -81 19 -117l237 328c-23 18 -53 29 -90 29z" />
    <glyph glyph-name="multiply" unicode="&#xd7;" horiz-adv-x="558" 
d="M144 59l-71 71l133 133l-135 136l74 74l135 -136l135 135l71 -71l-135 -135l136 -135l-74 -74l-136 135z" />
    <glyph glyph-name="exclamdown" unicode="&#xa1;" horiz-adv-x="264" 
d="M197 305v-505h-126v505h126zM50 428c0 45 37 82 82 82s82 -37 82 -82c0 -44 -37 -82 -82 -82s-82 38 -82 82z" />
    <glyph glyph-name="oslash" unicode="&#xf8;" 
d="M260 -10c-52 0 -94 12 -127 32l-43 -58l-49 39l44 60c-38 46 -55 107 -55 175c0 144 78 272 230 272c49 0 91 -14 125 -37l45 62l50 -38l-50 -68c40 -50 60 -118 60 -191c0 -134 -70 -248 -230 -248zM365 240c0 33 -4 61 -12 84l-151 -207c16 -9 35 -12 58 -12
c66 0 105 31 105 135zM260 394c-70 0 -105 -54 -105 -153c0 -29 3 -52 8 -71l152 208c-15 10 -33 16 -55 16z" />
    <glyph glyph-name="asciicircum" unicode="^" horiz-adv-x="558" 
d="M234 680h89l200 -362h-132l-114 222l-112 -222h-131z" />
    <glyph glyph-name="divide" unicode="&#xf7;" horiz-adv-x="558" 
d="M197 92c0 44 37 82 82 82s82 -38 82 -82c0 -45 -37 -82 -82 -82s-82 37 -82 82zM197 442c0 44 37 82 82 82s82 -38 82 -82c0 -45 -37 -82 -82 -82s-82 37 -82 82zM57 216v98h444v-98h-444z" />
    <glyph glyph-name="AE" unicode="&#xc6;" horiz-adv-x="821" 
d="M781 127v-127h-371v136h-195l-61 -136h-149l321 700h450v-127h-228v-155h209v-120h-209v-171h233zM272 263h138v306z" />
    <glyph glyph-name="periodcentered" unicode="&#xb7;" horiz-adv-x="324" 
d="M69 282c0 50 42 93 93 93s93 -43 93 -93c0 -51 -42 -93 -93 -93s-93 42 -93 93z" />
    <glyph glyph-name="ring" unicode="&#x2da;" horiz-adv-x="231" 
d="M0 666c0 70 52 115 115 115c65 0 115 -45 115 -115s-52 -115 -115 -115s-115 41 -115 115zM71 667c0 -28 19 -46 44 -46s44 18 44 46s-19 46 -44 46s-44 -18 -44 -46z" />
    <glyph glyph-name="grave" unicode="`" horiz-adv-x="255" 
d="M158 552l-158 148h165l90 -148h-97z" />
    <glyph glyph-name="acute" unicode="&#xb4;" horiz-adv-x="255" 
d="M255 700l-158 -148h-97l90 148h165z" />
    <glyph glyph-name="circumflex" unicode="&#x2c6;" horiz-adv-x="360" 
d="M253 700l107 -142h-101l-79 64l-79 -64h-101l107 142h146z" />
    <glyph glyph-name="cedilla" unicode="&#xb8;" horiz-adv-x="240" 
d="M82 -83v43c19 4 34 7 61 7c59 0 97 -33 97 -79c0 -48 -34 -93 -121 -93c-48 0 -96 14 -119 58l68 26c9 -16 29 -24 53 -24c32 0 44 15 44 34s-14 34 -41 34c-22 0 -42 -6 -42 -6z" />
    <glyph glyph-name="ogonek" unicode="&#x2db;" horiz-adv-x="232" 
d="M85 -16c21 5 33 16 33 16h61c0 -31 -31 -47 -53 -54c-27 -8 -46 -22 -46 -45c0 -21 14 -33 36 -33c25 0 42 10 47 39l69 -17c-1 -35 -30 -90 -114 -90c-87 0 -118 47 -118 95c0 50 40 79 85 89z" />
    <glyph glyph-name="caron" unicode="&#x2c7;" horiz-adv-x="360" 
d="M360 700l-107 -142h-146l-107 142h101l79 -64l79 64h101z" />
    <glyph glyph-name="tilde" unicode="&#x2dc;" horiz-adv-x="308" 
d="M224 566c-50 0 -99 41 -131 41c-13 0 -19 -6 -19 -16c0 -8 3 -19 3 -19h-70s-7 26 -7 47c0 54 36 89 84 89c51 0 95 -40 131 -40c13 0 19 5 19 15c0 9 -4 19 -4 19h71s7 -22 7 -47c0 -54 -36 -89 -84 -89z" />
    <glyph glyph-name="asciitilde" unicode="~" horiz-adv-x="558" 
d="M155 345c93 0 180 -65 239 -65c19 0 22 9 22 23c0 12 -4 22 -4 22h87s9 -15 9 -41c0 -60 -26 -106 -105 -106c-94 0 -177 64 -236 64c-17 0 -24 -6 -24 -18c0 -14 4 -25 4 -25h-87s-10 18 -10 52c0 57 31 94 105 94z" />
    <glyph glyph-name="dotaccent" unicode="&#x2d9;" horiz-adv-x="159" 
d="M0 631c0 44 37 79 80 79c44 0 79 -35 79 -79c0 -43 -35 -80 -79 -80c-43 0 -80 37 -80 80z" />
    <glyph glyph-name="dotlessi" unicode="&#x131;" horiz-adv-x="240" 
d="M185 500v-500h-130v500h130z" />
    <glyph glyph-name="brokenbar" unicode="&#xa6;" horiz-adv-x="300" 
d="M96 188h108v-348h-108v348zM204 380h-108v320h108v-320z" />
    <glyph glyph-name="logicalnot" unicode="&#xac;" horiz-adv-x="538" 
d="M50 309v124h433v-297h-121v173h-312z" />
    <glyph glyph-name="thorn" unicode="&#xfe;" horiz-adv-x="532" 
d="M187 27h-2v-227h-130v900h130v-231h3c22 18 55 41 112 41c137 0 202 -132 202 -266c0 -157 -79 -254 -203 -254c-52 0 -82 15 -112 37zM282 384c-75 0 -99 -78 -99 -140c0 -57 17 -129 99 -129c77 0 93 71 93 128c0 68 -22 141 -93 141z" />
    <glyph glyph-name="hungarumlaut" unicode="&#x2dd;" horiz-adv-x="440" 
d="M250 700l-142 -128h-108l101 128h149zM440 700l-142 -128h-108l101 128h149z" />
    <glyph glyph-name="germandbls" unicode="&#xdf;" horiz-adv-x="615" 
d="M483 155c0 84 -244 25 -244 207c0 80 59 133 128 134c0 0 3 17 3 36c0 53 -20 98 -88 98c-64 0 -94 -33 -94 -111v-519h-127v387h-63v113h62v48c0 112 77 202 207 202c126 0 214 -71 214 -223c0 -40 -4 -83 -17 -137c0 0 -30 9 -56 9c-19 0 -50 -7 -50 -38
c0 -71 247 -27 247 -209c0 -105 -76 -162 -193 -162c-123 0 -195 57 -195 141c0 31 13 54 13 54h116s-7 -13 -7 -32c0 -36 30 -52 75 -52c42 0 69 21 69 54z" />
    <glyph glyph-name="sterling" unicode="&#xa3;" horiz-adv-x="576" 
d="M60 278v80h68c-4 61 -13 92 -13 155c0 113 80 177 209 177c126 0 196 -72 196 -157c0 -29 -10 -50 -10 -50h-117s4 10 4 24c0 29 -30 58 -73 58c-37 0 -75 -18 -75 -74c0 -43 6 -82 10 -133h166v-80h-164c-1 -57 -5 -117 -10 -157h285v-121h-432v34c19 102 26 178 27 244
h-71z" />
    <glyph glyph-name="braceleft" unicode="{" horiz-adv-x="352" 
d="M135 258c116 -29 123 -111 123 -170v-58c0 -56 4 -87 40 -87c23 0 39 7 39 7v-118s-28 -13 -62 -13c-115 0 -132 88 -132 186v86c0 65 -56 88 -128 98v121c82 19 128 47 128 125v55c0 141 19 220 127 220c42 0 67 -14 67 -14v-117s-16 8 -37 8c-38 0 -42 -30 -42 -95v-61
c0 -78 -17 -150 -123 -173z" />
    <glyph glyph-name="cent" unicode="&#xa2;" horiz-adv-x="542" 
d="M260 -86v80c-119 16 -195 105 -195 245c0 119 64 247 195 268v86h60v-84c94 -7 162 -61 162 -145c0 -37 -11 -65 -11 -65h-101s3 12 3 31c0 24 -15 52 -53 60v-278c45 8 56 39 56 70c0 15 -3 28 -3 28h102s12 -29 12 -63c0 -92 -68 -149 -167 -155v-78h-60zM194 244
c0 -48 13 -111 66 -129v270c-52 -22 -66 -90 -66 -141z" />
    <glyph glyph-name="braceright" unicode="}" horiz-adv-x="352" 
d="M217 258c-106 23 -123 95 -123 173v61c0 65 -4 95 -42 95c-21 0 -37 -8 -37 -8v117s25 14 67 14c108 0 127 -79 127 -220v-55c0 -78 46 -106 128 -125v-121c-72 -10 -128 -33 -128 -98v-86c0 -98 -17 -186 -132 -186c-34 0 -62 13 -62 13v118s16 -7 39 -7
c36 0 40 31 40 87v58c0 59 7 141 123 170z" />
    <glyph glyph-name="notequal" unicode="&#x2260;" horiz-adv-x="558" 
d="M57 311v98h223l33 85h97l-33 -85h124v-98h-161l-35 -92h196v-98h-233l-35 -93h-97l35 93h-114v98h151l35 92h-186z" />
    <glyph glyph-name="lessequal" unicode="&#x2264;" horiz-adv-x="558" 
d="M56 276v98l446 143v-114l-283 -78l283 -79v-114zM501 98v-98h-444v98h444z" />
    <glyph glyph-name="greaterequal" unicode="&#x2265;" horiz-adv-x="558" 
d="M502 374v-98l-446 -144v114l283 78l-283 79v114zM57 0v98h444v-98h-444z" />
    <glyph glyph-name="Euro" unicode="&#x20ac;" horiz-adv-x="668" 
d="M40 233v80h84v17c0 10 0 21 1 32h-85v80h96c31 136 122 248 284 248c152 0 199 -93 199 -150c0 -41 -10 -57 -10 -57h-117s4 9 4 24c0 27 -22 58 -78 58s-123 -26 -151 -123h184v-80h-196c-1 -10 -1 -20 -1 -31v-18h197v-80h-188c23 -97 83 -118 150 -118
c55 0 91 35 91 86c0 15 -3 28 -3 28h119s8 -22 8 -53c0 -116 -102 -186 -218 -186c-146 0 -252 67 -279 243h-91z" />
    <glyph glyph-name="approxequal" unicode="&#x2248;" horiz-adv-x="558" 
d="M155 454c93 0 180 -65 239 -65c19 0 22 9 22 23c0 12 -4 22 -4 22h87s9 -15 9 -41c0 -60 -26 -106 -105 -106c-94 0 -177 64 -236 64c-17 0 -24 -6 -24 -18c0 -14 4 -25 4 -25h-87s-10 18 -10 52c0 57 31 94 105 94zM155 244c93 0 180 -65 239 -65c19 0 22 9 22 23
c0 12 -4 22 -4 22h87s9 -15 9 -41c0 -60 -26 -106 -105 -106c-94 0 -177 64 -236 64c-17 0 -24 -6 -24 -18c0 -14 4 -25 4 -25h-87s-10 18 -10 52c0 57 31 94 105 94z" />
    <glyph glyph-name="perthousand" unicode="&#x2030;" horiz-adv-x="1046" 
d="M179 690c103 0 128 -102 128 -213c0 -122 -36 -194 -128 -194c-90 0 -129 71 -129 194c0 111 30 213 129 213zM179 600c-44 0 -51 -55 -51 -108c0 -76 9 -118 51 -118c43 0 51 44 51 118c0 52 -7 108 -51 108zM482 722l58 -25l-277 -733l-59 23zM557 397
c103 0 128 -102 128 -213c0 -122 -36 -194 -128 -194c-90 0 -129 71 -129 194c0 111 30 213 129 213zM557 307c-44 0 -51 -55 -51 -108c0 -76 9 -118 51 -118c43 0 51 44 51 118c0 52 -7 108 -51 108zM868 397c103 0 128 -102 128 -213c0 -122 -36 -194 -128 -194
c-90 0 -129 71 -129 194c0 111 30 213 129 213zM868 307c-44 0 -51 -55 -51 -108c0 -76 9 -118 51 -118c43 0 51 44 51 118c0 52 -7 108 -51 108z" />
    <glyph glyph-name="section" unicode="&#xa7;" horiz-adv-x="477" 
d="M50 541c0 98 80 149 180 149c86 0 177 -37 177 -120c0 -33 -14 -54 -14 -54h-108s6 13 6 25c0 21 -19 37 -59 37c-43 0 -63 -18 -63 -40c0 -77 253 -29 253 -183c0 -48 -24 -77 -56 -106c37 -23 61 -59 61 -110c0 -98 -87 -149 -189 -149c-86 0 -181 37 -181 120
c0 32 14 54 14 54h108s-6 -13 -6 -25c0 -21 22 -37 66 -37c39 0 69 13 69 39c0 75 -258 27 -258 186c0 50 26 76 57 105c-33 22 -57 55 -57 109zM269 284l19 -5s28 19 28 53c0 31 -65 52 -115 65l-15 4s-28 -19 -28 -53c0 -30 62 -51 111 -64z" />
    <glyph glyph-name="yen" unicode="&#xa5;" horiz-adv-x="680" 
d="M131 214h144v61h-144v79h102l-193 326h157l143 -267l143 267h157l-194 -326h103v-79h-144v-61h144v-79h-144v-135h-130v135h-144v79z" />
    <glyph glyph-name="apple" unicode="&#xf8ff;" horiz-adv-x="686" 
d="M50 0v423c0 154 131 292 292 292c163 0 294 -138 294 -292v-423h-28l-65 65l-68 -65l-63 65l-71 -65l-69 65l-63 -65l-67 65l-66 -65h-26zM400 377c0 -38 31 -70 70 -70s72 32 72 70c0 40 -33 72 -72 72s-70 -32 -70 -72zM145 377c0 -38 32 -70 71 -70c40 0 71 32 71 70
c0 40 -31 72 -71 72c-39 0 -71 -32 -71 -72z" />
    <glyph glyph-name="currency" unicode="&#xa4;" horiz-adv-x="683" 
d="M200 286c0 -77 65 -142 142 -142c78 0 141 65 141 142c0 78 -63 141 -141 141c-77 0 -142 -63 -142 -141zM95 7l-35 35l105 104c-30 39 -48 87 -48 140s18 102 49 141l-105 107l35 35l105 -107c39 31 88 49 141 49c52 0 101 -18 139 -49l107 106l35 -35l-106 -106
c31 -38 50 -88 50 -141s-18 -101 -49 -140l105 -105l-35 -35l-105 105c-38 -32 -88 -50 -141 -50c-54 0 -103 19 -142 50z" />
    <glyph glyph-name="uni00AD" unicode="&#xad;" horiz-adv-x="393" 
d="M50 233v110h293v-110h-293z" />
    <glyph glyph-name="macron" unicode="&#xaf;" horiz-adv-x="283" 
d="M0 600v80h283v-80h-283z" />
    <glyph glyph-name="uni02C9" unicode="&#x2c9;" horiz-adv-x="373" 
d="M45 600v80h283v-80h-283z" />
    <glyph glyph-name="nbspace" unicode="&#xa0;" horiz-adv-x="250" 
 />
    <glyph glyph-name="paragraph" unicode="&#xb6;" horiz-adv-x="519" 
d="M484 700v-90h-68v-678h-95v678h-78v-678h-95v522c-68 0 -123 55 -123 123s55 123 123 123h336z" />
    <glyph glyph-name="mu" unicode="&#xb5;" horiz-adv-x="533" 
d="M349 219v281h129v-500h-129v59c-19 -38 -55 -65 -95 -65c-27 0 -46 7 -60 14v-208h-126v700h129v-308c0 -50 26 -76 70 -76c37 0 82 17 82 103z" />
    <glyph glyph-name="mu" unicode="&#x3bc;" horiz-adv-x="533" 
d="M349 219v281h129v-500h-129v59c-19 -38 -55 -65 -95 -65c-27 0 -46 7 -60 14v-208h-126v700h129v-308c0 -50 26 -76 70 -76c37 0 82 17 82 103z" />
    <glyph glyph-name="Thorn" unicode="&#xde;" horiz-adv-x="579" 
d="M210 0h-140v700h140v-130h100c158 0 234 -88 234 -213s-85 -213 -215 -213h-119v-144zM309 445h-99v-176h104c62 0 95 38 95 88s-28 88 -100 88z" />
    <glyph glyph-name="eth" unicode="&#xf0;" horiz-adv-x="518" 
d="M195 570l56 37c-20 10 -42 16 -67 16s-42 -6 -42 -6v109s17 8 52 8c66 0 118 -23 160 -60l67 44l28 -42l-61 -40c74 -95 101 -241 101 -356c0 -175 -72 -291 -235 -291c-156 0 -224 110 -224 249c0 129 71 272 213 272c61 0 95 -32 98 -35c-7 38 -23 73 -47 100l-71 -46z
M259 385c-78 0 -98 -85 -98 -145c0 -62 20 -125 98 -125c73 0 98 56 98 124c0 76 -21 146 -98 146z" />
    <glyph glyph-name="breve" unicode="&#x2d8;" horiz-adv-x="270" 
d="M134 567c-94 0 -154 49 -154 150h92c0 -43 18 -73 62 -73s63 30 63 73h94c0 -96 -63 -150 -157 -150z" />
    <glyph glyph-name="florin" unicode="&#x192;" horiz-adv-x="459" 
d="M22 -210c-69 0 -122 44 -122 104c0 33 14 53 14 53h103s-5 -11 -5 -22c0 -14 6 -22 23 -22c28 0 40 19 50 87l55 361h-70l16 115h65l5 33c18 116 74 191 182 191c88 0 121 -49 121 -100c0 -31 -18 -59 -18 -59h-89s5 11 5 21c0 13 -7 20 -23 20c-31 0 -45 -20 -54 -84
l-3 -22h110l-14 -115h-108l-53 -361c-16 -107 -53 -200 -190 -200z" />
    <glyph glyph-name="integral" unicode="&#x222b;" horiz-adv-x="414" 
d="M122 -32v541c0 114 58 181 161 181c69 0 141 -40 141 -129c0 -27 -9 -51 -9 -51h-103s3 10 3 20c0 21 -10 35 -28 35c-23 0 -35 -19 -35 -53v-541c0 -114 -58 -181 -161 -181c-69 0 -141 40 -141 129c0 27 9 51 9 51h103s-3 -10 -3 -20c0 -21 10 -35 28 -35
c23 0 35 19 35 53z" />
    <glyph glyph-name="uni2215" unicode="&#x2215;" horiz-adv-x="406" 
d="M313 724l58 -25l-277 -733l-59 23z" />
    <glyph glyph-name="uni2219" unicode="&#x2219;" horiz-adv-x="324" 
d="M80 282c0 44 37 82 82 82s82 -38 82 -82c0 -45 -37 -82 -82 -82s-82 37 -82 82z" />
    <glyph glyph-name="radical" unicode="&#x221a;" horiz-adv-x="558" 
d="M108 500l115 -336l180 555h175v-119h-90l-206 -600h-124l-178 500h128z" />
    <glyph glyph-name="dagger" unicode="&#x2020;" horiz-adv-x="558" 
d="M519 382h-178v-382h-124v382h-178v104h178v194h124v-194h178v-104z" />
    <glyph glyph-name="daggerdbl" unicode="&#x2021;" horiz-adv-x="558" 
d="M519 176h-178v-176h-124v176h-178v104h178v134h-178v104h178v162h124v-162h178v-104h-178v-134h178v-104z" />
    <glyph glyph-name="lozenge" unicode="&#x25ca;" horiz-adv-x="558" 
d="M304 -9h-50l-195 358l195 358h50l194 -358zM380 349l-101 189l-102 -189l102 -188z" />
    <glyph glyph-name="pi" unicode="&#x3c0;" horiz-adv-x="558" 
d="M220 0h-133v388h-72v112h528v-112h-77v-219c0 -45 1 -56 67 -56v-109s-25 -8 -74 -8c-117 0 -126 81 -126 245v147h-113v-388z" />
    <glyph glyph-name="ae" unicode="&#xe6;" horiz-adv-x="769" 
d="M551 102c52 0 65 27 65 47c0 8 -2 15 -2 15h104s8 -17 8 -42c0 -95 -96 -132 -175 -132c-83 0 -144 29 -183 78c-27 -29 -72 -78 -166 -78c-112 0 -168 61 -168 152c0 117 80 147 181 159c83 10 96 22 96 54s-39 48 -73 48c-45 0 -74 -13 -74 -50c0 -14 5 -25 5 -25h-105
s-12 22 -12 46c0 82 69 136 189 136c63 0 114 -19 146 -62c37 38 89 62 156 62c117 0 192 -82 192 -191c0 -55 -15 -101 -15 -101h-279c1 -75 37 -116 110 -116zM312 195v29h-2c-23 -15 -50 -18 -80 -24c-52 -10 -69 -27 -69 -52c0 -29 19 -48 55 -48c68 0 96 44 96 95z
M536 398c-72 0 -90 -59 -90 -85h170c5 31 -6 85 -80 85z" />
    <glyph glyph-name="OE" unicode="&#x152;" horiz-adv-x="957" 
d="M349 575c-130 0 -166 -130 -166 -240c0 -100 31 -210 166 -210s166 110 166 210c0 110 -36 240 -166 240zM917 127v-127h-401v33c-45 -27 -101 -43 -167 -43c-210 0 -313 160 -313 345c0 190 98 375 313 375c66 0 122 -18 167 -48v38h396v-127h-258v-155h239v-120h-239
v-171h263z" />
    <glyph glyph-name="oe" unicode="&#x153;" horiz-adv-x="803" 
d="M585 102c52 0 65 27 65 47c0 8 -2 15 -2 15h104s8 -17 8 -42c0 -95 -96 -132 -175 -132c-78 0 -131 26 -167 69c-35 -41 -85 -69 -158 -69c-160 0 -230 114 -230 248c0 144 78 272 230 272c73 0 124 -30 159 -77c35 47 84 77 158 77c117 0 192 -82 192 -191
c0 -55 -15 -101 -15 -101h-279c1 -75 37 -116 110 -116zM260 384c-70 0 -95 -57 -95 -143c0 -90 29 -126 95 -126s95 35 95 125c0 87 -25 144 -95 144zM570 398c-72 0 -90 -59 -90 -85h170c5 31 -6 85 -80 85z" />
    <glyph glyph-name="i" unicode="i" horiz-adv-x="239" 
d="M184 0h-129v500h129v-500zM30 644c0 50 40 90 90 90s90 -40 90 -90s-40 -90 -90 -90s-90 40 -90 90z" />
    <glyph glyph-name="Grave" unicode="&#xf6ce;" horiz-adv-x="255" 
d="M158 762l-158 148h175l90 -148h-107z" />
    <glyph glyph-name="Acute" unicode="&#xf6c9;" horiz-adv-x="255" 
d="M255 910l-158 -148h-107l90 148h175z" />
    <glyph glyph-name="Circumflex" unicode="&#xeff7;" horiz-adv-x="360" 
d="M253 904l107 -142h-101l-79 64l-79 -64h-101l107 142h146z" />
    <glyph glyph-name="Tilde" unicode="&#xeff5;" horiz-adv-x="308" 
d="M224 756c-50 0 -99 41 -131 41c-13 0 -19 -6 -19 -16c0 -8 3 -19 3 -19h-70s-7 26 -7 47c0 54 36 89 84 89c51 0 95 -40 131 -40c13 0 19 5 19 15c0 9 -4 19 -4 19h71s7 -22 7 -47c0 -54 -36 -89 -84 -89z" />
    <glyph glyph-name="Ring" unicode="&#xeff3;" horiz-adv-x="231" 
d="M0 867c0 70 52 115 115 115c65 0 115 -45 115 -115s-52 -115 -115 -115s-115 41 -115 115zM71 868c0 -28 19 -46 44 -46s44 18 44 46s-19 46 -44 46s-44 -18 -44 -46z" />
    <glyph glyph-name="Dieresis" unicode="&#xf6cb;" horiz-adv-x="379" 
d="M0 834c0 44 37 80 82 80c44 0 80 -36 80 -80c0 -45 -36 -82 -80 -82c-45 0 -82 37 -82 82zM217 834c0 44 37 80 82 80c44 0 80 -36 80 -80c0 -45 -36 -82 -80 -82c-45 0 -82 37 -82 82z" />
    <glyph glyph-name="Dieresissmall" unicode="&#xf7a8;" horiz-adv-x="369" 
d="M0 834c0 44 37 80 82 80c44 0 80 -36 80 -80c0 -45 -36 -82 -80 -82c-45 0 -82 37 -82 82zM207 834c0 44 37 80 82 80c44 0 80 -36 80 -80c0 -45 -36 -82 -80 -82c-45 0 -82 37 -82 82z" />
    <glyph glyph-name="Cedilla" unicode="&#xeff2;" horiz-adv-x="240" 
d="M82 -83v43c19 4 34 7 61 7c59 0 97 -33 97 -79c0 -48 -34 -93 -121 -93c-48 0 -96 14 -119 58l68 26c9 -16 29 -24 53 -24c32 0 44 15 44 34s-14 34 -41 34c-22 0 -42 -6 -42 -6z" />
    <glyph glyph-name="Stroketod" horiz-adv-x="333" 
d="M0 415h333v-110h-333v110z" />
    <glyph glyph-name="Stroketol" horiz-adv-x="410" 
d="M52 209l-52 89l120 69l27 4l211 122l52 -89l-232 -134l-22 -1z" />
    <glyph glyph-name="dieresissmall" horiz-adv-x="367" 
d="M0 630c0 44 37 80 82 80c44 0 80 -36 80 -80c0 -45 -36 -82 -80 -82c-45 0 -82 37 -82 82zM205 630c0 44 37 80 82 80c44 0 80 -36 80 -80c0 -45 -36 -82 -80 -82c-45 0 -82 37 -82 82z" />
    <glyph glyph-name="stroketol" horiz-adv-x="349" 
d="M52 244l-52 89l148 84l37 15l112 66l52 -89l-164 -96l-37 -15z" />
    <glyph glyph-name="Lslash" unicode="&#x141;" horiz-adv-x="499" 
d="M21 234l-52 89l101 58v319h148v-245l109 63l52 -89l-161 -93v-204h256v-132h-404v262z" />
    <glyph glyph-name="Dcroat" unicode="&#x110;" horiz-adv-x="653" 
d="M0 415h70v285h222c189 0 325 -123 325 -365c0 -187 -113 -335 -322 -335h-225v305h-70v110zM210 125h81c129 0 181 97 181 206c0 130 -47 244 -184 244h-78v-160h123v-110h-123v-180z" />
    <glyph glyph-name="lslash" unicode="&#x142;" horiz-adv-x="279" 
d="M17 244l-52 89l110 62v327h129v-258l58 34l52 -89l-110 -65v-344h-129v276z" />
    <glyph glyph-name="Caron" unicode="&#xf6ca;" horiz-adv-x="360" 
d="M360 904l-107 -142h-146l-107 142h101l79 -64l79 64h101z" />
    <glyph glyph-name="Breve" unicode="&#xefee;" horiz-adv-x="203" 
d="M104 755c-94 0 -154 49 -154 150h92c0 -43 18 -73 62 -73s63 30 63 73h94c0 -96 -63 -150 -157 -150z" />
    <glyph glyph-name="Macron" unicode="&#xf6d0;" horiz-adv-x="250" 
d="M-16 768v81h283v-81h-283z" />
    <glyph glyph-name="Dotaccent" unicode="&#xefed;" horiz-adv-x="161" 
d="M0 834c0 44 37 80 82 80c44 0 80 -36 80 -80c0 -45 -36 -82 -80 -82c-45 0 -82 37 -82 82z" />
    <glyph glyph-name="Ogonek" unicode="&#xeff1;" horiz-adv-x="232" 
d="M118 0h61c0 -31 -31 -47 -53 -54c-27 -8 -46 -22 -46 -45c0 -21 14 -33 36 -33c25 0 42 10 47 39l69 -17c-1 -35 -30 -90 -114 -90c-87 0 -118 47 -118 95c0 50 40 79 85 89c21 5 33 16 33 16z" />
    <glyph glyph-name="Commaaccent" unicode="&#xf12a;" horiz-adv-x="203" 
d="M91 -66h108l-52 -189h-95z" />
    <glyph glyph-name="Commaascender" unicode="&#xf237;" horiz-adv-x="203" 
d="M91 700h108l-52 -189h-95z" />
    <glyph glyph-name="Hungarumlaut" unicode="&#xf6cf;" horiz-adv-x="255" 
d="M246 910l-158 -148h-88l90 148h156zM436 910l-158 -148h-88l90 148h156z" />
    <glyph glyph-name="Dotcatalan" horiz-adv-x="324" 
d="M69 282c0 50 42 93 93 93s93 -43 93 -93c0 -51 -42 -93 -93 -93s-93 42 -93 93z" />
    <glyph glyph-name="Stroketoh" horiz-adv-x="667" 
d="M-1 516v84h669v-84h-669z" />
    <glyph glyph-name="acutetol" horiz-adv-x="239" 
d="M301 900l-142 -138h-97l74 138h165z" />
    <glyph glyph-name="circumflextoh" horiz-adv-x="522" 
d="M193 890l107 -142h-101l-79 64l-79 -64h-101l107 142h146z" />
    <glyph glyph-name="cedillatog" unicode="&#xf30f;" horiz-adv-x="474" 
d="M295 576h-108l49 180h95z" />
    <glyph glyph-name="commaaccent" unicode="&#xf6c3;" horiz-adv-x="203" 
d="M91 -66h108l-52 -189h-95z" />
    <glyph glyph-name="commaascender" unicode="&#xf206;" horiz-adv-x="250" 
d="M89 722h101l-41 -189h-88z" />
    <glyph glyph-name="dotcatalan" horiz-adv-x="324" 
d="M69 282c0 50 42 93 93 93s93 -43 93 -93c0 -51 -42 -93 -93 -93s-93 42 -93 93z" />
    <glyph glyph-name="stroketod" horiz-adv-x="524" 
d="M128 563v81h409v-81h-409z" />
    <glyph glyph-name="stroketot" horiz-adv-x="363" 
d="M10 238v92h327v-92h-327z" />
    <glyph glyph-name="comma.alt" horiz-adv-x="213" 
d="M91 104h72l-51 -248h-72z" />
    <glyph glyph-name="semicolon.alt" horiz-adv-x="324" 
d="M80 429c0 44 37 82 82 82s82 -38 82 -82c0 -45 -37 -82 -82 -82s-82 37 -82 82zM141 104h72l-51 -248h-72z" />
    <glyph glyph-name="quoteleft.alt" horiz-adv-x="213" 
d="M99 700h72l-51 -248h-72z" />
    <glyph glyph-name="quoteright.alt" horiz-adv-x="213" 
d="M99 700h72l-51 -248h-72z" />
    <glyph glyph-name="quotedblleft.alt" horiz-adv-x="343" 
d="M99 700h72l-51 -248h-72zM229 700h72l-51 -248h-72z" />
    <glyph glyph-name="quotedblright.alt" horiz-adv-x="343" 
d="M99 700h72l-51 -248h-72zM229 700h72l-51 -248h-72z" />
    <glyph glyph-name="quotedblbase.alt" horiz-adv-x="343" 
d="M220 104h72l-51 -248h-72zM90 104h72l-51 -248h-72z" />
    <glyph glyph-name="quotesinglbase.alt" horiz-adv-x="213" 
d="M90 104h72l-51 -248h-72z" />
    <glyph glyph-name="periodcentered.alt" horiz-adv-x="324" 
d="M80 282c0 44 37 82 82 82s82 -38 82 -82c0 -45 -37 -82 -82 -82s-82 37 -82 82z" />
    <glyph glyph-name="guilsinglleft.alt" horiz-adv-x="337" 
d="M202 59l-157 201l157 200h80l-157 -200l157 -201h-80z" />
    <glyph glyph-name="guilsinglright.alt" horiz-adv-x="337" 
d="M292 260l-157 -201h-80l157 201l-157 200h80z" />
    <glyph glyph-name="guillemotleft.alt" horiz-adv-x="510" 
d="M214 259l158 201h83l-157 -200l157 -201h-83zM45 259l158 201h83l-157 -200l157 -201h-83z" />
    <glyph glyph-name="guillemotright.alt" horiz-adv-x="509" 
d="M295 260l-157 -201h-83l157 201l-157 200h83zM464 260l-157 -201h-83l157 201l-157 200h83z" />
    <glyph glyph-name="parenleft.alt" horiz-adv-x="242" 
d="M160 707h70s-114 -161 -114 -444c0 -308 115 -453 115 -453h-70s-115 144 -115 449c0 285 114 448 114 448z" />
    <glyph glyph-name="parenright.alt" horiz-adv-x="241" 
d="M11 707h70s114 -166 114 -444c0 -303 -115 -453 -115 -453h-70s115 145 115 453c0 283 -114 444 -114 444z" />
    <glyph glyph-name="braceleft.alt" horiz-adv-x="352" 
d="M109 268c109 -36 112 -103 112 -182v-57c0 -76 5 -130 64 -130c28 0 52 7 52 7v-77s-30 -10 -62 -10c-119 0 -132 99 -132 196v72c0 90 -32 119 -128 139v77c98 24 128 51 128 135v52c0 124 14 220 139 220c29 0 55 -10 55 -10v-77s-20 7 -49 7c-57 0 -67 -51 -67 -138
v-52c0 -80 -10 -144 -112 -172z" />
    <glyph glyph-name="braceright.alt" horiz-adv-x="352" 
d="M242 266c-102 28 -112 92 -112 172v54c0 87 -10 138 -67 138c-29 0 -49 -7 -49 -7v77s26 10 55 10c125 0 139 -96 139 -220v-52c0 -84 30 -111 128 -135v-77c-96 -20 -128 -49 -128 -139v-72c0 -97 -13 -196 -132 -196c-32 0 -62 10 -62 10v77s24 -7 52 -7
c59 0 64 52 64 128v57c0 79 3 146 112 182z" />
    <glyph glyph-name="bracketleft.alt" horiz-adv-x="271" 
d="M155 632v-768h86v-64h-166v907h166v-75h-86z" />
    <glyph glyph-name="bracketright.alt" horiz-adv-x="271" 
d="M116 -136v768h-86v75h166v-907h-166v64h86z" />
    <glyph glyph-name="underscore.alt" horiz-adv-x="542" 
d="M20 -91v80h502v-80h-502z" />
    <glyph glyph-name="slash.alt" horiz-adv-x="409" 
d="M300 700h74l-265 -700h-74z" />
    <glyph glyph-name="backslash.alt" horiz-adv-x="409" 
d="M35 700h74l265 -700h-74z" />
    <glyph glyph-name="bar.alt" horiz-adv-x="240" 
d="M80 700h80v-861h-80v861z" />
    <glyph glyph-name="brokenbar.alt" horiz-adv-x="240" 
d="M80 188h80v-350h-80v350zM160 380h-80v320h80v-320z" />
    <glyph glyph-name="dagger.alt" horiz-adv-x="498" 
d="M30 420v80h179v200h80v-200h179v-80h-179v-620h-80v620h-179z" />
    <glyph glyph-name="daggerdbl.alt" horiz-adv-x="498" 
d="M30 420v80h179v200h80v-200h179v-80h-179v-340h179v-80h-179v-200h-80v200h-179v80h179v340h-179z" />
    <glyph glyph-name="quotesingle.alt" horiz-adv-x="190" 
d="M60 700h69v-207h-69v207z" />
    <glyph glyph-name="quotedbl.alt" horiz-adv-x="291" 
d="M60 700h60v-207h-60v207zM171 700h60v-207h-60v207z" />
    <glyph glyph-name="plus.alt" horiz-adv-x="498" 
d="M40 289v70h174v185h70v-185h174v-70h-174v-183h-70v183h-174z" />
    <glyph glyph-name="minus.alt" horiz-adv-x="518" 
d="M50 289v70h418v-70h-418z" />
    <glyph glyph-name="plusminus.alt" horiz-adv-x="510" 
d="M42 332v70h179v132h70v-132h179v-70h-179v-132h-70v132h-179zM40 86v70h428v-70h-428z" />
    <glyph glyph-name="multiply.alt" horiz-adv-x="530" 
d="M60 467l50 50l155 -155l155 155l50 -50l-155 -155l155 -155l-50 -50l-155 155l-155 -155l-50 50l155 155z" />
    <glyph glyph-name="divide.alt" horiz-adv-x="538" 
d="M60 289v70h418v-70h-418zM187 504c0 44 37 82 82 82s82 -38 82 -82c0 -45 -37 -82 -82 -82s-82 37 -82 82zM187 135c0 44 37 82 82 82s82 -38 82 -82c0 -45 -37 -82 -82 -82s-82 37 -82 82z" />
    <glyph glyph-name="greater.alt" horiz-adv-x="518" 
d="M448 343v-60l-378 -185v77l287 138l-287 138v77z" />
    <glyph glyph-name="less.alt" horiz-adv-x="518" 
d="M70 283v60l378 185v-77l-287 -138l287 -138v-77z" />
    <glyph glyph-name="equal.alt" horiz-adv-x="568" 
d="M80 369v72h408v-72h-408zM80 212v72h408v-72h-408z" />
    <glyph glyph-name="notequal.alt" horiz-adv-x="568" 
d="M80 369v72h210l35 93h74l-35 -93h124v-72h-151l-32 -85h183v-72h-210l-36 -95h-74l36 95h-124v72h151l32 85h-183z" />
    <glyph glyph-name="greaterequal.alt" horiz-adv-x="498" 
d="M80 1v70h357v-70h-357zM458 343v-60l-378 -185v77l287 138l-287 138v77z" />
    <glyph glyph-name="lessequal.alt" horiz-adv-x="498" 
d="M61 1v70h357v-70h-357zM40 283v60l378 185v-77l-287 -138l287 -138v-77z" />
    <glyph glyph-name="approxequal.alt" 
d="M371 229c15 0 32 10 32 34c0 12 -5 33 -5 33h64s8 -16 8 -39c0 -59 -36 -100 -104 -100c-90 0 -147 80 -217 80c-15 0 -32 -10 -32 -34c0 -12 5 -33 5 -33h-64s-8 16 -8 39c0 59 36 100 104 100c90 0 147 -80 217 -80zM371 405c15 0 32 10 32 34c0 12 -5 33 -5 33h64
s8 -16 8 -39c0 -59 -36 -100 -104 -100c-90 0 -147 80 -217 80c-15 0 -32 -10 -32 -34c0 -12 5 -33 5 -33h-64s-8 16 -8 39c0 59 36 100 104 100c90 0 147 -80 217 -80z" />
    <glyph glyph-name="asciitilde.alt" horiz-adv-x="526" 
d="M168 314c-22 0 -38 -13 -38 -37c0 -12 5 -30 5 -30h-77s-8 15 -8 39c0 65 49 110 117 110c95 0 134 -90 193 -90c20 0 36 13 36 37c0 12 -5 30 -5 30h77s8 -15 8 -39c0 -65 -49 -110 -117 -110c-84 0 -140 90 -191 90z" />
    <glyph glyph-name="lozenge.alt" horiz-adv-x="449" 
d="M250 -9h-50l-155 358l155 358h50l154 -358zM323 349l-98 233l-99 -233l99 -233z" />
    <glyph glyph-name="radical.alt" horiz-adv-x="652" 
d="M134 500l131 -397l200 616h187v-78h-124l-215 -641h-95l-168 500h84z" />
    <glyph glyph-name="pi.alt" horiz-adv-x="603" 
d="M227 0h-130v425h-72v75h548v-75h-62v-231c0 -76 3 -79 67 -79v-117c-20 -2 -39 -3 -55 -3c-137 0 -141 100 -141 238v192h-155v-425z" />
    <glyph glyph-name="asciicircum.alt" horiz-adv-x="670" 
d="M305 700h60l230 -423h-87l-173 324l-173 -324h-87z" />
    <glyph glyph-name="numbersign.alt" horiz-adv-x="680" 
d="M534 700h74l-79 -221h116v-70h-140l-42 -120h116v-70h-139l-79 -219h-74l79 219h-146l-79 -219h-74l79 219h-111v70h133l43 120h-109v70h133l79 221h74l-79 -221h146zM285 409l-42 -120h145l43 120h-146z" />
    <glyph glyph-name="Adieresis" unicode="&#xc4;" horiz-adv-x="672" 
d="M512 0l-46 138h-260l-46 -138h-150l249 700h154l249 -700h-150zM336 527l-88 -264h176zM146 834c0 44 37 80 82 80c44 0 80 -36 80 -80c0 -45 -36 -82 -80 -82c-45 0 -82 37 -82 82zM363 834c0 44 37 80 82 80c44 0 80 -36 80 -80c0 -45 -36 -82 -80 -82
c-45 0 -82 37 -82 82z" />
    <glyph glyph-name="adieresis" unicode="&#xe4;" horiz-adv-x="488" 
d="M435 300v-300h-113v36h-2c-25 -24 -69 -46 -118 -46c-112 0 -168 61 -168 152c0 117 80 147 181 159c83 10 96 22 96 54s-39 48 -73 48c-45 0 -74 -13 -74 -50c0 -14 5 -25 5 -25h-105s-12 22 -12 46c0 82 69 136 189 136c73 0 139 -26 172 -93c15 -31 22 -70 22 -117z
M267 630c0 44 37 80 82 80c44 0 80 -36 80 -80c0 -45 -36 -82 -80 -82c-45 0 -82 37 -82 82zM50 630c0 44 37 80 82 80c44 0 80 -36 80 -80c0 -45 -36 -82 -80 -82c-45 0 -82 37 -82 82zM312 195v29h-2c-23 -15 -50 -20 -80 -24c-52 -8 -69 -27 -69 -52c0 -29 19 -48 55 -48
c68 0 96 44 96 95z" />
    <glyph glyph-name="Odieresis" unicode="&#xd6;" horiz-adv-x="698" 
d="M349 -10c-210 0 -313 160 -313 345c0 190 98 375 313 375s313 -185 313 -375c0 -185 -103 -345 -313 -345zM349 575c-130 0 -166 -130 -166 -240c0 -100 31 -210 166 -210s166 110 166 210c0 110 -36 240 -166 240zM159 834c0 44 37 80 82 80c44 0 80 -36 80 -80
c0 -45 -36 -82 -80 -82c-45 0 -82 37 -82 82zM376 834c0 44 37 80 82 80c44 0 80 -36 80 -80c0 -45 -36 -82 -80 -82c-45 0 -82 37 -82 82z" />
    <glyph glyph-name="Udieresis" unicode="&#xdc;" horiz-adv-x="668" 
d="M604 700v-436c0 -181 -112 -274 -270 -274s-270 93 -270 274v436h150v-444c0 -77 40 -129 120 -129s120 52 120 129v444h150zM144 834c0 44 37 80 82 80c44 0 80 -36 80 -80c0 -45 -36 -82 -80 -82c-45 0 -82 37 -82 82zM361 834c0 44 37 80 82 80c44 0 80 -36 80 -80
c0 -45 -36 -82 -80 -82c-45 0 -82 37 -82 82z" />
    <glyph glyph-name="odieresis" unicode="&#xf6;" 
d="M260 -10c-160 0 -230 114 -230 248c0 144 78 272 230 272s230 -128 230 -272c0 -134 -70 -248 -230 -248zM260 384c-70 0 -95 -57 -95 -143c0 -90 29 -126 95 -126s95 35 95 125c0 87 -25 144 -95 144zM70 630c0 44 37 80 82 80c44 0 80 -36 80 -80
c0 -45 -36 -82 -80 -82c-45 0 -82 37 -82 82zM287 630c0 44 37 80 82 80c44 0 80 -36 80 -80c0 -45 -36 -82 -80 -82c-45 0 -82 37 -82 82z" />
    <glyph glyph-name="udieresis" unicode="&#xfc;" 
d="M336 219v281h129v-500h-129v49h-2c-22 -28 -56 -59 -123 -59c-95 0 -159 72 -159 169v341h132v-308c0 -50 26 -76 70 -76c37 0 82 17 82 103zM70 630c0 44 37 80 82 80c44 0 80 -36 80 -80c0 -45 -36 -82 -80 -82c-45 0 -82 37 -82 82zM287 630c0 44 37 80 82 80
c44 0 80 -36 80 -80c0 -45 -36 -82 -80 -82c-45 0 -82 37 -82 82z" />
    <glyph glyph-name="one.denominator" unicode="&#xf662;" horiz-adv-x="340" 
d="M32 0v80h103v205h-100v62c68 0 107 15 116 61h75v-328h93v-80h-287z" />
    <glyph glyph-name="two.denominator" unicode="&#xf663;" horiz-adv-x="340" 
d="M208 128l-52 -48h161v-80h-279v72l86 83c73 71 86 94 86 128c0 32 -19 48 -46 48c-25 0 -37 -15 -37 -32c0 -8 3 -14 3 -14h-82s-6 14 -6 32c0 51 40 97 124 97c85 0 141 -49 141 -123c0 -46 -20 -90 -99 -163z" />
    <glyph glyph-name="three.denominator" unicode="&#xf664;" horiz-adv-x="347" 
d="M56 326v82h236v-74l-77 -83s102 0 102 -122c0 -85 -61 -135 -142 -135c-71 0 -138 35 -138 110c0 24 10 41 10 41h86s-7 -12 -7 -31c0 -23 21 -37 50 -37c28 0 49 18 49 56c0 35 -20 57 -52 57c-21 0 -38 -8 -38 -8l-39 43l94 101h-134z" />
    <glyph glyph-name="four.denominator" unicode="&#xf665;" horiz-adv-x="363" 
d="M160 408h118v-238h56v-80h-56v-90h-95v90h-167v73zM100 170h83v151z" />
    <glyph glyph-name="five.denominator" unicode="&#xf666;" horiz-adv-x="334" 
d="M163 75c39 0 51 28 51 60c0 44 -26 59 -53 59c-22 0 -43 -13 -43 -14l-60 49l23 179h202v-82h-123l-8 -63c12 2 24 3 35 3c74 0 117 -45 117 -127c0 -96 -53 -145 -143 -145c-89 0 -134 51 -134 110c0 22 11 41 11 41h83s-7 -11 -7 -31c0 -23 17 -39 49 -39z" />
    <glyph glyph-name="six.denominator" unicode="&#xf667;" horiz-adv-x="348" 
d="M180 198c-38 0 -43 -42 -43 -73c0 -23 7 -48 45 -48c30 0 43 19 43 48c0 31 -4 73 -45 73zM216 302c0 19 -14 28 -32 28c-40 0 -43 -36 -45 -80c0 -1 21 19 58 19c86 0 121 -52 121 -135c0 -86 -46 -140 -141 -140c-83 0 -137 39 -137 149c0 184 37 271 150 271
c56 0 112 -29 112 -90c0 -19 -4 -31 -4 -31h-83s1 4 1 9z" />
    <glyph glyph-name="seven.denominator" unicode="&#xf668;" horiz-adv-x="281" 
d="M164 0h-104c2 105 40 237 117 326h-165v82h260v-74c-85 -103 -107 -191 -108 -334z" />
    <glyph glyph-name="eight.denominator" unicode="&#xf669;" horiz-adv-x="377" 
d="M188 71c42 0 63 24 63 52c0 44 -36 56 -63 68c-26 -12 -62 -24 -62 -68c0 -27 21 -52 62 -52zM188 250c21 9 42 26 42 50c0 22 -15 39 -42 39c-25 0 -41 -17 -41 -39c0 -24 21 -41 41 -50zM188 -6c-78 0 -151 40 -151 125c0 55 35 89 67 103c-20 12 -46 38 -46 80
c0 60 43 112 130 112c88 0 131 -52 131 -112c0 -42 -26 -68 -46 -80c32 -14 67 -48 67 -103c0 -85 -73 -125 -152 -125z" />
    <glyph glyph-name="nine.denominator" unicode="&#xf66a;" horiz-adv-x="345" 
d="M169 214c30 0 43 22 43 60c0 36 -12 57 -43 57c-29 0 -44 -23 -44 -57c0 -38 15 -60 44 -60zM305 223c0 -202 -70 -229 -150 -229c-62 0 -113 29 -113 88c0 18 5 34 5 34h79s-3 -7 -3 -15c0 -20 14 -31 40 -31c25 0 49 9 49 82c0 0 -21 -16 -68 -16
c-61 0 -114 40 -114 136c0 79 46 142 136 142c92 0 139 -49 139 -191z" />
    <glyph glyph-name="zero.denominator" unicode="&#xf661;" horiz-adv-x="362" 
d="M181 -6c-107 0 -147 74 -147 199c0 114 28 221 147 221s147 -107 147 -221c0 -125 -40 -199 -147 -199zM181 331c-41 0 -50 -48 -50 -131c0 -81 12 -123 50 -123s50 43 50 123c0 83 -9 131 -50 131z" />
    <glyph glyph-name="one.numerator" unicode="&#xf656;" horiz-adv-x="340" 
d="M32 276v80h103v205h-100v62c68 0 107 15 116 61h75v-328h93v-80h-287z" />
    <glyph glyph-name="two.numerator" unicode="&#xf657;" horiz-adv-x="340" 
d="M208 404l-52 -48h161v-80h-279v72l86 83c73 71 86 94 86 128c0 32 -19 48 -46 48c-25 0 -37 -15 -37 -32c0 -8 3 -14 3 -14h-82s-6 14 -6 32c0 51 40 97 124 97c85 0 141 -49 141 -123c0 -46 -20 -90 -99 -163z" />
    <glyph glyph-name="three.numerator" unicode="&#xf658;" horiz-adv-x="347" 
d="M56 602v82h236v-74l-77 -83s102 0 102 -122c0 -85 -61 -135 -142 -135c-71 0 -138 35 -138 110c0 24 10 41 10 41h86s-7 -12 -7 -31c0 -23 21 -37 50 -37c28 0 49 18 49 56c0 35 -20 57 -52 57c-21 0 -38 -8 -38 -8l-39 43l94 101h-134z" />
    <glyph glyph-name="four.numerator" unicode="&#xf659;" horiz-adv-x="363" 
d="M160 684h118v-238h56v-80h-56v-90h-95v90h-167v73zM100 446h83v151z" />
    <glyph glyph-name="five.numerator" unicode="&#xf65a;" horiz-adv-x="334" 
d="M163 351c39 0 51 28 51 60c0 44 -26 59 -53 59c-22 0 -43 -13 -43 -14l-60 49l23 179h202v-82h-123l-8 -63c12 2 24 3 35 3c74 0 117 -45 117 -127c0 -96 -53 -145 -143 -145c-89 0 -134 51 -134 110c0 22 11 41 11 41h83s-7 -11 -7 -31c0 -23 17 -39 49 -39z" />
    <glyph glyph-name="six.numerator" unicode="&#xf65b;" horiz-adv-x="348" 
d="M180 474c-38 0 -43 -42 -43 -73c0 -23 7 -48 45 -48c30 0 43 19 43 48c0 31 -4 73 -45 73zM216 578c0 19 -14 28 -32 28c-40 0 -43 -36 -45 -80c0 -1 21 19 58 19c86 0 121 -52 121 -135c0 -86 -46 -140 -141 -140c-83 0 -137 39 -137 149c0 184 37 271 150 271
c56 0 112 -29 112 -90c0 -19 -4 -31 -4 -31h-83s1 4 1 9z" />
    <glyph glyph-name="seven.numerator" unicode="&#xf65c;" horiz-adv-x="281" 
d="M164 276h-104c2 105 40 237 117 326h-165v82h260v-74c-85 -103 -107 -191 -108 -334z" />
    <glyph glyph-name="eight.numerator" unicode="&#xf65d;" horiz-adv-x="377" 
d="M188 347c42 0 63 24 63 52c0 44 -36 56 -63 68c-26 -12 -62 -24 -62 -68c0 -27 21 -52 62 -52zM188 526c21 9 42 26 42 50c0 22 -15 39 -42 39c-25 0 -41 -17 -41 -39c0 -24 21 -41 41 -50zM188 270c-78 0 -151 40 -151 125c0 55 35 89 67 103c-20 12 -46 38 -46 80
c0 60 43 112 130 112c88 0 131 -52 131 -112c0 -42 -26 -68 -46 -80c32 -14 67 -48 67 -103c0 -85 -73 -125 -152 -125z" />
    <glyph glyph-name="nine.numerator" unicode="&#xf65e;" horiz-adv-x="345" 
d="M169 490c30 0 43 22 43 60c0 36 -12 57 -43 57c-29 0 -44 -23 -44 -57c0 -38 15 -60 44 -60zM305 499c0 -202 -70 -229 -150 -229c-62 0 -113 29 -113 88c0 18 5 34 5 34h79s-3 -7 -3 -15c0 -20 14 -31 40 -31c25 0 49 9 49 82c0 0 -21 -16 -68 -16
c-61 0 -114 40 -114 136c0 79 46 142 136 142c92 0 139 -49 139 -191z" />
    <glyph glyph-name="zero.numerator" unicode="&#xf655;" horiz-adv-x="362" 
d="M181 270c-107 0 -147 74 -147 199c0 114 28 221 147 221s147 -107 147 -221c0 -125 -40 -199 -147 -199zM181 607c-41 0 -50 -48 -50 -131c0 -81 12 -123 50 -123s50 43 50 123c0 83 -9 131 -50 131z" />
    <glyph glyph-name="one.superior" unicode="&#xf06d;" horiz-adv-x="340" 
d="M32 377v80h103v205h-100v62c68 0 107 15 116 61h75v-328h93v-80h-287z" />
    <glyph glyph-name="two.superior" unicode="&#xf06e;" horiz-adv-x="340" 
d="M208 505l-52 -48h161v-80h-279v72l86 83c73 71 86 94 86 128c0 32 -19 48 -46 48c-25 0 -37 -15 -37 -32c0 -8 3 -14 3 -14h-82s-6 14 -6 32c0 51 40 97 124 97c85 0 141 -49 141 -123c0 -46 -20 -90 -99 -163z" />
    <glyph glyph-name="three.superior" unicode="&#xf06f;" horiz-adv-x="347" 
d="M56 703v82h236v-74l-77 -83s102 0 102 -122c0 -85 -61 -135 -142 -135c-71 0 -138 35 -138 110c0 24 10 41 10 41h86s-7 -12 -7 -31c0 -23 21 -37 50 -37c28 0 49 18 49 56c0 35 -20 57 -52 57c-21 0 -38 -8 -38 -8l-39 43l94 101h-134z" />
    <glyph glyph-name="four.superior" unicode="&#x2074;" horiz-adv-x="363" 
d="M160 785h118v-238h56v-80h-56v-90h-95v90h-167v73zM100 547h83v151z" />
    <glyph glyph-name="five.superior" unicode="&#x2075;" horiz-adv-x="334" 
d="M163 452c39 0 51 28 51 60c0 44 -26 59 -53 59c-22 0 -43 -13 -43 -14l-60 49l23 179h202v-82h-123l-8 -63c12 2 24 3 35 3c74 0 117 -45 117 -127c0 -96 -53 -145 -143 -145c-89 0 -134 51 -134 110c0 22 11 41 11 41h83s-7 -11 -7 -31c0 -23 17 -39 49 -39z" />
    <glyph glyph-name="six.superior" unicode="&#x2076;" horiz-adv-x="348" 
d="M180 575c-38 0 -43 -42 -43 -73c0 -23 7 -48 45 -48c30 0 43 19 43 48c0 31 -4 73 -45 73zM216 679c0 19 -14 28 -32 28c-40 0 -43 -36 -45 -80c0 -1 21 19 58 19c86 0 121 -52 121 -135c0 -86 -46 -140 -141 -140c-83 0 -137 39 -137 149c0 184 37 271 150 271
c56 0 112 -29 112 -90c0 -19 -4 -31 -4 -31h-83s1 4 1 9z" />
    <glyph glyph-name="seven.superior" unicode="&#x2077;" horiz-adv-x="281" 
d="M164 377h-104c2 105 40 237 117 326h-165v82h260v-74c-85 -103 -107 -191 -108 -334z" />
    <glyph glyph-name="eight.superior" unicode="&#x2078;" horiz-adv-x="377" 
d="M188 448c42 0 63 24 63 52c0 44 -36 56 -63 68c-26 -12 -62 -24 -62 -68c0 -27 21 -52 62 -52zM188 627c21 9 42 26 42 50c0 22 -15 39 -42 39c-25 0 -41 -17 -41 -39c0 -24 21 -41 41 -50zM188 371c-78 0 -151 40 -151 125c0 55 35 89 67 103c-20 12 -46 38 -46 80
c0 60 43 112 130 112c88 0 131 -52 131 -112c0 -42 -26 -68 -46 -80c32 -14 67 -48 67 -103c0 -85 -73 -125 -152 -125z" />
    <glyph glyph-name="nine.superior" unicode="&#x2079;" horiz-adv-x="345" 
d="M169 591c30 0 43 22 43 60c0 36 -12 57 -43 57c-29 0 -44 -23 -44 -57c0 -38 15 -60 44 -60zM305 600c0 -202 -70 -229 -150 -229c-62 0 -113 29 -113 88c0 18 5 34 5 34h79s-3 -7 -3 -15c0 -20 14 -31 40 -31c25 0 49 9 49 82c0 0 -21 -16 -68 -16
c-61 0 -114 40 -114 136c0 79 46 142 136 142c92 0 139 -49 139 -191z" />
    <glyph glyph-name="zero.superior" unicode="&#x2070;" horiz-adv-x="362" 
d="M181 371c-107 0 -147 74 -147 199c0 114 28 221 147 221s147 -107 147 -221c0 -125 -40 -199 -147 -199zM181 708c-41 0 -50 -48 -50 -131c0 -81 12 -123 50 -123s50 43 50 123c0 83 -9 131 -50 131z" />
    <glyph glyph-name="one.inferior" unicode="&#x2081;" horiz-adv-x="340" 
d="M32 -149v80h103v205h-100v62c68 0 107 15 116 61h75v-328h93v-80h-287z" />
    <glyph glyph-name="two.inferior" unicode="&#x2082;" horiz-adv-x="340" 
d="M208 -21l-52 -48h161v-80h-279v72l86 83c73 71 86 94 86 128c0 32 -19 48 -46 48c-25 0 -37 -15 -37 -32c0 -8 3 -14 3 -14h-82s-6 14 -6 32c0 51 40 97 124 97c85 0 141 -49 141 -123c0 -46 -20 -90 -99 -163z" />
    <glyph glyph-name="three.inferior" unicode="&#x2083;" horiz-adv-x="347" 
d="M56 177v82h236v-74l-77 -83s102 0 102 -122c0 -85 -61 -135 -142 -135c-71 0 -138 35 -138 110c0 24 10 41 10 41h86s-7 -12 -7 -31c0 -23 21 -37 50 -37c28 0 49 18 49 56c0 35 -20 57 -52 57c-21 0 -38 -8 -38 -8l-39 43l94 101h-134z" />
    <glyph glyph-name="four.inferior" unicode="&#x2084;" horiz-adv-x="363" 
d="M160 259h118v-238h56v-80h-56v-90h-95v90h-167v73zM100 21h83v151z" />
    <glyph glyph-name="five.inferior" unicode="&#x2085;" horiz-adv-x="334" 
d="M163 -74c39 0 51 28 51 60c0 44 -26 59 -53 59c-22 0 -43 -13 -43 -14l-60 49l23 179h202v-82h-123l-8 -63c12 2 24 3 35 3c74 0 117 -45 117 -127c0 -96 -53 -145 -143 -145c-89 0 -134 51 -134 110c0 22 11 41 11 41h83s-7 -11 -7 -31c0 -23 17 -39 49 -39z" />
    <glyph glyph-name="six.inferior" unicode="&#x2086;" horiz-adv-x="348" 
d="M180 49c-38 0 -43 -42 -43 -73c0 -23 7 -48 45 -48c30 0 43 19 43 48c0 31 -4 73 -45 73zM216 153c0 19 -14 28 -32 28c-40 0 -43 -36 -45 -80c0 -1 21 19 58 19c86 0 121 -52 121 -135c0 -86 -46 -140 -141 -140c-83 0 -137 39 -137 149c0 184 37 271 150 271
c56 0 112 -29 112 -90c0 -19 -4 -31 -4 -31h-83s1 4 1 9z" />
    <glyph glyph-name="seven.inferior" unicode="&#x2087;" horiz-adv-x="281" 
d="M164 -149h-104c2 105 40 237 117 326h-165v82h260v-74c-85 -103 -107 -191 -108 -334z" />
    <glyph glyph-name="eight.inferior" unicode="&#x2088;" horiz-adv-x="377" 
d="M188 -78c42 0 63 24 63 52c0 44 -36 56 -63 68c-26 -12 -62 -24 -62 -68c0 -27 21 -52 62 -52zM188 101c21 9 42 26 42 50c0 22 -15 39 -42 39c-25 0 -41 -17 -41 -39c0 -24 21 -41 41 -50zM188 -155c-78 0 -151 40 -151 125c0 55 35 89 67 103c-20 12 -46 38 -46 80
c0 60 43 112 130 112c88 0 131 -52 131 -112c0 -42 -26 -68 -46 -80c32 -14 67 -48 67 -103c0 -85 -73 -125 -152 -125z" />
    <glyph glyph-name="nine.inferior" unicode="&#x2089;" horiz-adv-x="345" 
d="M169 65c30 0 43 22 43 60c0 36 -12 57 -43 57c-29 0 -44 -23 -44 -57c0 -38 15 -60 44 -60zM305 74c0 -202 -70 -229 -150 -229c-62 0 -113 29 -113 88c0 18 5 34 5 34h79s-3 -7 -3 -15c0 -20 14 -31 40 -31c25 0 49 9 49 82c0 0 -21 -16 -68 -16c-61 0 -114 40 -114 136
c0 79 46 142 136 142c92 0 139 -49 139 -191z" />
    <glyph glyph-name="zero.inferior" unicode="&#x2080;" horiz-adv-x="362" 
d="M181 -155c-107 0 -147 74 -147 199c0 114 28 221 147 221s147 -107 147 -221c0 -125 -40 -199 -147 -199zM181 182c-41 0 -50 -48 -50 -131c0 -81 12 -123 50 -123s50 43 50 123c0 83 -9 131 -50 131z" />
    <glyph glyph-name="zerozero" unicode="&#xf303;" horiz-adv-x="860" 
d="M191 270c-107 0 -147 74 -147 199c0 114 28 221 147 221s147 -107 147 -221c0 -125 -40 -199 -147 -199zM191 607c-41 0 -50 -48 -50 -131c0 -81 12 -123 50 -123s50 43 50 123c0 83 -9 131 -50 131zM540 724l58 -25l-277 -733l-59 23zM669 -6c-107 0 -147 74 -147 199
c0 114 28 221 147 221s147 -107 147 -221c0 -125 -40 -199 -147 -199zM669 331c-41 0 -50 -48 -50 -131c0 -81 12 -123 50 -123s50 43 50 123c0 83 -9 131 -50 131z" />
    <glyph glyph-name="onehalf" unicode="&#xbd;" horiz-adv-x="816" 
d="M22 276v80h103v205h-100v62c68 0 107 15 116 61h75v-328h93v-80h-287zM518 724l58 -25l-277 -733l-59 23zM684 128l-52 -48h161v-80h-279v72l86 83c73 71 86 94 86 128c0 32 -19 48 -46 48c-25 0 -37 -15 -37 -32c0 -8 3 -14 3 -14h-82s-6 14 -6 32c0 51 40 97 124 97
c85 0 141 -49 141 -123c0 -46 -20 -90 -99 -163z" />
    <glyph glyph-name="twothirds" unicode="&#x2154;" horiz-adv-x="823" 
d="M198 404l-52 -48h161v-80h-279v72l86 83c73 71 86 94 86 128c0 32 -19 48 -46 48c-25 0 -37 -15 -37 -32c0 -8 3 -14 3 -14h-82s-6 14 -6 32c0 51 40 97 124 97c85 0 141 -49 141 -123c0 -46 -20 -90 -99 -163zM518 724l58 -25l-277 -733l-59 23zM532 326v82h236v-74
l-77 -83s102 0 102 -122c0 -85 -61 -135 -142 -135c-71 0 -138 35 -138 110c0 24 10 41 10 41h86s-7 -12 -7 -31c0 -23 21 -37 50 -37c28 0 49 18 49 56c0 35 -20 57 -52 57c-21 0 -38 -8 -38 -8l-39 43l94 101h-134z" />
    <glyph glyph-name="zeroone" unicode="&#xf150;" horiz-adv-x="838" 
d="M191 270c-107 0 -147 74 -147 199c0 114 28 221 147 221s147 -107 147 -221c0 -125 -40 -199 -147 -199zM191 607c-41 0 -50 -48 -50 -131c0 -81 12 -123 50 -123s50 43 50 123c0 83 -9 131 -50 131zM540 724l58 -25l-277 -733l-59 23zM530 0v80h103v205h-100v62
c68 0 107 15 116 61h75v-328h93v-80h-287z" />
    <glyph glyph-name="oneone" unicode="&#xf151;" horiz-adv-x="816" 
d="M22 276v80h103v205h-100v62c68 0 107 15 116 61h75v-328h93v-80h-287zM518 724l58 -25l-277 -733l-59 23zM508 0v80h103v205h-100v62c68 0 107 15 116 61h75v-328h93v-80h-287z" />
    <glyph glyph-name="onethird" unicode="&#x2153;" horiz-adv-x="823" 
d="M22 276v80h103v205h-100v62c68 0 107 15 116 61h75v-328h93v-80h-287zM518 724l58 -25l-277 -733l-59 23zM532 326v82h236v-74l-77 -83s102 0 102 -122c0 -85 -61 -135 -142 -135c-71 0 -138 35 -138 110c0 24 10 41 10 41h86s-7 -12 -7 -31c0 -23 21 -37 50 -37
c28 0 49 18 49 56c0 35 -20 57 -52 57c-21 0 -38 -8 -38 -8l-39 43l94 101h-134z" />
    <glyph glyph-name="onequarter" unicode="&#xbc;" horiz-adv-x="839" 
d="M22 276v80h103v205h-100v62c68 0 107 15 116 61h75v-328h93v-80h-287zM518 724l58 -25l-277 -733l-59 23zM616 408h118v-238h56v-80h-56v-90h-95v90h-167v73zM556 170h83v151z" />
    <glyph glyph-name="onefifth" unicode="&#x2155;" horiz-adv-x="810" 
d="M22 276v80h103v205h-100v62c68 0 107 15 116 61h75v-328h93v-80h-287zM518 724l58 -25l-277 -733l-59 23zM639 75c39 0 51 28 51 60c0 44 -26 59 -53 59c-22 0 -43 -13 -43 -14l-60 49l23 179h202v-82h-123l-8 -63c12 2 24 3 35 3c74 0 117 -45 117 -127
c0 -96 -53 -145 -143 -145c-89 0 -134 51 -134 110c0 22 11 41 11 41h83s-7 -11 -7 -31c0 -23 17 -39 49 -39z" />
    <glyph glyph-name="onesixth" unicode="&#x2159;" horiz-adv-x="824" 
d="M22 276v80h103v205h-100v62c68 0 107 15 116 61h75v-328h93v-80h-287zM518 724l58 -25l-277 -733l-59 23zM646 198c-38 0 -43 -42 -43 -73c0 -23 7 -48 45 -48c30 0 43 19 43 48c0 31 -4 73 -45 73zM682 302c0 19 -14 28 -32 28c-40 0 -43 -36 -45 -80c0 -1 21 19 58 19
c86 0 121 -52 121 -135c0 -86 -46 -140 -141 -140c-83 0 -137 39 -137 149c0 184 37 271 150 271c56 0 112 -29 112 -90c0 -19 -4 -31 -4 -31h-83s1 4 1 9z" />
    <glyph glyph-name="oneeighth" unicode="&#x215b;" horiz-adv-x="853" 
d="M22 276v80h103v205h-100v62c68 0 107 15 116 61h75v-328h93v-80h-287zM518 724l58 -25l-277 -733l-59 23zM658 71c42 0 63 24 63 52c0 44 -36 56 -63 68c-26 -12 -62 -24 -62 -68c0 -27 21 -52 62 -52zM658 250c21 9 42 26 42 50c0 22 -15 39 -42 39
c-25 0 -41 -17 -41 -39c0 -24 21 -41 41 -50zM658 -6c-78 0 -151 40 -151 125c0 55 35 89 67 103c-20 12 -46 38 -46 80c0 60 43 112 130 112c88 0 131 -52 131 -112c0 -42 -26 -68 -46 -80c32 -14 67 -48 67 -103c0 -85 -73 -125 -152 -125z" />
    <glyph glyph-name="onefraction" unicode="&#x215f;" horiz-adv-x="476" 
d="M22 276v80h103v205h-100v62c68 0 107 15 116 61h75v-328h93v-80h-287zM518 724l58 -25l-277 -733l-59 23z" />
    <glyph glyph-name="twofifths" unicode="&#x2156;" horiz-adv-x="810" 
d="M198 404l-52 -48h161v-80h-279v72l86 83c73 71 86 94 86 128c0 32 -19 48 -46 48c-25 0 -37 -15 -37 -32c0 -8 3 -14 3 -14h-82s-6 14 -6 32c0 51 40 97 124 97c85 0 141 -49 141 -123c0 -46 -20 -90 -99 -163zM518 724l58 -25l-277 -733l-59 23zM639 75
c39 0 51 28 51 60c0 44 -26 59 -53 59c-22 0 -43 -13 -43 -14l-60 49l23 179h202v-82h-123l-8 -63c12 2 24 3 35 3c74 0 117 -45 117 -127c0 -96 -53 -145 -143 -145c-89 0 -134 51 -134 110c0 22 11 41 11 41h83s-7 -11 -7 -31c0 -23 17 -39 49 -39z" />
    <glyph glyph-name="threequarters" unicode="&#xbe;" horiz-adv-x="846" 
d="M56 602v82h236v-74l-77 -83s102 0 102 -122c0 -85 -61 -135 -142 -135c-71 0 -138 35 -138 110c0 24 10 41 10 41h86s-7 -12 -7 -31c0 -23 21 -37 50 -37c28 0 49 18 49 56c0 35 -20 57 -52 57c-21 0 -38 -8 -38 -8l-39 43l94 101h-134zM525 724l58 -25l-277 -733l-59 23
zM628 408h118v-238h56v-80h-56v-90h-95v90h-167v73zM568 170h83v151z" />
    <glyph glyph-name="threefifths" unicode="&#x2157;" horiz-adv-x="817" 
d="M56 602v82h236v-74l-77 -83s102 0 102 -122c0 -85 -61 -135 -142 -135c-71 0 -138 35 -138 110c0 24 10 41 10 41h86s-7 -12 -7 -31c0 -23 21 -37 50 -37c28 0 49 18 49 56c0 35 -20 57 -52 57c-21 0 -38 -8 -38 -8l-39 43l94 101h-134zM525 724l58 -25l-277 -733l-59 23
zM646 75c39 0 51 28 51 60c0 44 -26 59 -53 59c-22 0 -43 -13 -43 -14l-60 49l23 179h202v-82h-123l-8 -63c12 2 24 3 35 3c74 0 117 -45 117 -127c0 -96 -53 -145 -143 -145c-89 0 -134 51 -134 110c0 22 11 41 11 41h83s-7 -11 -7 -31c0 -23 17 -39 49 -39z" />
    <glyph glyph-name="threeeighths" unicode="&#x215c;" horiz-adv-x="860" 
d="M56 602v82h236v-74l-77 -83s102 0 102 -122c0 -85 -61 -135 -142 -135c-71 0 -138 35 -138 110c0 24 10 41 10 41h86s-7 -12 -7 -31c0 -23 21 -37 50 -37c28 0 49 18 49 56c0 35 -20 57 -52 57c-21 0 -38 -8 -38 -8l-39 43l94 101h-134zM525 724l58 -25l-277 -733l-59 23
zM657 71c42 0 63 24 63 52c0 44 -36 56 -63 68c-26 -12 -62 -24 -62 -68c0 -27 21 -52 62 -52zM657 250c21 9 42 26 42 50c0 22 -15 39 -42 39c-25 0 -41 -17 -41 -39c0 -24 21 -41 41 -50zM657 -6c-78 0 -151 40 -151 125c0 55 35 89 67 103c-20 12 -46 38 -46 80
c0 60 43 112 130 112c88 0 131 -52 131 -112c0 -42 -26 -68 -46 -80c32 -14 67 -48 67 -103c0 -85 -73 -125 -152 -125z" />
    <glyph glyph-name="fourfifths" unicode="&#x2158;" horiz-adv-x="833" 
d="M160 684h118v-238h56v-80h-56v-90h-95v90h-167v73zM100 446h83v151zM541 724l58 -25l-277 -733l-59 23zM662 75c39 0 51 28 51 60c0 44 -26 59 -53 59c-22 0 -43 -13 -43 -14l-60 49l23 179h202v-82h-123l-8 -63c12 2 24 3 35 3c74 0 117 -45 117 -127
c0 -96 -53 -145 -143 -145c-89 0 -134 51 -134 110c0 22 11 41 11 41h83s-7 -11 -7 -31c0 -23 17 -39 49 -39z" />
    <glyph glyph-name="fivesixths" unicode="&#x215a;" horiz-adv-x="818" 
d="M173 351c39 0 51 28 51 60c0 44 -26 59 -53 59c-22 0 -43 -13 -43 -14l-60 49l23 179h202v-82h-123l-8 -63c12 2 24 3 35 3c74 0 117 -45 117 -127c0 -96 -53 -145 -143 -145c-89 0 -134 51 -134 110c0 22 11 41 11 41h83s-7 -11 -7 -31c0 -23 17 -39 49 -39zM512 724
l58 -25l-277 -733l-59 23zM630 198c-38 0 -43 -42 -43 -73c0 -23 7 -48 45 -48c30 0 43 19 43 48c0 31 -4 73 -45 73zM666 302c0 19 -14 28 -32 28c-40 0 -43 -36 -45 -80c0 -1 21 19 58 19c86 0 121 -52 121 -135c0 -86 -46 -140 -141 -140c-83 0 -137 39 -137 149
c0 184 37 271 150 271c56 0 112 -29 112 -90c0 -19 -4 -31 -4 -31h-83s1 4 1 9z" />
    <glyph glyph-name="fiveeighths" unicode="&#x215d;" horiz-adv-x="847" 
d="M163 351c39 0 51 28 51 60c0 44 -26 59 -53 59c-22 0 -43 -13 -43 -14l-60 49l23 179h202v-82h-123l-8 -63c12 2 24 3 35 3c74 0 117 -45 117 -127c0 -96 -53 -145 -143 -145c-89 0 -134 51 -134 110c0 22 11 41 11 41h83s-7 -11 -7 -31c0 -23 17 -39 49 -39zM512 724
l58 -25l-277 -733l-59 23zM649 71c42 0 63 24 63 52c0 44 -36 56 -63 68c-26 -12 -62 -24 -62 -68c0 -27 21 -52 62 -52zM649 250c21 9 42 26 42 50c0 22 -15 39 -42 39c-25 0 -41 -17 -41 -39c0 -24 21 -41 41 -50zM649 -6c-78 0 -151 40 -151 125c0 55 35 89 67 103
c-20 12 -46 38 -46 80c0 60 43 112 130 112c88 0 131 -52 131 -112c0 -42 -26 -68 -46 -80c32 -14 67 -48 67 -103c0 -85 -73 -125 -152 -125z" />
    <glyph glyph-name="seveneighths" unicode="&#x215e;" horiz-adv-x="794" 
d="M182 276h-104c2 105 40 237 117 326h-165v82h260v-74c-85 -103 -107 -191 -108 -334zM459 724l58 -25l-277 -733l-59 23zM596 71c42 0 63 24 63 52c0 44 -36 56 -63 68c-26 -12 -62 -24 -62 -68c0 -27 21 -52 62 -52zM596 250c21 9 42 26 42 50c0 22 -15 39 -42 39
c-25 0 -41 -17 -41 -39c0 -24 21 -41 41 -50zM596 -6c-78 0 -151 40 -151 125c0 55 35 89 67 103c-20 12 -46 38 -46 80c0 60 43 112 130 112c88 0 131 -52 131 -112c0 -42 -26 -68 -46 -80c32 -14 67 -48 67 -103c0 -85 -73 -125 -152 -125z" />
    <glyph glyph-name="scaron" unicode="&#x161;" horiz-adv-x="444" 
d="M231 -10c-123 0 -195 57 -195 141c0 31 13 54 13 54h117s-7 -13 -7 -32c0 -35 29 -51 74 -51c42 0 69 17 69 43c0 34 -32 46 -88 60c-78 19 -168 38 -168 149c0 101 76 155 184 155c94 0 180 -44 180 -134c0 -26 -9 -47 -9 -47h-117s5 13 5 26c0 28 -24 44 -58 44
c-46 0 -65 -19 -65 -41c0 -26 30 -39 86 -52c79 -18 172 -40 172 -153c0 -108 -76 -162 -193 -162zM409 700l-107 -142h-146l-107 142h101l79 -64l79 64h101z" />
    <glyph glyph-name="yacute" unicode="&#xfd;" horiz-adv-x="492" 
d="M278 282l68 218h142l-173 -479c-57 -157 -103 -192 -189 -192c-38 0 -67 16 -67 16v115s20 -14 48 -14c43 0 62 30 78 78l2 6l-179 470h143l72 -219c12 -38 28 -91 28 -91s16 56 27 92zM437 700l-158 -148h-97l90 148h165z" />
    <glyph glyph-name="zcaron" unicode="&#x17e;" horiz-adv-x="464" 
d="M42 384l1 116h385v-104l-229 -281h235v-115h-404v104l222 280h-210zM420 700l-107 -142h-146l-107 142h101l79 -64l79 64h101z" />
    <glyph glyph-name="aacute" unicode="&#xe1;" horiz-adv-x="488" 
d="M435 300v-300h-113v36h-2c-25 -24 -69 -46 -118 -46c-112 0 -168 61 -168 152c0 117 80 147 181 159c83 10 96 22 96 54s-39 48 -73 48c-45 0 -74 -13 -74 -50c0 -14 5 -25 5 -25h-105s-12 22 -12 46c0 82 69 136 189 136c73 0 139 -26 172 -93c15 -31 22 -70 22 -117z
M429 700l-158 -148h-97l90 148h165zM312 195v29h-2c-23 -15 -50 -20 -80 -24c-52 -8 -69 -27 -69 -52c0 -29 19 -48 55 -48c68 0 96 44 96 95z" />
    <glyph glyph-name="agrave" unicode="&#xe0;" horiz-adv-x="488" 
d="M435 300v-300h-113v36h-2c-25 -24 -69 -46 -118 -46c-112 0 -168 61 -168 152c0 117 80 147 181 159c83 10 96 22 96 54s-39 48 -73 48c-45 0 -74 -13 -74 -50c0 -14 5 -25 5 -25h-105s-12 22 -12 46c0 82 69 136 189 136c73 0 139 -26 172 -93c15 -31 22 -70 22 -117z
M204 552l-158 148h165l90 -148h-97zM312 195v29h-2c-23 -15 -50 -20 -80 -24c-52 -8 -69 -27 -69 -52c0 -29 19 -48 55 -48c68 0 96 44 96 95z" />
    <glyph glyph-name="acircumflex" unicode="&#xe2;" horiz-adv-x="488" 
d="M435 300v-300h-113v36h-2c-25 -24 -69 -46 -118 -46c-112 0 -168 61 -168 152c0 117 80 147 181 159c83 10 96 22 96 54s-39 48 -73 48c-45 0 -74 -13 -74 -50c0 -14 5 -25 5 -25h-105s-12 22 -12 46c0 82 69 136 189 136c73 0 139 -26 172 -93c15 -31 22 -70 22 -117z
M317 700l107 -142h-101l-79 64l-79 -64h-101l107 142h146zM312 195v29h-2c-23 -15 -50 -20 -80 -24c-52 -8 -69 -27 -69 -52c0 -29 19 -48 55 -48c68 0 96 44 96 95z" />
    <glyph glyph-name="atilde" unicode="&#xe3;" horiz-adv-x="488" 
d="M435 300v-300h-113v36h-2c-25 -24 -69 -46 -118 -46c-112 0 -168 61 -168 152c0 117 80 147 181 159c83 10 96 22 96 54s-39 48 -73 48c-45 0 -74 -13 -74 -50c0 -14 5 -25 5 -25h-105s-12 22 -12 46c0 82 69 136 189 136c73 0 139 -26 172 -93c15 -31 22 -70 22 -117z
M312 566c-50 0 -99 41 -131 41c-13 0 -19 -6 -19 -16c0 -8 3 -19 3 -19h-70s-7 26 -7 47c0 54 36 89 84 89c51 0 95 -40 131 -40c13 0 19 5 19 15c0 9 -4 19 -4 19h71s7 -22 7 -47c0 -54 -36 -89 -84 -89zM312 195v29h-2c-23 -15 -50 -20 -80 -24c-52 -8 -69 -27 -69 -52
c0 -29 19 -48 55 -48c68 0 96 44 96 95z" />
    <glyph glyph-name="aring" unicode="&#xe5;" horiz-adv-x="488" 
d="M435 300v-300h-113v36h-2c-25 -24 -69 -46 -118 -46c-112 0 -168 61 -168 152c0 117 80 147 181 159c83 10 96 22 96 54s-39 48 -73 48c-45 0 -74 -13 -74 -50c0 -14 5 -25 5 -25h-105s-12 22 -12 46c0 82 69 136 189 136c73 0 139 -26 172 -93c15 -31 22 -70 22 -117z
M128 666c0 70 52 115 115 115c65 0 115 -45 115 -115s-52 -115 -115 -115s-115 41 -115 115zM312 195v29h-2c-23 -15 -50 -20 -80 -24c-52 -8 -69 -27 -69 -52c0 -29 19 -48 55 -48c68 0 96 44 96 95zM199 667c0 -28 19 -46 44 -46s44 18 44 46s-19 46 -44 46
s-44 -18 -44 -46z" />
    <glyph glyph-name="ccedilla" unicode="&#xe7;" horiz-adv-x="465" 
d="M325 330c0 34 -24 56 -61 56c-77 0 -105 -64 -105 -142c0 -68 33 -129 98 -129c45 0 71 25 71 67c0 15 -3 28 -3 28h102s12 -29 12 -63c0 -107 -79 -157 -174 -157c-139 0 -235 91 -235 249c0 146 84 271 238 271c86 0 166 -50 166 -146c0 -37 -11 -65 -11 -65h-101
s3 12 3 31zM194 -83v43c19 4 34 7 61 7c59 0 97 -33 97 -79c0 -48 -34 -93 -121 -93c-48 0 -96 14 -119 58l68 26c9 -16 29 -24 53 -24c32 0 44 15 44 34s-14 34 -41 34c-22 0 -42 -6 -42 -6z" />
    <glyph glyph-name="eacute" unicode="&#xe9;" horiz-adv-x="483" 
d="M265 102c52 0 65 27 65 47c0 8 -2 15 -2 15h104s8 -17 8 -42c0 -95 -96 -132 -175 -132c-158 0 -235 106 -235 250c0 143 71 270 227 270c117 0 192 -82 192 -191c0 -55 -15 -101 -15 -101h-279c1 -75 37 -116 110 -116zM250 398c-72 0 -90 -59 -90 -85h170
c5 31 -6 85 -80 85zM450 700l-158 -148h-97l90 148h165z" />
    <glyph glyph-name="egrave" unicode="&#xe8;" horiz-adv-x="483" 
d="M265 102c52 0 65 27 65 47c0 8 -2 15 -2 15h104s8 -17 8 -42c0 -95 -96 -132 -175 -132c-158 0 -235 106 -235 250c0 143 71 270 227 270c117 0 192 -82 192 -191c0 -55 -15 -101 -15 -101h-279c1 -75 37 -116 110 -116zM250 398c-72 0 -90 -59 -90 -85h170
c5 31 -6 85 -80 85zM230 552l-158 148h165l90 -148h-97z" />
    <glyph glyph-name="ecircumflex" unicode="&#xea;" horiz-adv-x="483" 
d="M265 102c52 0 65 27 65 47c0 8 -2 15 -2 15h104s8 -17 8 -42c0 -95 -96 -132 -175 -132c-158 0 -235 106 -235 250c0 143 71 270 227 270c117 0 192 -82 192 -191c0 -55 -15 -101 -15 -101h-279c1 -75 37 -116 110 -116zM250 398c-72 0 -90 -59 -90 -85h170
c5 31 -6 85 -80 85zM325 700l107 -142h-101l-79 64l-79 -64h-101l107 142h146z" />
    <glyph glyph-name="edieresis" unicode="&#xeb;" horiz-adv-x="483" 
d="M265 102c52 0 65 27 65 47c0 8 -2 15 -2 15h104s8 -17 8 -42c0 -95 -96 -132 -175 -132c-158 0 -235 106 -235 250c0 143 71 270 227 270c117 0 192 -82 192 -191c0 -55 -15 -101 -15 -101h-279c1 -75 37 -116 110 -116zM250 398c-72 0 -90 -59 -90 -85h170
c5 31 -6 85 -80 85zM74 630c0 44 37 80 82 80c44 0 80 -36 80 -80c0 -45 -36 -82 -80 -82c-45 0 -82 37 -82 82zM291 630c0 44 37 80 82 80c44 0 80 -36 80 -80c0 -45 -36 -82 -80 -82c-45 0 -82 37 -82 82z" />
    <glyph glyph-name="iacute" unicode="&#xed;" horiz-adv-x="240" 
d="M185 500v-500h-130v500h130zM318 700l-158 -148h-97l90 148h165z" />
    <glyph glyph-name="igrave" unicode="&#xec;" horiz-adv-x="240" 
d="M185 500v-500h-130v500h130zM74 552l-158 148h165l90 -148h-97z" />
    <glyph glyph-name="icircumflex" unicode="&#xee;" horiz-adv-x="240" 
d="M185 500v-500h-130v500h130zM193 700l107 -142h-101l-79 64l-79 -64h-101l107 142h146z" />
    <glyph glyph-name="idieresis" unicode="&#xef;" horiz-adv-x="240" 
d="M185 500v-500h-130v500h130zM-69 630c0 44 37 80 82 80c44 0 80 -36 80 -80c0 -45 -36 -82 -80 -82c-45 0 -82 37 -82 82zM148 630c0 44 37 80 82 80c44 0 80 -36 80 -80c0 -45 -36 -82 -80 -82c-45 0 -82 37 -82 82z" />
    <glyph glyph-name="ntilde" unicode="&#xf1;" horiz-adv-x="521" 
d="M185 281v-281h-130v500h130v-49h2c22 28 56 59 123 59c95 0 159 -79 159 -179v-331h-132v298c0 54 -26 86 -70 86c-37 0 -82 -17 -82 -103zM328 566c-50 0 -99 41 -131 41c-13 0 -19 -6 -19 -16c0 -8 3 -19 3 -19h-70s-7 26 -7 47c0 54 36 89 84 89c51 0 95 -40 131 -40
c13 0 19 5 19 15c0 9 -4 19 -4 19h71s7 -22 7 -47c0 -54 -36 -89 -84 -89z" />
    <glyph glyph-name="oacute" unicode="&#xf3;" 
d="M260 -10c-160 0 -230 114 -230 248c0 144 78 272 230 272s230 -128 230 -272c0 -134 -70 -248 -230 -248zM260 384c-70 0 -95 -57 -95 -143c0 -90 29 -126 95 -126s95 35 95 125c0 87 -25 144 -95 144zM456 700l-158 -148h-97l90 148h165z" />
    <glyph glyph-name="ograve" unicode="&#xf2;" 
d="M260 -10c-160 0 -230 114 -230 248c0 144 78 272 230 272s230 -128 230 -272c0 -134 -70 -248 -230 -248zM260 384c-70 0 -95 -57 -95 -143c0 -90 29 -126 95 -126s95 35 95 125c0 87 -25 144 -95 144zM220 552l-158 148h165l90 -148h-97z" />
    <glyph glyph-name="ocircumflex" unicode="&#xf4;" 
d="M260 -10c-160 0 -230 114 -230 248c0 144 78 272 230 272s230 -128 230 -272c0 -134 -70 -248 -230 -248zM260 384c-70 0 -95 -57 -95 -143c0 -90 29 -126 95 -126s95 35 95 125c0 87 -25 144 -95 144zM333 700l107 -142h-101l-79 64l-79 -64h-101l107 142h146z" />
    <glyph glyph-name="otilde" unicode="&#xf5;" 
d="M260 -10c-160 0 -230 114 -230 248c0 144 78 272 230 272s230 -128 230 -272c0 -134 -70 -248 -230 -248zM260 384c-70 0 -95 -57 -95 -143c0 -90 29 -126 95 -126s95 35 95 125c0 87 -25 144 -95 144zM330 566c-50 0 -99 41 -131 41c-13 0 -19 -6 -19 -16
c0 -8 3 -19 3 -19h-70s-7 26 -7 47c0 54 36 89 84 89c51 0 95 -40 131 -40c13 0 19 5 19 15c0 9 -4 19 -4 19h71s7 -22 7 -47c0 -54 -36 -89 -84 -89z" />
    <glyph glyph-name="uacute" unicode="&#xfa;" 
d="M336 219v281h129v-500h-129v49h-2c-22 -28 -56 -59 -123 -59c-95 0 -159 72 -159 169v341h132v-308c0 -50 26 -76 70 -76c37 0 82 17 82 103zM452 700l-158 -148h-97l90 148h165z" />
    <glyph glyph-name="ugrave" unicode="&#xf9;" 
d="M336 219v281h129v-500h-129v49h-2c-22 -28 -56 -59 -123 -59c-95 0 -159 72 -159 169v341h132v-308c0 -50 26 -76 70 -76c37 0 82 17 82 103zM228 552l-158 148h165l90 -148h-97z" />
    <glyph glyph-name="ucircumflex" unicode="&#xfb;" 
d="M336 219v281h129v-500h-129v49h-2c-22 -28 -56 -59 -123 -59c-95 0 -159 72 -159 169v341h132v-308c0 -50 26 -76 70 -76c37 0 82 17 82 103zM333 700l107 -142h-101l-79 64l-79 -64h-101l107 142h146z" />
    <glyph glyph-name="ydieresis" unicode="&#xff;" horiz-adv-x="492" 
d="M278 282l68 218h142l-173 -479c-57 -157 -103 -192 -189 -192c-38 0 -67 16 -67 16v115s20 -14 48 -14c43 0 62 30 78 78l2 6l-179 470h143l72 -219l28 -91c1 3 16 57 27 92zM273 630c0 44 37 80 82 80c44 0 80 -36 80 -80c0 -45 -36 -82 -80 -82c-45 0 -82 37 -82 82z
M56 630c0 44 37 80 82 80c44 0 80 -36 80 -80c0 -45 -36 -82 -80 -82c-45 0 -82 37 -82 82z" />
    <glyph glyph-name="gbreve" unicode="&#x11f;" horiz-adv-x="474" 
d="M241 125c-23 0 -44 2 -63 7c-9 -7 -17 -16 -17 -27c0 -20 34 -20 113 -26c95 -7 169 -37 169 -142c0 -91 -72 -147 -212 -147c-137 0 -212 41 -212 134c0 29 10 46 10 46h103s-5 -9 -5 -22c0 -31 28 -50 102 -50c57 0 89 11 89 43c0 22 -12 31 -89 37
c-88 6 -188 16 -188 114c0 40 29 71 48 87c-34 34 -51 80 -51 131c0 116 83 200 200 200c41 0 77 -10 108 -29l59 48l65 -84l-53 -45c12 -26 19 -57 19 -90c0 -98 -67 -185 -195 -185zM238 391c-47 0 -75 -33 -75 -79c0 -33 20 -73 75 -73c54 0 78 37 78 73
c0 50 -32 79 -78 79zM235 567c-94 0 -154 49 -154 150h92c0 -43 18 -73 62 -73s63 30 63 73h94c0 -96 -63 -150 -157 -150z" />
    <glyph glyph-name="scedilla" unicode="&#x15f;" horiz-adv-x="444" 
d="M231 -10c-123 0 -195 57 -195 141c0 31 13 54 13 54h117s-7 -13 -7 -32c0 -35 29 -51 74 -51c42 0 69 17 69 43c0 34 -32 46 -88 60c-78 19 -168 38 -168 149c0 101 76 155 184 155c94 0 180 -44 180 -134c0 -26 -9 -47 -9 -47h-117s5 13 5 26c0 28 -24 44 -58 44
c-46 0 -65 -19 -65 -41c0 -26 30 -39 86 -52c79 -18 172 -40 172 -153c0 -108 -76 -162 -193 -162zM181 -83v43c19 4 34 7 61 7c59 0 97 -33 97 -79c0 -48 -34 -93 -121 -93c-48 0 -96 14 -119 58l68 26c9 -16 29 -24 53 -24c32 0 44 15 44 34s-14 34 -41 34
c-22 0 -42 -6 -42 -6z" />
    <glyph glyph-name="amacron" unicode="&#x101;" horiz-adv-x="488" 
d="M435 300v-300h-113v36h-2c-25 -24 -69 -46 -118 -46c-112 0 -168 61 -168 152c0 117 80 147 181 159c83 10 96 22 96 54s-39 48 -73 48c-45 0 -74 -13 -74 -50c0 -14 5 -25 5 -25h-105s-12 22 -12 46c0 82 69 136 189 136c73 0 139 -26 172 -93c15 -31 22 -70 22 -117z
M97 600v80h283v-80h-283zM312 195v29h-2c-23 -15 -50 -20 -80 -24c-52 -8 -69 -27 -69 -52c0 -29 19 -48 55 -48c68 0 96 44 96 95z" />
    <glyph glyph-name="aogonek" unicode="&#x105;" horiz-adv-x="488" 
d="M341 -16c21 5 33 16 33 16h-52v36h-2c-25 -24 -69 -46 -118 -46c-112 0 -168 61 -168 152c0 117 80 147 181 159c83 10 96 22 96 54s-39 48 -73 48c-45 0 -74 -13 -74 -50c0 -14 5 -25 5 -25h-105s-12 22 -12 46c0 82 69 136 189 136c73 0 139 -26 172 -93
c15 -31 22 -70 22 -117v-300c0 -31 -31 -47 -53 -54c-27 -8 -46 -22 -46 -45c0 -21 14 -33 36 -33c25 0 42 10 47 39l69 -17c-1 -35 -30 -90 -114 -90c-87 0 -118 47 -118 95c0 50 40 79 85 89zM312 195v29h-2c-23 -15 -50 -20 -80 -24c-52 -8 -69 -27 -69 -52
c0 -29 19 -48 55 -48c68 0 96 44 96 95z" />
    <glyph glyph-name="ccaron" unicode="&#x10d;" horiz-adv-x="465" 
d="M325 330c0 34 -24 56 -61 56c-77 0 -105 -64 -105 -142c0 -68 33 -129 98 -129c45 0 71 25 71 67c0 15 -3 28 -3 28h102s12 -29 12 -63c0 -107 -79 -157 -174 -157c-139 0 -235 91 -235 249c0 146 84 271 238 271c86 0 166 -50 166 -146c0 -37 -11 -65 -11 -65h-101
s3 12 3 31zM440 700l-107 -142h-146l-107 142h101l79 -64l79 64h101z" />
    <glyph glyph-name="cacute" unicode="&#x107;" horiz-adv-x="465" 
d="M325 330c0 34 -24 56 -61 56c-77 0 -105 -64 -105 -142c0 -68 33 -129 98 -129c45 0 71 25 71 67c0 15 -3 28 -3 28h102s12 -29 12 -63c0 -107 -79 -157 -174 -157c-139 0 -235 91 -235 249c0 146 84 271 238 271c86 0 166 -50 166 -146c0 -37 -11 -65 -11 -65h-101
s3 12 3 31zM457 700l-158 -148h-97l90 148h165z" />
    <glyph glyph-name="zacute" unicode="&#x17a;" horiz-adv-x="464" 
d="M42 384l1 116h385v-104l-229 -281h235v-115h-404v104l222 280h-210zM422 700l-158 -148h-97l90 148h165z" />
    <glyph glyph-name="dcaron" unicode="&#x10f;" horiz-adv-x="624" 
d="M469 722v-722h-120v42h-2c-20 -24 -65 -52 -120 -52c-95 0 -197 77 -197 261c0 154 83 259 190 259c55 0 94 -18 117 -43h2v255h130zM252 384c-60 0 -99 -48 -99 -143c0 -90 48 -126 99 -126c52 0 93 45 93 124c0 96 -38 145 -93 145zM521 722h101l-41 -189h-88z" />
    <glyph glyph-name="emacron" unicode="&#x113;" horiz-adv-x="483" 
d="M265 102c52 0 65 27 65 47c0 8 -2 15 -2 15h104s8 -17 8 -42c0 -95 -96 -132 -175 -132c-158 0 -235 106 -235 250c0 143 71 270 227 270c117 0 192 -82 192 -191c0 -55 -15 -101 -15 -101h-279c1 -75 37 -116 110 -116zM250 398c-72 0 -90 -59 -90 -85h170
c5 31 -6 85 -80 85zM113 600v80h283v-80h-283z" />
    <glyph glyph-name="edotaccent" unicode="&#x117;" horiz-adv-x="483" 
d="M265 102c52 0 65 27 65 47c0 8 -2 15 -2 15h104s8 -17 8 -42c0 -95 -96 -132 -175 -132c-158 0 -235 106 -235 250c0 143 71 270 227 270c117 0 192 -82 192 -191c0 -55 -15 -101 -15 -101h-279c1 -75 37 -116 110 -116zM250 398c-72 0 -90 -59 -90 -85h170
c5 31 -6 85 -80 85zM176 631c0 44 37 79 80 79c44 0 79 -35 79 -79c0 -43 -35 -80 -79 -80c-43 0 -80 37 -80 80z" />
    <glyph glyph-name="ecaron" unicode="&#x11b;" horiz-adv-x="483" 
d="M265 102c52 0 65 27 65 47c0 8 -2 15 -2 15h104s8 -17 8 -42c0 -95 -96 -132 -175 -132c-158 0 -235 106 -235 250c0 143 71 270 227 270c117 0 192 -82 192 -191c0 -55 -15 -101 -15 -101h-279c1 -75 37 -116 110 -116zM250 398c-72 0 -90 -59 -90 -85h170
c5 31 -6 85 -80 85zM431 700l-107 -142h-146l-107 142h101l79 -64l79 64h101z" />
    <glyph glyph-name="eogonek" unicode="&#x119;" horiz-adv-x="483" 
d="M238 -16l17 6c-151 5 -225 109 -225 250c0 143 71 270 227 270c117 0 192 -82 192 -191c0 -55 -15 -101 -15 -101h-279c1 -75 37 -116 110 -116c52 0 65 27 65 47c0 8 -2 15 -2 15h104s8 -17 8 -42c0 -69 -51 -107 -108 -123c-1 -30 -31 -46 -53 -53
c-27 -8 -46 -22 -46 -45c0 -21 14 -33 36 -33c25 0 42 10 47 39l69 -17c-1 -35 -30 -90 -114 -90c-87 0 -118 47 -118 95c0 50 40 79 85 89zM250 398c-72 0 -90 -59 -90 -85h170c5 31 -6 85 -80 85z" />
    <glyph glyph-name="gcommaaccent" unicode="&#x123;" horiz-adv-x="474" 
d="M241 125c-23 0 -44 2 -63 7c-9 -7 -17 -16 -17 -27c0 -20 34 -20 113 -26c95 -7 169 -37 169 -142c0 -91 -72 -147 -212 -147c-137 0 -212 41 -212 134c0 29 10 46 10 46h103s-5 -9 -5 -22c0 -31 28 -50 102 -50c57 0 89 11 89 43c0 22 -12 31 -89 37
c-88 6 -188 16 -188 114c0 40 29 71 48 87c-34 34 -51 80 -51 131c0 116 83 200 200 200c41 0 77 -10 108 -29l59 48l65 -84l-53 -45c12 -26 19 -57 19 -90c0 -98 -67 -185 -195 -185zM238 391c-47 0 -75 -33 -75 -79c0 -33 20 -73 75 -73c54 0 78 37 78 73
c0 50 -32 79 -78 79zM285 576h-108l49 180h95z" />
    <glyph glyph-name="iogonek" unicode="&#x12f;" horiz-adv-x="239" 
d="M90 -16c21 5 33 16 33 16h-68v500h129v-500c0 -31 -31 -47 -53 -54c-27 -8 -46 -22 -46 -45c0 -21 14 -33 36 -33c25 0 42 10 47 39l69 -17c-1 -35 -30 -90 -114 -90c-87 0 -118 47 -118 95c0 50 40 79 85 89zM30 644c0 50 40 90 90 90s90 -40 90 -90s-40 -90 -90 -90
s-90 40 -90 90z" />
    <glyph glyph-name="imacron" unicode="&#x12b;" horiz-adv-x="240" 
d="M185 500v-500h-130v500h130zM-21 600v80h283v-80h-283z" />
    <glyph glyph-name="dcroat" unicode="&#x111;" horiz-adv-x="524" 
d="M125 563v81h214v78h130v-78h65v-81h-65v-563h-120v42h-2c-20 -24 -65 -52 -120 -52c-95 0 -197 77 -197 261c0 154 83 259 190 259c55 0 94 -18 117 -43h2v96h-214zM252 384c-60 0 -99 -48 -99 -143c0 -90 48 -126 99 -126c52 0 93 45 93 124c0 96 -38 145 -93 145z" />
    <glyph glyph-name="lcommaaccent" unicode="&#x13c;" horiz-adv-x="239" 
d="M184 0h-129v722h129v-722zM65 -66h108l-52 -189h-95z" />
    <glyph glyph-name="lcaron" unicode="&#x13e;" horiz-adv-x="339" 
d="M184 0h-129v722h129v-722zM236 722h101l-41 -189h-88z" />
    <glyph glyph-name="lacute" unicode="&#x13a;" horiz-adv-x="239" 
d="M184 0h-129v722h129v-722zM304 900l-142 -138h-97l74 138h165z" />
    <glyph glyph-name="ncommaaccent" unicode="&#x146;" horiz-adv-x="521" 
d="M185 281v-281h-130v500h130v-49h2c22 28 56 59 123 59c95 0 159 -79 159 -179v-331h-132v298c0 54 -26 86 -70 86c-37 0 -82 -17 -82 -103zM213 -66h108l-52 -189h-95z" />
    <glyph glyph-name="nacute" unicode="&#x144;" horiz-adv-x="521" 
d="M185 281v-281h-130v500h130v-49h2c22 28 56 59 123 59c95 0 159 -79 159 -179v-331h-132v298c0 54 -26 86 -70 86c-37 0 -82 -17 -82 -103zM438 700l-158 -148h-97l90 148h165z" />
    <glyph glyph-name="ncaron" unicode="&#x148;" horiz-adv-x="521" 
d="M185 281v-281h-130v500h130v-49h2c22 28 56 59 123 59c95 0 159 -79 159 -179v-331h-132v298c0 54 -26 86 -70 86c-37 0 -82 -17 -82 -103zM436 700l-107 -142h-146l-107 142h101l79 -64l79 64h101z" />
    <glyph glyph-name="ohungarumlaut" unicode="&#x151;" 
d="M260 -10c-160 0 -230 114 -230 248c0 144 78 272 230 272s230 -128 230 -272c0 -134 -70 -248 -230 -248zM260 384c-70 0 -95 -57 -95 -143c0 -90 29 -126 95 -126s95 35 95 125c0 87 -25 144 -95 144zM344 700l-142 -128h-108l101 128h149zM534 700l-142 -128h-108
l101 128h149z" />
    <glyph glyph-name="omacron" unicode="&#x14d;" 
d="M260 -10c-160 0 -230 114 -230 248c0 144 78 272 230 272s230 -128 230 -272c0 -134 -70 -248 -230 -248zM260 384c-70 0 -95 -57 -95 -143c0 -90 29 -126 95 -126s95 35 95 125c0 87 -25 144 -95 144zM118 600v80h283v-80h-283z" />
    <glyph glyph-name="racute" unicode="&#x155;" horiz-adv-x="420" 
d="M294 510c68 0 121 -45 121 -115c0 -54 -14 -92 -14 -92h-107s5 16 5 33c0 38 -16 54 -49 54c-31 0 -64 -23 -64 -109v-281h-131v500h131v-41h2c27 30 58 51 106 51zM382 700l-158 -148h-97l90 148h165z" />
    <glyph glyph-name="rcaron" unicode="&#x159;" horiz-adv-x="420" 
d="M294 510c68 0 121 -45 121 -115c0 -54 -14 -92 -14 -92h-107s5 16 5 33c0 38 -16 54 -49 54c-31 0 -64 -23 -64 -109v-281h-131v500h131v-41h2c27 30 58 51 106 51zM390 700l-107 -142h-146l-107 142h101l79 -64l79 64h101z" />
    <glyph glyph-name="rcommaaccent" unicode="&#x157;" horiz-adv-x="420" 
d="M294 510c68 0 121 -45 121 -115c0 -54 -14 -92 -14 -92h-107s5 16 5 33c0 38 -16 54 -49 54c-31 0 -64 -23 -64 -109v-281h-131v500h131v-41h2c27 30 58 51 106 51zM63 -66h108l-52 -189h-95z" />
    <glyph glyph-name="sacute" unicode="&#x15b;" horiz-adv-x="444" 
d="M231 -10c-123 0 -195 57 -195 141c0 31 13 54 13 54h117s-7 -13 -7 -32c0 -35 29 -51 74 -51c42 0 69 17 69 43c0 34 -32 46 -88 60c-78 19 -168 38 -168 149c0 101 76 155 184 155c94 0 180 -44 180 -134c0 -26 -9 -47 -9 -47h-117s5 13 5 26c0 28 -24 44 -58 44
c-46 0 -65 -19 -65 -41c0 -26 30 -39 86 -52c79 -18 172 -40 172 -153c0 -108 -76 -162 -193 -162zM420 700l-158 -148h-97l90 148h165z" />
    <glyph glyph-name="tcaron" unicode="&#x165;" horiz-adv-x="363" 
d="M75 155v229h-65v116h65v120h126v-120h136v-116h-136v-181c0 -81 4 -95 28 -95c16 0 22 9 22 26c0 9 -3 18 -3 18h94s7 -18 7 -44c0 -82 -57 -118 -128 -118c-98 0 -146 51 -146 165zM259 731h101l-41 -189h-88z" />
    <glyph glyph-name="umacron" unicode="&#x16b;" 
d="M336 219v281h129v-500h-129v49h-2c-22 -28 -56 -59 -123 -59c-95 0 -159 72 -159 169v341h132v-308c0 -50 26 -76 70 -76c37 0 82 17 82 103zM118 600v80h283v-80h-283z" />
    <glyph glyph-name="uring" unicode="&#x16f;" 
d="M336 219v281h129v-500h-129v49h-2c-22 -28 -56 -59 -123 -59c-95 0 -159 72 -159 169v341h132v-308c0 -50 26 -76 70 -76c37 0 82 17 82 103zM145 666c0 70 52 115 115 115c65 0 115 -45 115 -115s-52 -115 -115 -115s-115 41 -115 115zM216 667c0 -28 19 -46 44 -46
s44 18 44 46s-19 46 -44 46s-44 -18 -44 -46z" />
    <glyph glyph-name="uhungarumlaut" unicode="&#x171;" 
d="M336 219v281h129v-500h-129v49h-2c-22 -28 -56 -59 -123 -59c-95 0 -159 72 -159 169v341h132v-308c0 -50 26 -76 70 -76c37 0 82 17 82 103zM346 700l-142 -128h-108l101 128h149zM536 700l-142 -128h-108l101 128h149z" />
    <glyph glyph-name="uogonek" unicode="&#x173;" 
d="M371 -16c21 5 33 16 33 16h-68v49h-2c-22 -28 -56 -59 -123 -59c-95 0 -159 72 -159 169v341h132v-308c0 -50 26 -76 70 -76c37 0 82 17 82 103v281h129v-500c0 -31 -31 -47 -53 -54c-27 -8 -46 -22 -46 -45c0 -21 14 -33 36 -33c25 0 42 10 47 39l69 -17
c-1 -35 -30 -90 -114 -90c-87 0 -118 47 -118 95c0 50 40 79 85 89z" />
    <glyph glyph-name="kcommaaccent" unicode="&#x137;" horiz-adv-x="492" 
d="M185 722v-398l143 176h158l-190 -222l196 -278h-154l-153 222v-222h-130v722h130zM211 -66h108l-52 -189h-95z" />
    <glyph glyph-name="zdotaccent" unicode="&#x17c;" horiz-adv-x="464" 
d="M42 384l1 116h385v-104l-229 -281h235v-115h-404v104l222 280h-210zM152 631c0 44 37 79 80 79c44 0 79 -35 79 -79c0 -43 -35 -80 -79 -80c-43 0 -80 37 -80 80z" />
    <glyph glyph-name="tcedilla" unicode="&#x21b;" horiz-adv-x="363" 
d="M75 155v229h-65v116h65v120h126v-120h136v-116h-136v-181c0 -81 4 -95 28 -95c16 0 22 9 22 26c0 9 -3 18 -3 18h94s7 -18 7 -44c0 -82 -57 -118 -128 -118c-98 0 -146 51 -146 165zM143 -83v43c19 4 34 7 61 7c59 0 97 -33 97 -79c0 -48 -34 -93 -121 -93
c-48 0 -96 14 -119 58l68 26c9 -16 29 -24 53 -24c32 0 44 15 44 34s-14 34 -41 34c-22 0 -42 -6 -42 -6z" />
    <glyph glyph-name="abreve" unicode="&#x103;" horiz-adv-x="488" 
d="M435 300v-300h-113v36h-2c-25 -24 -69 -46 -118 -46c-112 0 -168 61 -168 152c0 117 80 147 181 159c83 10 96 22 96 54s-39 48 -73 48c-45 0 -74 -13 -74 -50c0 -14 5 -25 5 -25h-105s-12 22 -12 46c0 82 69 136 189 136c73 0 139 -26 172 -93c15 -31 22 -70 22 -117z
M239 567c-94 0 -154 49 -154 150h92c0 -43 18 -73 62 -73s63 30 63 73h94c0 -96 -63 -150 -157 -150zM312 195v29h-2c-23 -15 -50 -20 -80 -24c-52 -8 -69 -27 -69 -52c0 -29 19 -48 55 -48c68 0 96 44 96 95z" />
    <glyph glyph-name="acaron" unicode="&#x1ce;" horiz-adv-x="488" 
d="M435 300v-300h-113v36h-2c-25 -24 -69 -46 -118 -46c-112 0 -168 61 -168 152c0 117 80 147 181 159c83 10 96 22 96 54s-39 48 -73 48c-45 0 -74 -13 -74 -50c0 -14 5 -25 5 -25h-105s-12 22 -12 46c0 82 69 136 189 136c73 0 139 -26 172 -93c15 -31 22 -70 22 -117z
M424 700l-107 -142h-146l-107 142h101l79 -64l79 64h101zM312 195v29h-2c-23 -15 -50 -20 -80 -24c-52 -8 -69 -27 -69 -52c0 -29 19 -48 55 -48c68 0 96 44 96 95z" />
    <glyph glyph-name="adotaccent" unicode="&#x227;" horiz-adv-x="488" 
d="M435 300v-300h-113v36h-2c-25 -24 -69 -46 -118 -46c-112 0 -168 61 -168 152c0 117 80 147 181 159c83 10 96 22 96 54s-39 48 -73 48c-45 0 -74 -13 -74 -50c0 -14 5 -25 5 -25h-105s-12 22 -12 46c0 82 69 136 189 136c73 0 139 -26 172 -93c15 -31 22 -70 22 -117z
M163 631c0 44 37 79 80 79c44 0 79 -35 79 -79c0 -43 -35 -80 -79 -80c-43 0 -80 37 -80 80zM312 195v29h-2c-23 -15 -50 -20 -80 -24c-52 -8 -69 -27 -69 -52c0 -29 19 -48 55 -48c68 0 96 44 96 95z" />
    <glyph glyph-name="ccircumflex" unicode="&#x109;" horiz-adv-x="465" 
d="M325 330c0 34 -24 56 -61 56c-77 0 -105 -64 -105 -142c0 -68 33 -129 98 -129c45 0 71 25 71 67c0 15 -3 28 -3 28h102s12 -29 12 -63c0 -107 -79 -157 -174 -157c-139 0 -235 91 -235 249c0 146 84 271 238 271c86 0 166 -50 166 -146c0 -37 -11 -65 -11 -65h-101
s3 12 3 31zM343 700l107 -142h-101l-79 64l-79 -64h-101l107 142h146z" />
    <glyph glyph-name="cdotaccent" unicode="&#x10b;" horiz-adv-x="465" 
d="M325 330c0 34 -24 56 -61 56c-77 0 -105 -64 -105 -142c0 -68 33 -129 98 -129c45 0 71 25 71 67c0 15 -3 28 -3 28h102s12 -29 12 -63c0 -107 -79 -157 -174 -157c-139 0 -235 91 -235 249c0 146 84 271 238 271c86 0 166 -50 166 -146c0 -37 -11 -65 -11 -65h-101
s3 12 3 31zM183 631c0 44 37 79 80 79c44 0 79 -35 79 -79c0 -43 -35 -80 -79 -80c-43 0 -80 37 -80 80z" />
    <glyph glyph-name="ebreve" unicode="&#x115;" horiz-adv-x="483" 
d="M265 102c52 0 65 27 65 47c0 8 -2 15 -2 15h104s8 -17 8 -42c0 -95 -96 -132 -175 -132c-158 0 -235 106 -235 250c0 143 71 270 227 270c117 0 192 -82 192 -191c0 -55 -15 -101 -15 -101h-279c1 -75 37 -116 110 -116zM250 398c-72 0 -90 -59 -90 -85h170
c5 31 -6 85 -80 85zM249 567c-94 0 -154 49 -154 150h92c0 -43 18 -73 62 -73s63 30 63 73h94c0 -96 -63 -150 -157 -150z" />
    <glyph glyph-name="gcircumflex" unicode="&#x11d;" horiz-adv-x="474" 
d="M241 125c-23 0 -44 2 -63 7c-9 -7 -17 -16 -17 -27c0 -20 34 -20 113 -26c95 -7 169 -37 169 -142c0 -91 -72 -147 -212 -147c-137 0 -212 41 -212 134c0 29 10 46 10 46h103s-5 -9 -5 -22c0 -31 28 -50 102 -50c57 0 89 11 89 43c0 22 -12 31 -89 37
c-88 6 -188 16 -188 114c0 40 29 71 48 87c-34 34 -51 80 -51 131c0 116 83 200 200 200c41 0 77 -10 108 -29l59 48l65 -84l-53 -45c12 -26 19 -57 19 -90c0 -98 -67 -185 -195 -185zM238 391c-47 0 -75 -33 -75 -79c0 -33 20 -73 75 -73c54 0 78 37 78 73
c0 50 -32 79 -78 79zM314 700l107 -142h-101l-79 64l-79 -64h-101l107 142h146z" />
    <glyph glyph-name="gtilde" unicode="&#xf11c;" horiz-adv-x="474" 
d="M241 125c-23 0 -44 2 -63 7c-9 -7 -17 -16 -17 -27c0 -20 34 -20 113 -26c95 -7 169 -37 169 -142c0 -91 -72 -147 -212 -147c-137 0 -212 41 -212 134c0 29 10 46 10 46h103s-5 -9 -5 -22c0 -31 28 -50 102 -50c57 0 89 11 89 43c0 22 -12 31 -89 37
c-88 6 -188 16 -188 114c0 40 29 71 48 87c-34 34 -51 80 -51 131c0 116 83 200 200 200c41 0 77 -10 108 -29l59 48l65 -84l-53 -45c12 -26 19 -57 19 -90c0 -98 -67 -185 -195 -185zM238 391c-47 0 -75 -33 -75 -79c0 -33 20 -73 75 -73c54 0 78 37 78 73
c0 50 -32 79 -78 79zM307 566c-50 0 -99 41 -131 41c-13 0 -19 -6 -19 -16c0 -8 3 -19 3 -19h-70s-7 26 -7 47c0 54 36 89 84 89c51 0 95 -40 131 -40c13 0 19 5 19 15c0 9 -4 19 -4 19h71s7 -22 7 -47c0 -54 -36 -89 -84 -89z" />
    <glyph glyph-name="gdotaccent" unicode="&#x121;" horiz-adv-x="474" 
d="M241 125c-23 0 -44 2 -63 7c-9 -7 -17 -16 -17 -27c0 -20 34 -20 113 -26c95 -7 169 -37 169 -142c0 -91 -72 -147 -212 -147c-137 0 -212 41 -212 134c0 29 10 46 10 46h103s-5 -9 -5 -22c0 -31 28 -50 102 -50c57 0 89 11 89 43c0 22 -12 31 -89 37
c-88 6 -188 16 -188 114c0 40 29 71 48 87c-34 34 -51 80 -51 131c0 116 83 200 200 200c41 0 77 -10 108 -29l59 48l65 -84l-53 -45c12 -26 19 -57 19 -90c0 -98 -67 -185 -195 -185zM238 391c-47 0 -75 -33 -75 -79c0 -33 20 -73 75 -73c54 0 78 37 78 73
c0 50 -32 79 -78 79zM157 631c0 44 37 79 80 79c44 0 79 -35 79 -79c0 -43 -35 -80 -79 -80c-43 0 -80 37 -80 80z" />
    <glyph glyph-name="hbar" unicode="&#x127;" horiz-adv-x="522" 
d="M-10 563v81h65v78h131v-78h213v-81h-213v-96c23 22 63 43 110 43c117 0 174 -75 174 -198v-312h-130v288c0 73 -29 96 -71 96c-44 0 -84 -30 -84 -103v-281h-130v563h-65z" />
    <glyph glyph-name="hcircumflex" unicode="&#x125;" horiz-adv-x="522" 
d="M185 0h-130v722h131v-255c23 22 63 43 110 43c117 0 174 -75 174 -198v-312h-130v288c0 73 -29 96 -71 96c-44 0 -84 -30 -84 -103v-281zM192 890l107 -142h-101l-79 64l-79 -64h-101l107 142h146z" />
    <glyph glyph-name="ij" unicode="&#x133;" horiz-adv-x="488" 
d="M184 0h-129v500h129v-500zM30 644c0 50 40 90 90 90s90 -40 90 -90s-40 -90 -90 -90s-90 40 -90 90zM433 500v-498c0 -159 -52 -212 -146 -212c-92 0 -133 50 -133 116c0 29 8 46 8 46h97s-3 -7 -3 -17c0 -15 3 -27 23 -27c21 0 25 12 25 73v519h129zM285 644
c0 50 40 90 90 90s90 -40 90 -90s-40 -90 -90 -90s-90 40 -90 90z" />
    <glyph glyph-name="ibreve" unicode="&#x12d;" horiz-adv-x="240" 
d="M185 500v-500h-130v500h130zM118 567c-94 0 -154 49 -154 150h92c0 -43 18 -73 62 -73s63 30 63 73h94c0 -96 -63 -150 -157 -150z" />
    <glyph glyph-name="itilde" unicode="&#x129;" horiz-adv-x="240" 
d="M185 500v-500h-130v500h130zM190 566c-50 0 -99 41 -131 41c-13 0 -19 -6 -19 -16c0 -8 3 -19 3 -19h-70s-7 26 -7 47c0 54 36 89 84 89c51 0 95 -40 131 -40c13 0 19 5 19 15c0 9 -4 19 -4 19h71s7 -22 7 -47c0 -54 -36 -89 -84 -89z" />
    <glyph glyph-name="kgreenlandic" unicode="&#x138;" horiz-adv-x="492" 
d="M185 500v-176l143 176h158l-190 -222l196 -278h-154l-153 222v-222h-130v500h130z" />
    <glyph glyph-name="ldot" unicode="&#x140;" horiz-adv-x="386" 
d="M184 0h-129v722h129v-722zM220 374c0 50 42 93 93 93s93 -43 93 -93c0 -51 -42 -93 -93 -93s-93 42 -93 93z" />
    <glyph glyph-name="mcircumflex" unicode="&#xf117;" horiz-adv-x="762" 
d="M294 510c59 0 99 -31 119 -68c26 38 69 68 126 68c109 0 171 -78 171 -196v-314h-130v291c0 64 -23 93 -66 93s-66 -37 -66 -91v-293h-129v291c0 64 -23 93 -68 93c-44 0 -67 -38 -67 -87v-297h-129v500h125v-47h2c13 20 51 57 112 57zM454 700l107 -142h-101l-79 64
l-79 -64h-101l107 142h146z" />
    <glyph glyph-name="ncircumflex" unicode="&#xf128;" horiz-adv-x="521" 
d="M185 281v-281h-130v500h130v-49h2c22 28 56 59 123 59c95 0 159 -79 159 -179v-331h-132v298c0 54 -26 86 -70 86c-37 0 -82 -17 -82 -103zM332 700l107 -142h-101l-79 64l-79 -64h-101l107 142h146z" />
    <glyph glyph-name="ndieresis" unicode="&#xf12d;" horiz-adv-x="521" 
d="M185 281v-281h-130v500h130v-49h2c22 28 56 59 123 59c95 0 159 -79 159 -179v-331h-132v298c0 54 -26 86 -70 86c-37 0 -82 -17 -82 -103zM60 630c0 44 37 80 82 80c44 0 80 -36 80 -80c0 -45 -36 -82 -80 -82c-45 0 -82 37 -82 82zM277 630c0 44 37 80 82 80
c44 0 80 -36 80 -80c0 -45 -36 -82 -80 -82c-45 0 -82 37 -82 82z" />
    <glyph glyph-name="eng" unicode="&#x14b;" horiz-adv-x="521" 
d="M185 281v-281h-130v500h130v-49h2c22 28 56 59 123 59c95 0 159 -79 159 -179v-329c0 -159 -52 -212 -146 -212c-92 0 -133 50 -133 116c0 29 8 46 8 46h97s-3 -7 -3 -17c0 -15 3 -27 23 -27c19 0 22 12 22 73v317c0 54 -26 86 -70 86c-37 0 -82 -17 -82 -103z" />
    <glyph glyph-name="obreve" unicode="&#x14f;" 
d="M260 -10c-160 0 -230 114 -230 248c0 144 78 272 230 272s230 -128 230 -272c0 -134 -70 -248 -230 -248zM260 384c-70 0 -95 -57 -95 -143c0 -90 29 -126 95 -126s95 35 95 125c0 87 -25 144 -95 144zM258 567c-94 0 -154 49 -154 150h92c0 -43 18 -73 62 -73
s63 30 63 73h94c0 -96 -63 -150 -157 -150z" />
    <glyph glyph-name="odotaccent" unicode="&#x22f;" 
d="M260 -10c-160 0 -230 114 -230 248c0 144 78 272 230 272s230 -128 230 -272c0 -134 -70 -248 -230 -248zM260 384c-70 0 -95 -57 -95 -143c0 -90 29 -126 95 -126s95 35 95 125c0 87 -25 144 -95 144zM180 631c0 44 37 79 80 79c44 0 79 -35 79 -79
c0 -43 -35 -80 -79 -80c-43 0 -80 37 -80 80z" />
    <glyph glyph-name="scircumflex" unicode="&#x15d;" horiz-adv-x="444" 
d="M231 -10c-123 0 -195 57 -195 141c0 31 13 54 13 54h117s-7 -13 -7 -32c0 -35 29 -51 74 -51c42 0 69 17 69 43c0 34 -32 46 -88 60c-78 19 -168 38 -168 149c0 101 76 155 184 155c94 0 180 -44 180 -134c0 -26 -9 -47 -9 -47h-117s5 13 5 26c0 28 -24 44 -58 44
c-46 0 -65 -19 -65 -41c0 -26 30 -39 86 -52c79 -18 172 -40 172 -153c0 -108 -76 -162 -193 -162zM315 700l107 -142h-101l-79 64l-79 -64h-101l107 142h146z" />
    <glyph glyph-name="scommaaccent" unicode="&#x219;" horiz-adv-x="444" 
d="M231 -10c-123 0 -195 57 -195 141c0 31 13 54 13 54h117s-7 -13 -7 -32c0 -35 29 -51 74 -51c42 0 69 17 69 43c0 34 -32 46 -88 60c-78 19 -168 38 -168 149c0 101 76 155 184 155c94 0 180 -44 180 -134c0 -26 -9 -47 -9 -47h-117s5 13 5 26c0 28 -24 44 -58 44
c-46 0 -65 -19 -65 -41c0 -26 30 -39 86 -52c79 -18 172 -40 172 -153c0 -108 -76 -162 -193 -162zM186 -66h108l-52 -189h-95z" />
    <glyph glyph-name="tcommaaccent" unicode="&#x163;" horiz-adv-x="363" 
d="M75 155v229h-65v116h65v120h126v-120h136v-116h-136v-181c0 -81 4 -95 28 -95c16 0 22 9 22 26c0 9 -3 18 -3 18h94s7 -18 7 -44c0 -82 -57 -118 -128 -118c-98 0 -146 51 -146 165zM147 -66h108l-52 -189h-95z" />
    <glyph glyph-name="tbar" unicode="&#x167;" horiz-adv-x="363" 
d="M10 238v92h65v54h-65v116h65v120h126v-120h136v-116h-136v-54h136v-92h-136v-35c0 -81 4 -95 28 -95c16 0 22 9 22 26c0 9 -3 18 -3 18h94s7 -18 7 -44c0 -82 -57 -118 -128 -118c-98 0 -146 51 -146 165v83h-65z" />
    <glyph glyph-name="ubreve" unicode="&#x16d;" 
d="M336 219v281h129v-500h-129v49h-2c-22 -28 -56 -59 -123 -59c-95 0 -159 72 -159 169v341h132v-308c0 -50 26 -76 70 -76c37 0 82 17 82 103zM258 567c-94 0 -154 49 -154 150h92c0 -43 18 -73 62 -73s63 30 63 73h94c0 -96 -63 -150 -157 -150z" />
    <glyph glyph-name="utilde" unicode="&#x169;" 
d="M336 219v281h129v-500h-129v49h-2c-22 -28 -56 -59 -123 -59c-95 0 -159 72 -159 169v341h132v-308c0 -50 26 -76 70 -76c37 0 82 17 82 103zM330 566c-50 0 -99 41 -131 41c-13 0 -19 -6 -19 -16c0 -8 3 -19 3 -19h-70s-7 26 -7 47c0 54 36 89 84 89
c51 0 95 -40 131 -40c13 0 19 5 19 15c0 9 -4 19 -4 19h71s7 -22 7 -47c0 -54 -36 -89 -84 -89z" />
    <glyph glyph-name="wgrave" unicode="&#x1e81;" horiz-adv-x="731" 
d="M308 500h115l63 -243c8 -32 19 -81 19 -81s10 48 18 81l56 243h137l-143 -500h-130l-61 223l-17 65l-16 -65l-61 -223h-130l-143 500h137l56 -243c7 -32 18 -81 18 -81s12 48 20 81zM313 552l-158 148h165l90 -148h-97z" />
    <glyph glyph-name="wacute" unicode="&#x1e83;" horiz-adv-x="731" 
d="M308 500h115l63 -243c7 -30 17 -74 19 -80c1 4 10 48 18 80l56 243h137l-143 -500h-130l-61 223l-17 65l-16 -65l-61 -223h-130l-143 500h137l56 -243c7 -32 18 -81 18 -81s12 48 20 81zM577 700l-158 -148h-97l90 148h165z" />
    <glyph glyph-name="wcircumflex" unicode="&#x175;" horiz-adv-x="731" 
d="M308 500h115l63 -243c7 -30 17 -74 19 -80c1 4 10 48 18 80l56 243h137l-143 -500h-130l-61 223l-17 65l-16 -65l-61 -223h-130l-143 500h137l56 -243c7 -32 18 -81 18 -81s12 48 20 81zM438 700l107 -142h-101l-79 64l-79 -64h-101l107 142h146z" />
    <glyph glyph-name="wdieresis" unicode="&#x1e85;" horiz-adv-x="731" 
d="M308 500h115l63 -243c8 -32 19 -81 19 -81s10 48 18 81l56 243h137l-143 -500h-130l-61 223l-17 65l-16 -65l-61 -223h-130l-143 500h137l56 -243c7 -32 18 -81 18 -81s12 48 20 81zM393 630c0 44 37 80 82 80c44 0 80 -36 80 -80c0 -45 -36 -82 -80 -82
c-45 0 -82 37 -82 82zM176 630c0 44 37 80 82 80c44 0 80 -36 80 -80c0 -45 -36 -82 -80 -82c-45 0 -82 37 -82 82z" />
    <glyph glyph-name="ygrave" unicode="&#x1ef3;" horiz-adv-x="492" 
d="M278 282l68 218h142l-173 -479c-57 -157 -103 -192 -189 -192c-38 0 -67 16 -67 16v115s20 -14 48 -14c43 0 62 30 78 78l2 6l-179 470h143l72 -219c12 -38 28 -91 28 -91s16 56 27 92zM211 552l-158 148h165l90 -148h-97z" />
    <glyph glyph-name="ycircumflex" unicode="&#x177;" horiz-adv-x="492" 
d="M278 282l68 218h142l-173 -479c-57 -157 -103 -192 -189 -192c-38 0 -67 16 -67 16v115s20 -14 48 -14c43 0 62 30 78 78l2 6l-179 470h143l72 -219c12 -38 28 -91 28 -91s16 56 27 92zM319 700l107 -142h-101l-79 64l-79 -64h-101l107 142h146z" />
    <glyph glyph-name="napostrophe" unicode="&#x149;" horiz-adv-x="546" 
d="M210 281v-281h-130v500h130v-49h2c22 28 56 59 123 59c95 0 159 -79 159 -179v-331h-132v298c0 54 -26 86 -70 86c-37 0 -82 -17 -82 -103zM38 715h101l-41 -189h-88z" />
    <glyph glyph-name="ymacron" unicode="&#x233;" horiz-adv-x="492" 
d="M278 282l68 218h142l-173 -479c-57 -157 -103 -192 -189 -192c-38 0 -67 16 -67 16v115s20 -14 48 -14c43 0 62 30 78 78l2 6l-179 470h143l72 -219c12 -38 28 -91 28 -91s16 56 27 92zM104 600v80h283v-80h-283z" />
    <glyph glyph-name="Eth" unicode="&#xd0;" horiz-adv-x="653" 
d="M0 415h70v285h222c189 0 325 -123 325 -365c0 -187 -113 -335 -322 -335h-225v305h-70v110zM210 125h81c129 0 181 97 181 206c0 130 -47 244 -184 244h-78v-160h123v-110h-123v-180z" />
    <glyph glyph-name="Scaron" unicode="&#x160;" horiz-adv-x="575" 
d="M381 517c0 35 -34 63 -92 63c-53 0 -92 -30 -92 -69c0 -55 79 -74 161 -104c88 -33 180 -79 180 -214c0 -103 -78 -203 -251 -203c-147 0 -239 68 -239 189c0 35 15 63 15 63h126s-11 -22 -11 -50c0 -43 37 -72 109 -72c77 0 107 37 107 73c0 55 -55 76 -121 99
c-98 34 -220 69 -220 219c0 116 103 199 236 199c141 0 219 -74 219 -181c0 -36 -13 -63 -13 -63h-124s10 20 10 51zM467 904l-107 -142h-146l-107 142h101l79 -64l79 64h101z" />
    <glyph glyph-name="Yacute" unicode="&#xdd;" horiz-adv-x="631" 
d="M246 292l-240 408h172l138 -265l137 265h172l-240 -408v-292h-139v292zM504 910l-158 -148h-107l90 148h175z" />
    <glyph glyph-name="Zcaron" unicode="&#x17d;" horiz-adv-x="571" 
d="M523 700v-109l-312 -461h326v-130h-503v103l313 467h-289v130h465zM465 904l-107 -142h-146l-107 142h101l79 -64l79 64h101z" />
    <glyph glyph-name="Aring" unicode="&#xc5;" horiz-adv-x="672" 
d="M512 0l-46 138h-260l-46 -138h-150l249 700h154l249 -700h-150zM336 527l-88 -264h176zM221 867c0 70 52 115 115 115c65 0 115 -45 115 -115s-52 -115 -115 -115s-115 41 -115 115zM292 868c0 -28 19 -46 44 -46s44 18 44 46s-19 46 -44 46s-44 -18 -44 -46z" />
    <glyph glyph-name="Ccedilla" unicode="&#xc7;" horiz-adv-x="620" 
d="M342 -10c-232 0 -306 157 -306 345c0 207 117 375 316 375c156 0 234 -89 234 -194c0 -43 -10 -69 -10 -69h-124s4 11 4 37c0 51 -33 91 -106 91c-116 0 -169 -98 -169 -239c0 -115 40 -211 166 -211c56 0 108 27 108 104c0 15 -3 28 -3 28h126s8 -22 8 -54
c0 -151 -125 -213 -244 -213zM272 -83v43c19 4 34 7 61 7c59 0 97 -33 97 -79c0 -48 -34 -93 -121 -93c-48 0 -96 14 -119 58l68 26c9 -16 29 -24 53 -24c32 0 44 15 44 34s-14 34 -41 34c-22 0 -42 -6 -42 -6z" />
    <glyph glyph-name="Eacute" unicode="&#xc9;" horiz-adv-x="541" 
d="M501 127v-127h-431v700h426v-127h-288v-155h269v-120h-269v-171h293zM474 910l-158 -148h-107l90 148h175z" />
    <glyph glyph-name="Ntilde" unicode="&#xd1;" horiz-adv-x="697" 
d="M206 0h-136v700h151l270 -468v468h136v-700h-150l-271 468v-468zM418 756c-50 0 -99 41 -131 41c-13 0 -19 -6 -19 -16c0 -8 3 -19 3 -19h-70s-7 26 -7 47c0 54 36 89 84 89c51 0 95 -40 131 -40c13 0 19 5 19 15c0 9 -4 19 -4 19h71s7 -22 7 -47c0 -54 -36 -89 -84 -89z
" />
    <glyph glyph-name="Agrave" unicode="&#xc0;" horiz-adv-x="672" 
d="M512 0l-46 138h-260l-46 -138h-150l249 700h154l249 -700h-150zM336 527l-88 -264h176zM292 762l-158 148h175l90 -148h-107z" />
    <glyph glyph-name="Atilde" unicode="&#xc3;" horiz-adv-x="672" 
d="M512 0l-46 138h-260l-46 -138h-150l249 700h154l249 -700h-150zM336 527l-88 -264h176zM406 756c-50 0 -99 41 -131 41c-13 0 -19 -6 -19 -16c0 -8 3 -19 3 -19h-70s-7 26 -7 47c0 54 36 89 84 89c51 0 95 -40 131 -40c13 0 19 5 19 15c0 9 -4 19 -4 19h71s7 -22 7 -47
c0 -54 -36 -89 -84 -89z" />
    <glyph glyph-name="Otilde" unicode="&#xd5;" horiz-adv-x="698" 
d="M349 -10c-210 0 -313 160 -313 345c0 190 98 375 313 375s313 -185 313 -375c0 -185 -103 -345 -313 -345zM349 575c-130 0 -166 -130 -166 -240c0 -100 31 -210 166 -210s166 110 166 210c0 110 -36 240 -166 240zM419 756c-50 0 -99 41 -131 41c-13 0 -19 -6 -19 -16
c0 -8 3 -19 3 -19h-70s-7 26 -7 47c0 54 36 89 84 89c51 0 95 -40 131 -40c13 0 19 5 19 15c0 9 -4 19 -4 19h71s7 -22 7 -47c0 -54 -36 -89 -84 -89z" />
    <glyph glyph-name="Ydieresis" unicode="&#x178;" horiz-adv-x="631" 
d="M246 292l-240 408h172l138 -265l137 265h172l-240 -408v-292h-139v292zM126 834c0 44 37 80 82 80c44 0 80 -36 80 -80c0 -45 -36 -82 -80 -82c-45 0 -82 37 -82 82zM343 834c0 44 37 80 82 80c44 0 80 -36 80 -80c0 -45 -36 -82 -80 -82c-45 0 -82 37 -82 82z" />
    <glyph glyph-name="Acircumflex" unicode="&#xc2;" horiz-adv-x="672" 
d="M512 0l-46 138h-260l-46 -138h-150l249 700h154l249 -700h-150zM336 527l-88 -264h176zM409 904l107 -142h-101l-79 64l-79 -64h-101l107 142h146z" />
    <glyph glyph-name="Ecircumflex" unicode="&#xca;" horiz-adv-x="541" 
d="M501 127v-127h-431v700h426v-127h-288v-155h269v-120h-269v-171h293zM351 904l107 -142h-101l-79 64l-79 -64h-101l107 142h146z" />
    <glyph glyph-name="Aacute" unicode="&#xc1;" horiz-adv-x="672" 
d="M512 0l-46 138h-260l-46 -138h-150l249 700h154l249 -700h-150zM336 527l-88 -264h176zM545 910l-158 -148h-107l90 148h175z" />
    <glyph glyph-name="Edieresis" unicode="&#xcb;" horiz-adv-x="541" 
d="M501 127v-127h-431v700h426v-127h-288v-155h269v-120h-269v-171h293zM88 834c0 44 37 80 82 80c44 0 80 -36 80 -80c0 -45 -36 -82 -80 -82c-45 0 -82 37 -82 82zM305 834c0 44 37 80 82 80c44 0 80 -36 80 -80c0 -45 -36 -82 -80 -82c-45 0 -82 37 -82 82z" />
    <glyph glyph-name="Egrave" unicode="&#xc8;" horiz-adv-x="541" 
d="M501 127v-127h-431v700h426v-127h-288v-155h269v-120h-269v-171h293zM255 762l-158 148h175l90 -148h-107z" />
    <glyph glyph-name="Iacute" unicode="&#xcd;" horiz-adv-x="291" 
d="M221 0h-151v700h151v-700zM351 910l-158 -148h-107l90 148h175z" />
    <glyph glyph-name="Icircumflex" unicode="&#xce;" horiz-adv-x="291" 
d="M221 0h-151v700h151v-700zM219 904l107 -142h-101l-79 64l-79 -64h-101l107 142h146z" />
    <glyph glyph-name="Idieresis" unicode="&#xcf;" horiz-adv-x="291" 
d="M221 0h-151v700h151v-700zM-44 834c0 44 37 80 82 80c44 0 80 -36 80 -80c0 -45 -36 -82 -80 -82c-45 0 -82 37 -82 82zM173 834c0 44 37 80 82 80c44 0 80 -36 80 -80c0 -45 -36 -82 -80 -82c-45 0 -82 37 -82 82z" />
    <glyph glyph-name="Igrave" unicode="&#xcc;" horiz-adv-x="291" 
d="M221 0h-151v700h151v-700zM102 762l-158 148h175l90 -148h-107z" />
    <glyph glyph-name="Oacute" unicode="&#xd3;" horiz-adv-x="698" 
d="M349 -10c-210 0 -313 160 -313 345c0 190 98 375 313 375s313 -185 313 -375c0 -185 -103 -345 -313 -345zM349 575c-130 0 -166 -130 -166 -240c0 -100 31 -210 166 -210s166 110 166 210c0 110 -36 240 -166 240zM548 910l-158 -148h-107l90 148h175z" />
    <glyph glyph-name="Ocircumflex" unicode="&#xd4;" horiz-adv-x="698" 
d="M349 -10c-210 0 -313 160 -313 345c0 190 98 375 313 375s313 -185 313 -375c0 -185 -103 -345 -313 -345zM349 575c-130 0 -166 -130 -166 -240c0 -100 31 -210 166 -210s166 110 166 210c0 110 -36 240 -166 240zM422 904l107 -142h-101l-79 64l-79 -64h-101l107 142
h146z" />
    <glyph glyph-name="Ograve" unicode="&#xd2;" horiz-adv-x="698" 
d="M349 -10c-210 0 -313 160 -313 345c0 190 98 375 313 375s313 -185 313 -375c0 -185 -103 -345 -313 -345zM349 575c-130 0 -166 -130 -166 -240c0 -100 31 -210 166 -210s166 110 166 210c0 110 -36 240 -166 240zM307 762l-158 148h175l90 -148h-107z" />
    <glyph glyph-name="Uacute" unicode="&#xda;" horiz-adv-x="668" 
d="M604 700v-436c0 -181 -112 -274 -270 -274s-270 93 -270 274v436h150v-444c0 -77 40 -129 120 -129s120 52 120 129v444h150zM522 910l-158 -148h-107l90 148h175z" />
    <glyph glyph-name="Ucircumflex" unicode="&#xdb;" horiz-adv-x="668" 
d="M604 700v-436c0 -181 -112 -274 -270 -274s-270 93 -270 274v436h150v-444c0 -77 40 -129 120 -129s120 52 120 129v444h150zM407 904l107 -142h-101l-79 64l-79 -64h-101l107 142h146z" />
    <glyph glyph-name="Ugrave" unicode="&#xd9;" horiz-adv-x="668" 
d="M604 700v-436c0 -181 -112 -274 -270 -274s-270 93 -270 274v436h150v-444c0 -77 40 -129 120 -129s120 52 120 129v444h150zM299 762l-158 148h175l90 -148h-107z" />
    <glyph glyph-name="Gbreve" unicode="&#x11e;" horiz-adv-x="662" 
d="M354 710c170 0 244 -98 244 -190c0 -36 -10 -66 -10 -66h-124s4 14 4 30c0 62 -45 96 -114 96c-107 0 -171 -98 -171 -250c0 -107 45 -205 156 -205c102 0 139 60 139 142h-159v117h283v-384h-120v54c-23 -31 -79 -64 -151 -64c-199 0 -293 153 -293 342
c0 201 106 378 316 378zM350 755c-94 0 -154 49 -154 150h92c0 -43 18 -73 62 -73s63 30 63 73h94c0 -96 -63 -150 -157 -150z" />
    <glyph glyph-name="Idotaccent" unicode="&#x130;" horiz-adv-x="291" 
d="M221 0h-151v700h151v-700zM64 834c0 44 37 80 82 80c44 0 80 -36 80 -80c0 -45 -36 -82 -80 -82c-45 0 -82 37 -82 82z" />
    <glyph glyph-name="Scedilla" unicode="&#x15e;" horiz-adv-x="575" 
d="M381 517c0 35 -34 63 -92 63c-53 0 -92 -30 -92 -69c0 -55 79 -74 161 -104c88 -33 180 -79 180 -214c0 -103 -78 -203 -251 -203c-147 0 -239 68 -239 189c0 35 15 63 15 63h126s-11 -22 -11 -50c0 -43 37 -72 109 -72c77 0 107 37 107 73c0 55 -55 76 -121 99
c-98 34 -220 69 -220 219c0 116 103 199 236 199c141 0 219 -74 219 -181c0 -36 -13 -63 -13 -63h-124s10 20 10 51zM249 -83v43c19 4 34 7 61 7c59 0 97 -33 97 -79c0 -48 -34 -93 -121 -93c-48 0 -96 14 -119 58l68 26c9 -16 29 -24 53 -24c32 0 44 15 44 34
s-14 34 -41 34c-22 0 -42 -6 -42 -6z" />
    <glyph glyph-name="Amacron" unicode="&#x100;" horiz-adv-x="672" 
d="M512 0l-46 138h-260l-46 -138h-150l249 700h154l249 -700h-150zM336 527l-88 -264h176zM194 768v81h283v-81h-283z" />
    <glyph glyph-name="Aogonek" unicode="&#x104;" horiz-adv-x="672" 
d="M512 0l-46 138h-260l-46 -138h-150l249 700h154l249 -700h-150zM336 527l-88 -264h176zM601 0h61c0 -31 -31 -47 -53 -54c-27 -8 -46 -22 -46 -45c0 -21 14 -33 36 -33c25 0 42 10 47 39l69 -17c-1 -35 -30 -90 -114 -90c-87 0 -118 47 -118 95c0 50 40 79 85 89
c21 5 33 16 33 16z" />
    <glyph glyph-name="Ccaron" unicode="&#x10c;" horiz-adv-x="620" 
d="M342 -10c-232 0 -306 157 -306 345c0 207 117 375 316 375c156 0 234 -89 234 -194c0 -43 -10 -69 -10 -69h-124s4 11 4 37c0 51 -33 91 -106 91c-116 0 -169 -98 -169 -239c0 -115 40 -211 166 -211c56 0 108 27 108 104c0 15 -3 28 -3 28h126s8 -22 8 -54
c0 -151 -125 -213 -244 -213zM522 904l-107 -142h-146l-107 142h101l79 -64l79 64h101z" />
    <glyph glyph-name="Cacute" unicode="&#x106;" horiz-adv-x="620" 
d="M342 -10c-232 0 -306 157 -306 345c0 207 117 375 316 375c156 0 234 -89 234 -194c0 -43 -10 -69 -10 -69h-124s4 11 4 37c0 51 -33 91 -106 91c-116 0 -169 -98 -169 -239c0 -115 40 -211 166 -211c56 0 108 27 108 104c0 15 -3 28 -3 28h126s8 -22 8 -54
c0 -151 -125 -213 -244 -213zM542 910l-158 -148h-107l90 148h175z" />
    <glyph glyph-name="Zacute" unicode="&#x179;" horiz-adv-x="571" 
d="M523 700v-109l-312 -461h326v-130h-503v103l313 467h-289v130h465zM488 910l-158 -148h-107l90 148h175z" />
    <glyph glyph-name="Dcaron" unicode="&#x10e;" horiz-adv-x="653" 
d="M295 0h-225v700h222c189 0 325 -123 325 -365c0 -187 -113 -335 -322 -335zM210 125h81c129 0 181 97 181 206c0 130 -47 244 -184 244h-78v-450zM456 904l-107 -142h-146l-107 142h101l79 -64l79 64h101z" />
    <glyph glyph-name="Emacron" unicode="&#x112;" horiz-adv-x="541" 
d="M501 127v-127h-431v700h426v-127h-288v-155h269v-120h-269v-171h293zM139 768v81h283v-81h-283z" />
    <glyph glyph-name="Edotaccent" unicode="&#x116;" horiz-adv-x="541" 
d="M501 127v-127h-431v700h426v-127h-288v-155h269v-120h-269v-171h293zM206 834c0 44 37 80 82 80c44 0 80 -36 80 -80c0 -45 -36 -82 -80 -82c-45 0 -82 37 -82 82z" />
    <glyph glyph-name="Ecaron" unicode="&#x11a;" horiz-adv-x="541" 
d="M501 127v-127h-431v700h426v-127h-288v-155h269v-120h-269v-171h293zM467 904l-107 -142h-146l-107 142h101l79 -64l79 64h101z" />
    <glyph glyph-name="Eogonek" unicode="&#x118;" horiz-adv-x="541" 
d="M440 0h-370v700h426v-127h-288v-155h269v-120h-269v-171h293v-127c0 -31 -31 -47 -53 -54c-27 -8 -46 -22 -46 -45c0 -21 14 -33 36 -33c25 0 42 10 47 39l69 -17c-1 -35 -30 -90 -114 -90c-87 0 -118 47 -118 95c0 50 40 79 85 89c21 5 33 16 33 16z" />
    <glyph glyph-name="Iogonek" unicode="&#x12e;" horiz-adv-x="291" 
d="M160 0h-90v700h151v-700c0 -31 -31 -47 -53 -54c-27 -8 -46 -22 -46 -45c0 -21 14 -33 36 -33c25 0 42 10 47 39l69 -17c-1 -35 -30 -90 -114 -90c-87 0 -118 47 -118 95c0 50 40 79 85 89c21 5 33 16 33 16z" />
    <glyph glyph-name="Imacron" unicode="&#x12a;" horiz-adv-x="291" 
d="M221 0h-151v700h151v-700zM4 768v81h283v-81h-283z" />
    <glyph glyph-name="Kcommaaccent" unicode="&#x136;" horiz-adv-x="642" 
d="M214 700v-287l229 287h185l-286 -334l302 -366h-197l-233 292v-292h-144v700h144zM286 -66h108l-52 -189h-95z" />
    <glyph glyph-name="Lcommaaccent" unicode="&#x13b;" horiz-adv-x="499" 
d="M474 132v-132h-404v700h148v-568h256zM215 -66h108l-52 -189h-95z" />
    <glyph glyph-name="Lcaron" unicode="&#x13d;" horiz-adv-x="499" 
d="M474 132v-132h-404v700h148v-568h256zM306 700h108l-52 -189h-95z" />
    <glyph glyph-name="Lacute" unicode="&#x139;" horiz-adv-x="499" 
d="M474 132v-132h-404v700h148v-568h256zM351 910l-158 -148h-107l90 148h175z" />
    <glyph glyph-name="Ncommaaccent" unicode="&#x145;" horiz-adv-x="697" 
d="M206 0h-136v700h151l270 -468v468h136v-700h-150l-271 468v-468zM305 -66h108l-52 -189h-95z" />
    <glyph glyph-name="Nacute" unicode="&#x143;" horiz-adv-x="697" 
d="M206 0h-136v700h151l270 -468v468h136v-700h-150l-271 468v-468zM540 910l-158 -148h-107l90 148h175z" />
    <glyph glyph-name="Ncaron" unicode="&#x147;" horiz-adv-x="697" 
d="M206 0h-136v700h151l270 -468v468h136v-700h-150l-271 468v-468zM528 904l-107 -142h-146l-107 142h101l79 -64l79 64h101z" />
    <glyph glyph-name="Ohungarumlaut" unicode="&#x150;" horiz-adv-x="698" 
d="M349 -10c-210 0 -313 160 -313 345c0 190 98 375 313 375s313 -185 313 -375c0 -185 -103 -345 -313 -345zM349 575c-130 0 -166 -130 -166 -240c0 -100 31 -210 166 -210s166 110 166 210c0 110 -36 240 -166 240zM447 910l-158 -148h-88l90 148h156zM637 910l-158 -148
h-88l90 148h156z" />
    <glyph glyph-name="Omacron" unicode="&#x14c;" horiz-adv-x="698" 
d="M349 -10c-210 0 -313 160 -313 345c0 190 98 375 313 375s313 -185 313 -375c0 -185 -103 -345 -313 -345zM349 575c-130 0 -166 -130 -166 -240c0 -100 31 -210 166 -210s166 110 166 210c0 110 -36 240 -166 240zM207 768v81h283v-81h-283z" />
    <glyph glyph-name="Racute" unicode="&#x154;" horiz-adv-x="588" 
d="M210 0h-140v700h240c158 0 234 -83 234 -208c0 -91 -45 -159 -120 -190l144 -302h-154l-128 284h-76v-284zM309 575h-99v-166h104c62 0 95 33 95 83s-28 83 -100 83zM470 910l-158 -148h-107l90 148h175z" />
    <glyph glyph-name="Rcaron" unicode="&#x158;" horiz-adv-x="588" 
d="M210 0h-140v700h240c158 0 234 -83 234 -208c0 -91 -45 -159 -120 -190l144 -302h-154l-128 284h-76v-284zM309 575h-99v-166h104c62 0 95 33 95 83s-28 83 -100 83zM450 904l-107 -142h-146l-107 142h101l79 -64l79 64h101z" />
    <glyph glyph-name="Rcommaaccent" unicode="&#x156;" horiz-adv-x="588" 
d="M210 0h-140v700h240c158 0 234 -83 234 -208c0 -91 -45 -159 -120 -190l144 -302h-154l-128 284h-76v-284zM309 575h-99v-166h104c62 0 95 33 95 83s-28 83 -100 83zM266 -66h108l-52 -189h-95z" />
    <glyph glyph-name="Sacute" unicode="&#x15a;" horiz-adv-x="575" 
d="M381 517c0 35 -34 63 -92 63c-53 0 -92 -30 -92 -69c0 -55 79 -74 161 -104c88 -33 180 -79 180 -214c0 -103 -78 -203 -251 -203c-147 0 -239 68 -239 189c0 35 15 63 15 63h126s-11 -22 -11 -50c0 -43 37 -72 109 -72c77 0 107 37 107 73c0 55 -55 76 -121 99
c-98 34 -220 69 -220 219c0 116 103 199 236 199c141 0 219 -74 219 -181c0 -36 -13 -63 -13 -63h-124s10 20 10 51zM479 910l-158 -148h-107l90 148h175z" />
    <glyph glyph-name="Tcaron" unicode="&#x164;" horiz-adv-x="527" 
d="M333 0h-139v571h-184v129h507v-129h-184v-571zM443 904l-107 -142h-146l-107 142h101l79 -64l79 64h101z" />
    <glyph glyph-name="Umacron" unicode="&#x16a;" horiz-adv-x="668" 
d="M604 700v-436c0 -181 -112 -274 -270 -274s-270 93 -270 274v436h150v-444c0 -77 40 -129 120 -129s120 52 120 129v444h150zM192 768v81h283v-81h-283z" />
    <glyph glyph-name="Uring" unicode="&#x16e;" horiz-adv-x="668" 
d="M604 700v-436c0 -181 -112 -274 -270 -274s-270 93 -270 274v436h150v-444c0 -77 40 -129 120 -129s120 52 120 129v444h150zM219 867c0 70 52 115 115 115c65 0 115 -45 115 -115s-52 -115 -115 -115s-115 41 -115 115zM290 868c0 -28 19 -46 44 -46s44 18 44 46
s-19 46 -44 46s-44 -18 -44 -46z" />
    <glyph glyph-name="Uhungarumlaut" unicode="&#x170;" horiz-adv-x="668" 
d="M604 700v-436c0 -181 -112 -274 -270 -274s-270 93 -270 274v436h150v-444c0 -77 40 -129 120 -129s120 52 120 129v444h150zM421 910l-158 -148h-88l90 148h156zM611 910l-158 -148h-88l90 148h156z" />
    <glyph glyph-name="Uogonek" unicode="&#x172;" horiz-adv-x="668" 
d="M604 700v-436c0 -148 -75 -237 -188 -264c-1 -31 -31 -47 -53 -54c-27 -8 -46 -22 -46 -45c0 -21 14 -33 36 -33c25 0 42 10 47 39l69 -17c-1 -35 -30 -90 -114 -90c-87 0 -118 47 -118 95c0 50 40 79 85 89l17 6h-5c-158 0 -270 93 -270 274v436h150v-444
c0 -77 40 -129 120 -129s120 52 120 129v444h150z" />
    <glyph glyph-name="Zdotaccent" unicode="&#x17b;" horiz-adv-x="571" 
d="M523 700v-109l-312 -461h326v-130h-503v103l313 467h-289v130h465zM204 834c0 44 37 80 82 80c44 0 80 -36 80 -80c0 -45 -36 -82 -80 -82c-45 0 -82 37 -82 82z" />
    <glyph glyph-name="Gcommaaccent" unicode="&#x122;" horiz-adv-x="662" 
d="M354 710c170 0 244 -98 244 -190c0 -36 -10 -66 -10 -66h-124s4 14 4 30c0 62 -45 96 -114 96c-107 0 -171 -98 -171 -250c0 -107 45 -205 156 -205c102 0 139 60 139 142h-159v117h283v-384h-120v54c-23 -31 -79 -64 -151 -64c-199 0 -293 153 -293 342
c0 201 106 378 316 378zM275 -66h108l-52 -189h-95z" />
    <glyph glyph-name="Tcedilla" unicode="&#x162;" horiz-adv-x="527" 
d="M333 0h-139v571h-184v129h507v-129h-184v-571zM215 -83v43c19 4 34 7 61 7c59 0 97 -33 97 -79c0 -48 -34 -93 -121 -93c-48 0 -96 14 -119 58l68 26c9 -16 29 -24 53 -24c32 0 44 15 44 34s-14 34 -41 34c-22 0 -42 -6 -42 -6z" />
    <glyph glyph-name="Abreve" unicode="&#x102;" horiz-adv-x="672" 
d="M512 0l-46 138h-260l-46 -138h-150l249 700h154l249 -700h-150zM336 527l-88 -264h176zM334 755c-94 0 -154 49 -154 150h92c0 -43 18 -73 62 -73s63 30 63 73h94c0 -96 -63 -150 -157 -150z" />
    <glyph glyph-name="Acaron" unicode="&#x1cd;" horiz-adv-x="672" 
d="M512 0l-46 138h-260l-46 -138h-150l249 700h154l249 -700h-150zM336 527l-88 -264h176zM516 904l-107 -142h-146l-107 142h101l79 -64l79 64h101z" />
    <glyph glyph-name="Adotaccent" unicode="&#x226;" horiz-adv-x="672" 
d="M512 0l-46 138h-260l-46 -138h-150l249 700h154l249 -700h-150zM336 527l-88 -264h176zM255 834c0 44 37 80 82 80c44 0 80 -36 80 -80c0 -45 -36 -82 -80 -82c-45 0 -82 37 -82 82z" />
    <glyph glyph-name="Ccircumflex" unicode="&#x108;" horiz-adv-x="620" 
d="M342 -10c-232 0 -306 157 -306 345c0 207 117 375 316 375c156 0 234 -89 234 -194c0 -43 -10 -69 -10 -69h-124s4 11 4 37c0 51 -33 91 -106 91c-116 0 -169 -98 -169 -239c0 -115 40 -211 166 -211c56 0 108 27 108 104c0 15 -3 28 -3 28h126s8 -22 8 -54
c0 -151 -125 -213 -244 -213zM423 904l107 -142h-101l-79 64l-79 -64h-101l107 142h146z" />
    <glyph glyph-name="Cdotaccent" unicode="&#x10a;" horiz-adv-x="620" 
d="M342 -10c-232 0 -306 157 -306 345c0 207 117 375 316 375c156 0 234 -89 234 -194c0 -43 -10 -69 -10 -69h-124s4 11 4 37c0 51 -33 91 -106 91c-116 0 -169 -98 -169 -239c0 -115 40 -211 166 -211c56 0 108 27 108 104c0 15 -3 28 -3 28h126s8 -22 8 -54
c0 -151 -125 -213 -244 -213zM267 834c0 44 37 80 82 80c44 0 80 -36 80 -80c0 -45 -36 -82 -80 -82c-45 0 -82 37 -82 82z" />
    <glyph glyph-name="Ebreve" unicode="&#x114;" horiz-adv-x="541" 
d="M501 127v-127h-431v700h426v-127h-288v-155h269v-120h-269v-171h293zM280 755c-94 0 -154 49 -154 150h92c0 -43 18 -73 62 -73s63 30 63 73h94c0 -96 -63 -150 -157 -150z" />
    <glyph glyph-name="Gcircumflex" unicode="&#x11c;" horiz-adv-x="662" 
d="M354 710c170 0 244 -98 244 -190c0 -36 -10 -66 -10 -66h-124s4 14 4 30c0 62 -45 96 -114 96c-107 0 -171 -98 -171 -250c0 -107 45 -205 156 -205c102 0 139 60 139 142h-159v117h283v-384h-120v54c-23 -31 -79 -64 -151 -64c-199 0 -293 153 -293 342
c0 201 106 378 316 378zM423 904l107 -142h-101l-79 64l-79 -64h-101l107 142h146z" />
    <glyph glyph-name="Gtilde" unicode="&#xf11b;" horiz-adv-x="662" 
d="M354 710c170 0 244 -98 244 -190c0 -36 -10 -66 -10 -66h-124s4 14 4 30c0 62 -45 96 -114 96c-107 0 -171 -98 -171 -250c0 -107 45 -205 156 -205c102 0 139 60 139 142h-159v117h283v-384h-120v54c-23 -31 -79 -64 -151 -64c-199 0 -293 153 -293 342
c0 201 106 378 316 378zM421 756c-50 0 -99 41 -131 41c-13 0 -19 -6 -19 -16c0 -8 3 -19 3 -19h-70s-7 26 -7 47c0 54 36 89 84 89c51 0 95 -40 131 -40c13 0 19 5 19 15c0 9 -4 19 -4 19h71s7 -22 7 -47c0 -54 -36 -89 -84 -89z" />
    <glyph glyph-name="Gdotaccent" unicode="&#x120;" horiz-adv-x="662" 
d="M354 710c170 0 244 -98 244 -190c0 -36 -10 -66 -10 -66h-124s4 14 4 30c0 62 -45 96 -114 96c-107 0 -171 -98 -171 -250c0 -107 45 -205 156 -205c102 0 139 60 139 142h-159v117h283v-384h-120v54c-23 -31 -79 -64 -151 -64c-199 0 -293 153 -293 342
c0 201 106 378 316 378zM267 834c0 44 37 80 82 80c44 0 80 -36 80 -80c0 -45 -36 -82 -80 -82c-45 0 -82 37 -82 82z" />
    <glyph glyph-name="Hbar" unicode="&#x126;" horiz-adv-x="667" 
d="M-1 516v84h71v100h147v-100h233v100h147v-100h71v-84h-71v-516h-147v286h-233v-286h-147v516h-71zM217 418h233v98h-233v-98z" />
    <glyph glyph-name="Hcircumflex" unicode="&#x124;" horiz-adv-x="667" 
d="M217 0h-147v700h147v-282h233v282h147v-700h-147v286h-233v-286zM406 904l107 -142h-101l-79 64l-79 -64h-101l107 142h146z" />
    <glyph glyph-name="IJ" unicode="&#x132;" horiz-adv-x="746" 
d="M221 0h-151v700h151v-700zM680 700v-497c0 -114 -43 -213 -195 -213c-123 0 -189 73 -189 143c0 48 16 82 16 82h124s-10 -21 -10 -54c0 -23 16 -46 48 -46c47 0 62 29 62 85v500h144z" />
    <glyph glyph-name="Ibreve" unicode="&#x12c;" horiz-adv-x="291" 
d="M221 0h-151v700h151v-700zM144 755c-94 0 -154 49 -154 150h92c0 -43 18 -73 62 -73s63 30 63 73h94c0 -96 -63 -150 -157 -150z" />
    <glyph glyph-name="Itilde" unicode="&#x128;" horiz-adv-x="291" 
d="M221 0h-151v700h151v-700zM216 756c-50 0 -99 41 -131 41c-13 0 -19 -6 -19 -16c0 -8 3 -19 3 -19h-70s-7 26 -7 47c0 54 36 89 84 89c51 0 95 -40 131 -40c13 0 19 5 19 15c0 9 -4 19 -4 19h71s7 -22 7 -47c0 -54 -36 -89 -84 -89z" />
    <glyph glyph-name="Jcircumflex" unicode="&#x134;" horiz-adv-x="455" 
d="M389 700v-497c0 -114 -43 -213 -195 -213c-123 0 -189 73 -189 143c0 48 16 82 16 82h124s-10 -21 -10 -54c0 -23 16 -46 48 -46c47 0 62 29 62 85v500h144zM387 904l107 -142h-101l-79 64l-79 -64h-101l107 142h146z" />
    <glyph glyph-name="Ldot" unicode="&#x13f;" horiz-adv-x="499" 
d="M474 132v-132h-404v700h148v-568h256zM299 394c0 50 42 93 93 93s93 -43 93 -93c0 -51 -42 -93 -93 -93s-93 42 -93 93z" />
    <glyph glyph-name="Mcircumflex" unicode="&#xf116;" horiz-adv-x="878" 
d="M510 5h-142l-168 529s6 -57 6 -123v-411h-136v700h199l170 -534l170 534h199v-700h-136v411c0 66 6 123 6 123zM512 904l107 -142h-101l-79 64l-79 -64h-101l107 142h146z" />
    <glyph glyph-name="Ncircumflex" unicode="&#xf127;" horiz-adv-x="697" 
d="M206 0h-136v700h151l270 -468v468h136v-700h-150l-271 468v-468zM421 904l107 -142h-101l-79 64l-79 -64h-101l107 142h146z" />
    <glyph glyph-name="Ndieresis" unicode="&#xf12c;" horiz-adv-x="697" 
d="M206 0h-136v700h151l270 -468v468h136v-700h-150l-271 468v-468zM159 834c0 44 37 80 82 80c44 0 80 -36 80 -80c0 -45 -36 -82 -80 -82c-45 0 -82 37 -82 82zM376 834c0 44 37 80 82 80c44 0 80 -36 80 -80c0 -45 -36 -82 -80 -82c-45 0 -82 37 -82 82z" />
    <glyph glyph-name="Eng" unicode="&#x14a;" horiz-adv-x="697" 
d="M206 0h-136v700h151l270 -450v450h136v-697c0 -112 -34 -213 -188 -213c-72 0 -177 27 -177 116c0 35 17 69 17 69h121s-7 -16 -7 -30c0 -24 19 -41 50 -41c42 0 48 46 48 96l-285 468v-468z" />
    <glyph glyph-name="Obreve" unicode="&#x14e;" horiz-adv-x="698" 
d="M349 -10c-210 0 -313 160 -313 345c0 190 98 375 313 375s313 -185 313 -375c0 -185 -103 -345 -313 -345zM349 575c-130 0 -166 -130 -166 -240c0 -100 31 -210 166 -210s166 110 166 210c0 110 -36 240 -166 240zM347 755c-94 0 -154 49 -154 150h92
c0 -43 18 -73 62 -73s63 30 63 73h94c0 -96 -63 -150 -157 -150z" />
    <glyph glyph-name="Odotaccent" unicode="&#x22e;" horiz-adv-x="698" 
d="M349 -10c-210 0 -313 160 -313 345c0 190 98 375 313 375s313 -185 313 -375c0 -185 -103 -345 -313 -345zM349 575c-130 0 -166 -130 -166 -240c0 -100 31 -210 166 -210s166 110 166 210c0 110 -36 240 -166 240zM268 834c0 44 37 80 82 80c44 0 80 -36 80 -80
c0 -45 -36 -82 -80 -82c-45 0 -82 37 -82 82z" />
    <glyph glyph-name="Scircumflex" unicode="&#x15c;" horiz-adv-x="575" 
d="M381 517c0 35 -34 63 -92 63c-53 0 -92 -30 -92 -69c0 -55 79 -74 161 -104c88 -33 180 -79 180 -214c0 -103 -78 -203 -251 -203c-147 0 -239 68 -239 189c0 35 15 63 15 63h126s-11 -22 -11 -50c0 -43 37 -72 109 -72c77 0 107 37 107 73c0 55 -55 76 -121 99
c-98 34 -220 69 -220 219c0 116 103 199 236 199c141 0 219 -74 219 -181c0 -36 -13 -63 -13 -63h-124s10 20 10 51zM360 904l107 -142h-101l-79 64l-79 -64h-101l107 142h146z" />
    <glyph glyph-name="Scommaaccent" unicode="&#x218;" horiz-adv-x="575" 
d="M381 517c0 35 -34 63 -92 63c-53 0 -92 -30 -92 -69c0 -55 79 -74 161 -104c88 -33 180 -79 180 -214c0 -103 -78 -203 -251 -203c-147 0 -239 68 -239 189c0 35 15 63 15 63h126s-11 -22 -11 -50c0 -43 37 -72 109 -72c77 0 107 37 107 73c0 55 -55 76 -121 99
c-98 34 -220 69 -220 219c0 116 103 199 236 199c141 0 219 -74 219 -181c0 -36 -13 -63 -13 -63h-124s10 20 10 51zM248 -66h108l-52 -189h-95z" />
    <glyph glyph-name="Tcommaaccent" unicode="&#x21a;" horiz-adv-x="527" 
d="M333 0h-139v571h-184v129h507v-129h-184v-571zM211 -66h108l-52 -189h-95z" />
    <glyph glyph-name="Tbar" unicode="&#x166;" horiz-adv-x="527" 
d="M52 287v107h142v177h-184v129h507v-129h-184v-177h143v-107h-143v-287h-139v287h-142z" />
    <glyph glyph-name="Ubreve" unicode="&#x16c;" horiz-adv-x="668" 
d="M604 700v-436c0 -181 -112 -274 -270 -274s-270 93 -270 274v436h150v-444c0 -77 40 -129 120 -129s120 52 120 129v444h150zM332 755c-94 0 -154 49 -154 150h92c0 -43 18 -73 62 -73s63 30 63 73h94c0 -96 -63 -150 -157 -150z" />
    <glyph glyph-name="Utilde" unicode="&#x168;" horiz-adv-x="668" 
d="M604 700v-436c0 -181 -112 -274 -270 -274s-270 93 -270 274v436h150v-444c0 -77 40 -129 120 -129s120 52 120 129v444h150zM404 756c-50 0 -99 41 -131 41c-13 0 -19 -6 -19 -16c0 -8 3 -19 3 -19h-70s-7 26 -7 47c0 54 36 89 84 89c51 0 95 -40 131 -40
c13 0 19 5 19 15c0 9 -4 19 -4 19h71s7 -22 7 -47c0 -54 -36 -89 -84 -89z" />
    <glyph glyph-name="Wgrave" unicode="&#x1e80;" horiz-adv-x="986" 
d="M414 700h158l100 -427c11 -46 24 -111 24 -111s12 67 22 112l94 426h154l-179 -700h-170l-104 407c-9 33 -19 78 -20 85l-20 -85l-104 -407h-170l-179 700h154l93 -427l22 -110l25 109zM441 762l-158 148h175l90 -148h-107z" />
    <glyph glyph-name="Wcircumflex" unicode="&#x174;" horiz-adv-x="986" 
d="M414 700h158l100 -427c10 -43 22 -102 24 -110c1 6 12 68 22 111l94 426h154l-179 -700h-170l-104 407c-9 33 -19 78 -20 85l-20 -85l-104 -407h-170l-179 700h154l93 -427l22 -110l25 109zM566 904l107 -142h-101l-79 64l-79 -64h-101l107 142h146z" />
    <glyph glyph-name="Wacute" unicode="&#x1e82;" horiz-adv-x="986" 
d="M414 700h158l100 -427c11 -46 24 -111 24 -111s12 67 22 112l94 426h154l-179 -700h-170l-104 407c-9 33 -19 78 -20 85l-20 -85l-104 -407h-170l-179 700h154l93 -427l22 -110l25 109zM705 910l-158 -148h-107l90 148h175z" />
    <glyph glyph-name="Wdieresis" unicode="&#x1e84;" horiz-adv-x="986" 
d="M414 700h158l100 -427c11 -46 24 -111 24 -111s12 67 22 112l94 426h154l-179 -700h-170l-104 407c-9 33 -19 78 -20 85l-20 -85l-104 -407h-170l-179 700h154l93 -427l22 -110l25 109zM520 834c0 44 37 80 82 80c44 0 80 -36 80 -80c0 -45 -36 -82 -80 -82
c-45 0 -82 37 -82 82zM303 834c0 44 37 80 82 80c44 0 80 -36 80 -80c0 -45 -36 -82 -80 -82c-45 0 -82 37 -82 82z" />
    <glyph glyph-name="Ygrave" unicode="&#x1ef2;" horiz-adv-x="631" 
d="M246 292l-240 408h172l138 -265l137 265h172l-240 -408v-292h-139v292zM266 762l-158 148h175l90 -148h-107z" />
    <glyph glyph-name="Ycircumflex" unicode="&#x176;" horiz-adv-x="631" 
d="M246 292l-240 408h172l138 -265l137 265h172l-240 -408v-292h-139v292zM388 904l107 -142h-101l-79 64l-79 -64h-101l107 142h146z" />
    <glyph glyph-name="Ymacron" unicode="&#x232;" horiz-adv-x="631" 
d="M246 292l-240 408h172l138 -265l137 265h172l-240 -408v-292h-139v292zM174 768v81h283v-81h-283z" />
    <glyph glyph-name="Germandbls" unicode="&#xf211;" horiz-adv-x="1150" 
d="M381 517c0 35 -34 63 -92 63c-53 0 -92 -30 -92 -69c0 -55 79 -74 161 -104c88 -33 180 -79 180 -214c0 -103 -78 -203 -251 -203c-147 0 -239 68 -239 189c0 35 15 63 15 63h126s-11 -22 -11 -50c0 -43 37 -72 109 -72c77 0 107 37 107 73c0 55 -55 76 -121 99
c-98 34 -220 69 -220 219c0 116 103 199 236 199c141 0 219 -74 219 -181c0 -36 -13 -63 -13 -63h-124s10 20 10 51zM956 517c0 35 -34 63 -92 63c-53 0 -92 -30 -92 -69c0 -55 79 -74 161 -104c88 -33 180 -79 180 -214c0 -103 -78 -203 -251 -203c-147 0 -239 68 -239 189
c0 35 15 63 15 63h126s-11 -22 -11 -50c0 -43 37 -72 109 -72c77 0 107 37 107 73c0 55 -55 76 -121 99c-98 34 -220 69 -220 219c0 116 103 199 236 199c141 0 219 -74 219 -181c0 -36 -13 -63 -13 -63h-124s10 20 10 51z" />
    <glyph glyph-name="dotlessj" unicode="&#x237;" horiz-adv-x="249" 
d="M194 500v-498c0 -159 -52 -212 -146 -212c-92 0 -133 50 -133 116c0 29 8 46 8 46h97s-3 -7 -3 -17c0 -15 3 -27 23 -27c21 0 25 12 25 73v519h129z" />
    <glyph glyph-name="jcircumflex" unicode="&#x135;" horiz-adv-x="249" 
d="M194 500v-498c0 -159 -52 -212 -146 -212c-92 0 -133 50 -133 116c0 29 8 46 8 46h97s-3 -7 -3 -17c0 -15 3 -27 23 -27c21 0 25 12 25 73v519h129zM198 700l107 -142h-101l-79 64l-79 -64h-101l107 142h146z" />
    <glyph glyph-name="h" unicode="h" horiz-adv-x="522" 
d="M185 0h-130v722h131v-255c23 22 63 43 110 43c117 0 174 -75 174 -198v-312h-130v288c0 73 -29 96 -71 96c-44 0 -84 -30 -84 -103v-281z" />
    </font>
</defs>
</svg>
